# This file uses centimeters as units for non-parametric coordinates.

mtllib Beams.mtl
g default
v 0.585873 3.676435 17.714279
v 0.585873 3.676435 13.456388
v 0.585873 3.964990 17.714279
v 0.585873 3.964990 13.456388
v 0.422597 3.964990 17.714279
v 0.422597 3.964990 13.456388
v 0.422597 3.676435 17.714279
v 0.422597 3.676435 13.456388
v 3.077744 3.184215 17.693924
v 3.257785 3.184215 17.693924
v 3.077744 3.494184 17.693924
v 3.257785 3.494184 17.693924
v 3.077744 3.494184 -8.599766
v 3.257785 3.494184 -8.599766
v 3.077744 3.184215 -8.599766
v 3.257785 3.184215 -8.599766
v 3.972277 3.025210 17.693924
v 4.152288 3.025210 17.693924
v 3.972277 3.356427 17.693924
v 4.152288 3.356427 17.693924
v 3.972277 3.356427 -8.599766
v 4.152288 3.356427 -8.599766
v 3.972277 3.025210 -8.599766
v 4.152288 3.025210 -8.599766
v -5.867630 2.860208 17.721550
v -5.687633 2.860208 17.721550
v -5.867630 3.144553 17.721550
v -5.687633 3.144553 17.721550
v -5.867630 3.144553 -4.036619
v -5.687633 3.144553 -4.036619
v -5.867630 2.860208 -4.036619
v -5.687633 2.860208 -4.036619
v 5.761326 2.735949 17.693924
v 5.941384 2.735949 17.693924
v 5.761326 3.147273 17.693924
v 5.941384 3.147273 17.693924
v 5.761326 3.147273 -13.146888
v 5.962861 3.147273 -13.146888
v 5.761326 2.735949 -13.146888
v 5.962861 2.735949 -13.146888
v 1.288660 3.500285 17.693924
v 1.468704 3.500285 17.693924
v 1.288660 3.831821 17.693924
v 1.468704 3.827127 17.693924
v 1.288660 3.831821 -8.599766
v 1.468704 3.827127 -8.599766
v 1.288660 3.500285 -8.599766
v 1.468704 3.500285 -8.599766
v 0.394137 3.663288 13.232710
v 0.574172 3.663288 13.232710
v 0.394137 3.982096 13.232710
v 0.574172 3.982096 13.232710
v 0.394137 3.982096 -4.055340
v 0.574172 3.982096 -4.055340
v 0.394137 3.663288 -4.055340
v 0.574172 3.663288 -4.055340
v 0.394137 3.663288 -4.229460
v 0.574172 3.663288 -4.229460
v 0.394137 4.074612 -4.229460
v 0.574172 4.074612 -4.229460
v 0.394137 4.074612 -13.146888
v 0.574172 4.074612 -13.146888
v 0.394137 3.663288 -13.146888
v 0.574172 3.663288 -13.146888
v -4.973097 3.021212 17.735605
v -4.793099 3.021212 17.735605
v -4.973097 3.334759 17.735605
v -4.793099 3.334759 17.735605
v -4.973097 3.334759 -13.105206
v -4.793099 3.334759 -13.105206
v -4.973097 3.021212 -13.105206
v -4.793099 3.021212 -13.105206
v -4.078564 3.177278 17.735605
v -3.898507 3.177278 17.735605
v -4.078564 3.489901 17.735605
v -3.898507 3.489901 17.735605
v -4.078564 3.489901 -13.105206
v -3.898507 3.489901 -13.105206
v -4.078564 3.177278 -13.105206
v -3.898507 3.177278 -13.105206
v 4.866794 2.865176 17.693924
v 5.046851 2.865176 17.693924
v 4.866794 3.196987 17.693924
v 5.046851 3.196987 17.693924
v 4.866794 3.196987 -8.599766
v 5.046851 3.196987 -8.599766
v 4.866794 2.865176 -8.599766
v 5.046851 2.865176 -8.599766
v -3.184031 3.347218 17.735605
v -3.004004 3.347218 17.735605
v -3.184031 3.652305 17.735605
v -3.004004 3.652305 17.735605
v -3.184031 3.652305 -13.105206
v -3.004004 3.652305 -13.105206
v -3.184031 3.347218 -13.105206
v -3.004004 3.347218 -13.105206
v -5.867630 2.537034 -4.259964
v -5.687633 2.537034 -4.259964
v -5.867630 3.268401 -4.259964
v -5.687633 3.268401 -4.259964
v -5.867630 3.314396 -13.105206
v -5.687633 3.314396 -13.105206
v -5.867630 2.537034 -13.105206
v -5.687633 2.537034 -13.105206
v -0.500418 3.790516 17.735605
v -0.320376 3.790516 17.735605
v -0.500418 4.128136 17.735605
v -0.320376 4.128136 17.735605
v -0.500418 4.128136 -13.105206
v -0.320376 4.128136 -13.105206
v -0.500418 3.790516 -13.105206
v -0.320376 3.790516 -13.105206
v -6.762163 2.706141 17.735605
v -6.582166 2.706141 17.735605
v -6.762163 3.075646 17.735605
v -6.582166 3.075646 17.735605
v -6.762163 3.075646 -13.105206
v -6.582166 3.075646 -13.105206
v -6.762163 2.706141 -13.105206
v -6.582166 2.706141 -13.105206
v 2.183204 3.351216 17.693924
v 2.363245 3.351216 17.693924
v 2.183204 3.670066 17.693924
v 2.363245 3.670066 17.693924
v 2.183204 3.670066 -8.599766
v 2.363245 3.670066 -8.599766
v 2.183204 3.351216 -8.599766
v 2.363245 3.351216 -8.599766
v -1.394966 3.661319 17.735605
v -1.214909 3.661319 17.735605
v -1.394966 3.980498 17.735605
v -1.214909 3.980498 17.735605
v -1.394966 3.980498 -13.105206
v -1.214909 3.980498 -13.105206
v -1.394966 3.661319 -13.105206
v -1.214909 3.661319 -13.105206
v -2.289499 3.504284 17.735605
v -2.109472 3.504284 17.735605
v -2.289499 3.815379 17.735605
v -2.109472 3.815379 17.735605
v -2.289499 3.815379 -13.105206
v -2.109472 3.815379 -13.105206
v -2.289499 3.504284 -13.105206
v -2.109472 3.504284 -13.105206
vt 0.625715 0.007812
vt 0.625715 0.137543
vt 0.616923 0.137543
vt 0.616923 0.007812
vt 0.611948 0.007812
vt 0.611948 0.137543
vt 0.603156 0.137543
vt 0.603156 0.007812
vt 0.425090 0.808934
vt 0.419604 0.808934
vt 0.419604 0.007812
vt 0.425090 0.007812
vt 0.434534 0.007812
vt 0.434534 0.808934
vt 0.410160 0.808934
vt 0.410160 0.007812
vt 0.322118 0.007812
vt 0.327603 0.007812
vt 0.327603 0.808934
vt 0.322118 0.808934
vt 0.312027 0.808934
vt 0.312027 0.007812
vt 0.337694 0.007812
vt 0.337694 0.808934
vt 0.451535 0.007812
vt 0.457019 0.007812
vt 0.457019 0.670744
vt 0.451535 0.670744
vt 0.442872 0.670744
vt 0.442872 0.007812
vt 0.465683 0.007812
vt 0.465683 0.670744
vt 0.026158 0.947475
vt 0.020345 0.947475
vt 0.020345 0.007812
vt 0.026158 0.007812
vt 0.038690 0.007812
vt 0.038690 0.947475
vt 0.007812 0.947475
vt 0.007812 0.007812
vt 0.354696 0.007812
vt 0.360182 0.007812
vt 0.360182 0.808932
vt 0.354696 0.808932
vt 0.344738 0.808932
vt 0.344738 0.007812
vt 0.370283 0.007812
vt 0.370283 0.808932
vt 0.540905 0.007812
vt 0.546391 0.007812
vt 0.546391 0.534547
vt 0.540905 0.534547
vt 0.531192 0.534547
vt 0.531192 0.007812
vt 0.556104 0.007812
vt 0.556104 0.534547
vt 0.576435 0.007812
vt 0.581921 0.007812
vt 0.581921 0.279510
vt 0.576435 0.279510
vt 0.563903 0.279510
vt 0.563903 0.007812
vt 0.594453 0.007812
vt 0.594453 0.279510
vt 0.158024 0.007812
vt 0.163508 0.007812
vt 0.163508 0.947476
vt 0.158024 0.947476
vt 0.148471 0.947476
vt 0.148471 0.007812
vt 0.173061 0.007812
vt 0.173061 0.947476
vt 0.190707 0.007812
vt 0.196193 0.007812
vt 0.196193 0.947475
vt 0.190707 0.947475
vt 0.181182 0.947475
vt 0.181182 0.007812
vt 0.205718 0.007812
vt 0.205718 0.947475
vt 0.289425 0.007812
vt 0.294911 0.007812
vt 0.294911 0.808933
vt 0.289425 0.808933
vt 0.279316 0.808933
vt 0.279316 0.007812
vt 0.305021 0.007812
vt 0.305021 0.808933
vt 0.255900 0.007812
vt 0.261385 0.007812
vt 0.261385 0.947476
vt 0.255900 0.947476
vt 0.246604 0.947476
vt 0.246604 0.007812
vt 0.270680 0.007812
vt 0.270680 0.947476
vt 0.500784 0.299594
vt 0.495299 0.299594
vt 0.495299 0.277311
vt 0.500784 0.277311
vt 0.495299 0.007812
vt 0.500784 0.007812
vt 0.523764 0.007812
vt 0.523764 0.277311
vt 0.472312 0.277311
vt 0.472312 0.007812
vt 0.093335 0.007812
vt 0.098820 0.007812
vt 0.098820 0.947475
vt 0.093335 0.947475
vt 0.083048 0.947475
vt 0.083048 0.007812
vt 0.109107 0.007812
vt 0.109107 0.947475
vt 0.058324 0.007812
vt 0.063808 0.007812
vt 0.063808 0.947475
vt 0.058324 0.947475
vt 0.047066 0.947475
vt 0.047066 0.007812
vt 0.075066 0.007812
vt 0.075066 0.947475
vt 0.387164 0.007812
vt 0.392649 0.007812
vt 0.392649 0.808933
vt 0.387164 0.808933
vt 0.377449 0.808933
vt 0.377449 0.007812
vt 0.402364 0.007812
vt 0.402364 0.808933
vt 0.125484 0.007812
vt 0.130970 0.007812
vt 0.130970 0.947476
vt 0.125484 0.947476
vt 0.115759 0.947476
vt 0.115759 0.007812
vt 0.140695 0.007812
vt 0.140695 0.947476
vt 0.223372 0.007812
vt 0.228857 0.007812
vt 0.228857 0.947475
vt 0.223372 0.947475
vt 0.213893 0.947475
vt 0.213893 0.007812
vt 0.238335 0.007812
vt 0.238335 0.947475
vn 1.000000 0.000000 0.000000
vn 1.000000 0.000000 0.000000
vn 1.000000 0.000000 0.000000
vn 1.000000 0.000000 0.000000
vn -1.000000 0.000000 0.000000
vn -1.000000 0.000000 0.000000
vn -1.000000 0.000000 0.000000
vn -1.000000 0.000000 0.000000
vn 0.000000 -1.000000 0.000000
vn 0.000000 -1.000000 0.000000
vn 0.000000 -1.000000 0.000000
vn 0.000000 -1.000000 0.000000
vn 0.000000 -1.000000 0.000000
vn 0.000000 -1.000000 0.000000
vn 0.000000 -1.000000 0.000000
vn 0.000000 -1.000000 0.000000
vn 1.000000 0.000000 0.000000
vn 1.000000 0.000000 0.000000
vn 1.000000 0.000000 0.000000
vn 1.000000 0.000000 0.000000
vn -1.000000 0.000000 0.000000
vn -1.000000 0.000000 0.000000
vn -1.000000 0.000000 0.000000
vn -1.000000 0.000000 0.000000
vn 0.000000 -1.000000 0.000000
vn 0.000000 -1.000000 0.000000
vn 0.000000 -1.000000 0.000000
vn 0.000000 -1.000000 0.000000
vn 1.000000 0.000000 0.000000
vn 1.000000 0.000000 0.000000
vn 1.000000 0.000000 0.000000
vn 1.000000 0.000000 0.000000
vn -1.000000 0.000000 0.000000
vn -1.000000 0.000000 0.000000
vn -1.000000 0.000000 0.000000
vn -1.000000 0.000000 0.000000
vn 0.000000 0.000000 -1.000000
vn 0.000000 0.000000 -1.000000
vn 0.000000 0.000000 -1.000000
vn 0.000000 0.000000 -1.000000
vn 0.000000 -1.000000 0.000000
vn 0.000000 -1.000000 0.000000
vn 0.000000 -1.000000 0.000000
vn 0.000000 -1.000000 0.000000
vn 1.000000 0.000000 0.000000
vn 1.000000 0.000000 0.000000
vn 1.000000 0.000000 0.000000
vn 1.000000 0.000000 0.000000
vn -1.000000 0.000000 0.000000
vn -1.000000 0.000000 0.000000
vn -1.000000 0.000000 0.000000
vn -1.000000 0.000000 0.000000
vn 0.000000 -1.000000 0.000000
vn 0.000000 -1.000000 0.000000
vn 0.000000 -1.000000 0.000000
vn 0.000000 -1.000000 0.000000
vn 1.000000 0.000000 0.000697
vn 1.000000 0.000000 0.000697
vn 1.000000 0.000000 0.000697
vn 1.000000 0.000000 0.000697
vn -1.000000 0.000000 0.000000
vn -1.000000 0.000000 0.000000
vn -1.000000 0.000000 0.000000
vn -1.000000 0.000000 0.000000
vn 0.000000 -1.000000 0.000000
vn 0.000000 -1.000000 0.000000
vn 0.000000 -1.000000 0.000000
vn 0.000000 -1.000000 0.000000
vn 1.000000 0.000000 0.000000
vn 1.000000 0.000000 0.000000
vn 1.000000 0.000000 0.000000
vn 1.000000 0.000000 0.000000
vn -1.000000 0.000000 0.000000
vn -1.000000 0.000000 0.000000
vn -1.000000 0.000000 0.000000
vn -1.000000 0.000000 0.000000
vn 0.000000 -1.000000 0.000000
vn 0.000000 -1.000000 0.000000
vn 0.000000 -1.000000 0.000000
vn 0.000000 -1.000000 0.000000
vn 1.000000 0.000000 0.000000
vn 1.000000 0.000000 0.000000
vn 1.000000 0.000000 0.000000
vn 1.000000 0.000000 0.000000
vn -1.000000 0.000000 0.000000
vn -1.000000 0.000000 0.000000
vn -1.000000 0.000000 0.000000
vn -1.000000 0.000000 0.000000
vn 0.000000 -1.000000 0.000000
vn 0.000000 -1.000000 0.000000
vn 0.000000 -1.000000 0.000000
vn 0.000000 -1.000000 0.000000
vn 1.000000 0.000000 0.000000
vn 1.000000 0.000000 0.000000
vn 1.000000 0.000000 0.000000
vn 1.000000 0.000000 0.000000
vn -1.000000 0.000000 0.000000
vn -1.000000 0.000000 0.000000
vn -1.000000 0.000000 0.000000
vn -1.000000 0.000000 0.000000
vn 0.000000 -1.000000 0.000000
vn 0.000000 -1.000000 0.000000
vn 0.000000 -1.000000 0.000000
vn 0.000000 -1.000000 0.000000
vn 1.000000 0.000000 0.000000
vn 1.000000 0.000000 0.000000
vn 1.000000 0.000000 0.000000
vn 1.000000 0.000000 0.000000
vn -1.000000 0.000000 0.000000
vn -1.000000 0.000000 0.000000
vn -1.000000 0.000000 0.000000
vn -1.000000 0.000000 0.000000
vn 0.000000 -1.000000 0.000000
vn 0.000000 -1.000000 0.000000
vn 0.000000 -1.000000 0.000000
vn 0.000000 -1.000000 0.000000
vn 1.000000 0.000000 0.000000
vn 1.000000 0.000000 0.000000
vn 1.000000 0.000000 0.000000
vn 1.000000 0.000000 0.000000
vn -1.000000 0.000000 0.000000
vn -1.000000 0.000000 0.000000
vn -1.000000 0.000000 0.000000
vn -1.000000 0.000000 0.000000
vn 0.000000 -1.000000 0.000000
vn 0.000000 -1.000000 0.000000
vn 0.000000 -1.000000 0.000000
vn 0.000000 -1.000000 0.000000
vn 1.000000 0.000000 0.000000
vn 1.000000 0.000000 0.000000
vn 1.000000 0.000000 0.000000
vn 1.000000 0.000000 0.000000
vn -1.000000 0.000000 0.000000
vn -1.000000 0.000000 0.000000
vn -1.000000 0.000000 0.000000
vn -1.000000 0.000000 0.000000
vn 0.000000 -1.000000 0.000000
vn 0.000000 -1.000000 0.000000
vn 0.000000 -1.000000 0.000000
vn 0.000000 -1.000000 0.000000
vn 1.000000 0.000000 0.000000
vn 1.000000 0.000000 0.000000
vn 1.000000 0.000000 0.000000
vn 1.000000 0.000000 0.000000
vn -1.000000 0.000000 0.000000
vn -1.000000 0.000000 0.000000
vn -1.000000 0.000000 0.000000
vn -1.000000 0.000000 0.000000
vn 0.000000 0.000000 1.000000
vn 0.000000 0.000000 1.000000
vn 0.000000 0.000000 1.000000
vn 0.000000 0.000000 1.000000
vn 0.000000 -1.000000 0.000000
vn 0.000000 -1.000000 0.000000
vn 0.000000 -1.000000 0.000000
vn 0.000000 -1.000000 0.000000
vn 1.000000 0.000000 0.000000
vn 1.000000 0.000000 0.000000
vn 1.000000 0.000000 0.000000
vn 1.000000 0.000000 0.000000
vn -1.000000 0.000000 0.000000
vn -1.000000 0.000000 0.000000
vn -1.000000 0.000000 0.000000
vn -1.000000 0.000000 0.000000
vn 0.000000 -1.000000 0.000000
vn 0.000000 -1.000000 0.000000
vn 0.000000 -1.000000 0.000000
vn 0.000000 -1.000000 0.000000
vn 1.000000 0.000000 0.000000
vn 1.000000 0.000000 0.000000
vn 1.000000 0.000000 0.000000
vn 1.000000 0.000000 0.000000
vn -1.000000 0.000000 0.000000
vn -1.000000 0.000000 0.000000
vn -1.000000 0.000000 0.000000
vn -1.000000 0.000000 0.000000
vn 0.000000 -1.000000 0.000000
vn 0.000000 -1.000000 0.000000
vn 0.000000 -1.000000 0.000000
vn 0.000000 -1.000000 0.000000
vn 1.000000 0.000000 0.000000
vn 1.000000 0.000000 0.000000
vn 1.000000 0.000000 0.000000
vn 1.000000 0.000000 0.000000
vn -1.000000 0.000000 0.000000
vn -1.000000 0.000000 0.000000
vn -1.000000 0.000000 0.000000
vn -1.000000 0.000000 0.000000
vn 0.000000 -1.000000 0.000000
vn 0.000000 -1.000000 0.000000
vn 0.000000 -1.000000 0.000000
vn 0.000000 -1.000000 0.000000
vn 1.000000 0.000000 0.000000
vn 1.000000 0.000000 0.000000
vn 1.000000 0.000000 0.000000
vn 1.000000 0.000000 0.000000
vn -1.000000 0.000000 0.000000
vn -1.000000 0.000000 0.000000
vn -1.000000 0.000000 0.000000
vn -1.000000 0.000000 0.000000
vn 0.000000 -1.000000 0.000000
vn 0.000000 -1.000000 0.000000
vn 0.000000 -1.000000 0.000000
vn 0.000000 -1.000000 0.000000
vn 1.000000 0.000000 0.000000
vn 1.000000 0.000000 0.000000
vn 1.000000 0.000000 0.000000
vn 1.000000 0.000000 0.000000
vn -1.000000 0.000000 0.000000
vn -1.000000 0.000000 0.000000
vn -1.000000 0.000000 0.000000
vn -1.000000 0.000000 0.000000
vn 0.000000 -1.000000 0.000000
vn 0.000000 -1.000000 0.000000
vn 0.000000 -1.000000 0.000000
vn 0.000000 -1.000000 0.000000
vn 1.000000 0.000000 0.000000
vn 1.000000 0.000000 0.000000
vn 1.000000 0.000000 0.000000
vn 1.000000 0.000000 0.000000
vn -1.000000 0.000000 0.000000
vn -1.000000 0.000000 0.000000
vn -1.000000 0.000000 0.000000
vn -1.000000 0.000000 0.000000
s off
g Beams
usemtl blinn1SG
f 4/1/1 3/2/2 1/3/3 2/4/4
f 8/5/5 7/6/6 5/7/7 6/8/8
f 2/4/9 1/3/10 7/6/11 8/5/12
f 10/9/13 9/10/14 15/11/15 16/12/16
f 14/13/17 12/14/18 10/9/19 16/12/20
f 11/15/21 13/16/22 15/11/23 9/10/24
f 18/17/25 17/18/26 23/19/27 24/20/28
f 22/21/29 20/22/30 18/17/31 24/20/32
f 19/23/33 21/24/34 23/19/35 17/18/36
f 32//37 31//38 29//39 30//40
f 26/25/41 25/26/42 31/27/43 32/28/44
f 30/29/45 28/30/46 26/25/47 32/28/48
f 27/31/49 29/32/50 31/27/51 25/26/52
f 34/33/53 33/34/54 39/35/55 40/36/56
f 38/37/57 36/38/58 34/33/59 40/36/60
f 35/39/61 37/40/62 39/35/63 33/34/64
f 42/41/65 41/42/66 47/43/67 48/44/68
f 46/45/69 44/46/70 42/41/71 48/44/72
f 43/47/73 45/48/74 47/43/75 41/42/76
f 50/49/77 49/50/78 55/51/79 56/52/80
f 54/53/81 52/54/82 50/49/83 56/52/84
f 51/55/85 53/56/86 55/51/87 49/50/88
f 58/57/89 57/58/90 63/59/91 64/60/92
f 62/61/93 60/62/94 58/57/95 64/60/96
f 59/63/97 61/64/98 63/59/99 57/58/100
f 66/65/101 65/66/102 71/67/103 72/68/104
f 70/69/105 68/70/106 66/65/107 72/68/108
f 67/71/109 69/72/110 71/67/111 65/66/112
f 74/73/113 73/74/114 79/75/115 80/76/116
f 78/77/117 76/78/118 74/73/119 80/76/120
f 75/79/121 77/80/122 79/75/123 73/74/124
f 82/81/125 81/82/126 87/83/127 88/84/128
f 86/85/129 84/86/130 82/81/131 88/84/132
f 83/87/133 85/88/134 87/83/135 81/82/136
f 90/89/137 89/90/138 95/91/139 96/92/140
f 94/93/141 92/94/142 90/89/143 96/92/144
f 91/95/145 93/96/146 95/91/147 89/90/148
f 100/97/149 99/98/150 97/99/151 98/100/152
f 98/100/153 97/99/154 103/101/155 104/102/156
f 102/103/157 100/104/158 98/100/159 104/102/160
f 99/105/161 101/106/162 103/101/163 97/99/164
f 106/107/165 105/108/166 111/109/167 112/110/168
f 110/111/169 108/112/170 106/107/171 112/110/172
f 107/113/173 109/114/174 111/109/175 105/108/176
f 114/115/177 113/116/178 119/117/179 120/118/180
f 118/119/181 116/120/182 114/115/183 120/118/184
f 115/121/185 117/122/186 119/117/187 113/116/188
f 122/123/189 121/124/190 127/125/191 128/126/192
f 126/127/193 124/128/194 122/123/195 128/126/196
f 123/129/197 125/130/198 127/125/199 121/124/200
f 130/131/201 129/132/202 135/133/203 136/134/204
f 134/135/205 132/136/206 130/131/207 136/134/208
f 131/137/209 133/138/210 135/133/211 129/132/212
f 138/139/213 137/140/214 143/141/215 144/142/216
f 142/143/217 140/144/218 138/139/219 144/142/220
f 139/145/221 141/146/222 143/141/223 137/140/224
