# This file uses centimeters as units for non-parametric coordinates.

mtllib InternalWindows.mtl
g default
v 1.001626 2.388675 0.094845
v 1.001626 2.388675 1.764950
v 1.001626 3.687760 0.094845
v 1.001626 3.687760 1.764950
v 1.001626 2.388675 1.834822
v 1.001626 2.388675 3.504929
v 1.001626 3.687760 1.834822
v 1.001626 3.687760 3.504929
v 1.001626 2.388675 3.525446
v 1.001626 2.388675 5.195553
v 1.001626 3.687760 3.525446
v 1.001626 3.687760 5.195553
v 1.001626 2.388675 5.257530
v 1.001626 2.388675 6.927637
v 1.001626 3.687760 5.257530
v 1.001626 3.687760 6.927637
v 1.001626 2.388675 6.915491
v 1.001626 2.388675 7.817476
v 1.001626 3.687760 6.915491
v 1.001626 3.687760 7.817476
v 1.001626 2.388675 7.822422
v 1.001626 2.388675 8.677041
v 1.001626 3.687760 7.822422
v 1.001626 3.687760 8.677041
v 1.001626 0.867896 7.822422
v 1.001626 0.867896 8.677041
v 1.001626 2.338930 7.822422
v 1.001626 2.338928 8.677041
v 1.001626 0.867896 -5.285730
v 1.001626 0.867896 -3.615623
v 1.001626 2.338928 -5.285730
v 1.001626 2.338928 -3.615623
v -1.731302 0.867896 -3.344901
v -1.731302 0.867896 -4.199520
v -1.731302 2.330087 -3.344901
v -1.731302 2.330087 -4.199520
v 1.001626 0.867896 0.094845
v 1.001626 0.867896 1.764950
v 1.001626 2.338928 0.094845
v 1.001626 2.338928 1.764950
v -1.731302 0.867896 13.173555
v -1.731302 0.867896 11.503450
v -1.731302 2.338928 13.173555
v -1.731302 2.338928 11.503450
v -1.731302 0.867896 0.952075
v -1.731302 0.867896 -0.718032
v -1.731302 2.338930 0.952075
v -1.731302 2.338930 -0.718032
v 1.001626 0.867896 5.257530
v 1.001626 0.867896 6.927637
v 1.001626 2.338928 5.257530
v 1.001626 2.338928 6.927637
v -1.731302 2.386846 0.952075
v -1.731302 2.388675 -0.718032
v -1.731302 3.687760 0.952075
v -1.731302 3.687760 -0.718032
v 1.001626 0.867896 -6.570808
v 1.001626 0.867896 -5.306247
v 1.001626 2.338930 -6.570808
v 1.001626 2.338928 -5.306247
v -1.731302 2.388675 4.382677
v -1.731302 2.388675 2.712570
v -1.731302 3.687760 4.382677
v -1.731302 3.687760 2.712570
v -1.731302 2.388675 6.355258
v -1.731302 2.388675 5.453914
v -1.731302 3.687760 6.355258
v -1.731302 3.687760 5.453914
v 1.001626 0.867896 -3.553646
v 1.001626 0.867896 -1.883539
v 1.001626 2.338928 -3.553646
v 1.001626 2.338928 -1.883539
v -1.731302 0.867896 9.742954
v -1.731302 0.867896 8.072847
v -1.731302 2.338928 9.742954
v -1.731302 2.330088 8.072847
v 1.001626 2.388675 -3.553646
v 1.001626 2.388675 -1.883539
v 1.001626 3.687760 -3.553646
v 1.001626 3.687760 -1.883539
v 1.001626 2.388675 -6.570808
v 1.001626 2.388675 -5.306247
v 1.001626 3.687760 -6.570808
v 1.001626 3.687760 -5.306247
v 1.001626 2.388675 -5.285730
v 1.001626 2.388675 -3.615623
v 1.001626 3.687760 -5.285730
v 1.001626 3.687760 -3.615623
v 1.001626 2.388675 -1.869225
v 1.001626 2.388675 -1.006931
v 1.001626 3.687760 -1.869225
v 1.001626 3.687760 -1.006931
v 1.001626 2.388675 -0.988754
v 1.001626 2.388675 -0.134135
v 1.001626 3.687760 -0.988754
v 1.001626 3.687760 -0.134135
v -1.731302 2.388675 2.642700
v -1.731302 2.386846 0.972593
v -1.731302 3.687760 2.642700
v -1.731302 3.687760 0.972593
v -1.731302 2.386845 -2.426738
v -1.731302 2.388675 -3.328414
v -1.731302 3.687760 -2.426738
v -1.731302 3.687760 -3.328414
v -1.731302 2.388675 -0.780009
v -1.731302 2.386846 -2.450116
v -1.731302 3.687760 -0.780009
v -1.731302 3.687760 -2.450116
v 1.001626 0.867896 -0.988754
v 1.001626 0.867896 -0.134135
v 1.001626 2.338928 -0.988754
v 1.001626 2.338928 -0.134135
v 1.001626 0.867896 1.834822
v 1.001626 0.867896 3.504929
v 1.001626 2.338928 1.834822
v 1.001626 2.338928 3.504929
v -1.731302 0.867896 2.642700
v -1.731302 0.867896 0.972593
v -1.731302 2.330088 2.642700
v -1.731302 2.338930 0.972593
v -1.731302 2.388675 9.742954
v -1.731302 2.388675 8.072847
v -1.731302 3.687760 9.742954
v -1.731302 3.687760 8.072847
v -1.731302 2.388675 8.010870
v -1.731302 2.388675 6.340763
v -1.731302 3.687760 8.010870
v -1.731302 3.687760 6.340763
v -1.731302 0.867896 5.445979
v -1.731302 0.867896 4.591359
v -1.731302 2.330088 5.445979
v -1.731302 2.330088 4.591359
v -1.731302 2.388675 -3.344901
v -1.731302 2.386846 -4.199520
v -1.731302 3.687760 -3.344901
v -1.731302 3.687760 -4.199520
v -1.731302 0.867896 -0.780009
v -1.731302 0.867896 -2.450116
v -1.731302 2.338930 -0.780009
v -1.731302 2.330088 -2.450116
v -1.731302 2.388675 5.445979
v -1.731302 2.388675 4.591359
v -1.731302 3.687760 5.445979
v -1.731302 3.687760 4.591359
v -1.731302 0.867896 11.433578
v -1.731302 0.867896 9.763472
v -1.731302 2.338928 11.433578
v -1.731302 2.338928 9.763472
v -1.731302 0.867896 13.173555
v -1.731302 0.867896 11.503450
v -1.731302 2.338928 13.173555
v -1.731302 2.338928 11.503450
v -1.731302 2.388675 13.173555
v -1.731302 2.388675 11.503450
v -1.731302 3.687760 13.173555
v -1.731302 3.687760 11.503450
v -1.731302 0.867896 8.010870
v -1.731302 0.867896 6.340763
v -1.731302 2.330088 8.010870
v -1.731302 2.330088 6.340763
v -1.731302 0.867896 4.382677
v -1.731302 0.867896 2.712570
v -1.731302 2.330088 4.382677
v -1.731302 2.330088 2.712570
v -1.731302 2.388675 11.433578
v -1.731302 2.388675 9.763472
v -1.731302 3.687760 11.433578
v -1.731302 3.687760 9.763472
v 1.001626 0.867896 3.525446
v 1.001626 0.867896 5.195553
v 1.001626 2.338928 3.525446
v 1.001626 2.338928 5.195553
v 0.542887 3.666893 13.453562
v 0.542887 3.666893 15.496235
v 0.542887 2.710988 13.453562
v 0.542887 2.710988 15.496235
v 0.542887 3.666893 15.558516
v 0.542887 3.666893 17.601189
v 0.542887 2.710988 15.558516
v 0.542887 2.710988 17.601189
vt 0.243337 0.170035
vt 0.243340 0.218639
vt 0.202386 0.218641
vt 0.202383 0.170038
vt 0.248161 0.007812
vt 0.248164 0.056416
vt 0.207210 0.056419
vt 0.207207 0.007815
vt 0.288362 0.163192
vt 0.288365 0.211796
vt 0.247411 0.211798
vt 0.247407 0.163195
vt 0.048767 0.224112
vt 0.048770 0.272716
vt 0.007816 0.272719
vt 0.007812 0.224115
vt 0.104238 0.318528
vt 0.078565 0.318528
vt 0.078565 0.273626
vt 0.104238 0.273626
vt 0.351074 0.113301
vt 0.326203 0.113303
vt 0.326200 0.073239
vt 0.351072 0.073238
vt 0.323295 0.222368
vt 0.297256 0.222368
vt 0.297256 0.176827
vt 0.323295 0.176827
vt 0.054366 0.115962
vt 0.054366 0.166847
vt 0.007812 0.166847
vt 0.007812 0.115962
vt 0.045548 0.319408
vt 0.020677 0.319408
vt 0.020677 0.275908
vt 0.045548 0.275908
vt 0.199088 0.170037
vt 0.199088 0.220922
vt 0.152534 0.220922
vt 0.152534 0.170037
vt 0.054366 0.170037
vt 0.054366 0.220922
vt 0.007812 0.220922
vt 0.007812 0.170037
vt 0.104214 0.061887
vt 0.104214 0.112773
vt 0.057661 0.112773
vt 0.057661 0.061887
vt 0.154063 0.007813
vt 0.154063 0.058698
vt 0.107510 0.058698
vt 0.107510 0.007812
vt 0.293186 0.007812
vt 0.293189 0.056416
vt 0.252235 0.056419
vt 0.252231 0.007815
vt 0.326121 0.266780
vt 0.326121 0.305309
vt 0.279568 0.305309
vt 0.279568 0.266780
vt 0.098615 0.221831
vt 0.098618 0.270435
vt 0.057664 0.270438
vt 0.057661 0.221834
vt 0.202318 0.320792
vt 0.176655 0.320792
vt 0.176655 0.275908
vt 0.202318 0.275908
vt 0.054366 0.061887
vt 0.054366 0.112773
vt 0.007812 0.112773
vt 0.007812 0.061887
vt 0.154063 0.115962
vt 0.154063 0.166847
vt 0.107510 0.166847
vt 0.107510 0.115962
vt 0.248161 0.059607
vt 0.248164 0.108210
vt 0.207210 0.108213
vt 0.207207 0.059609
vt 0.275497 0.273623
vt 0.275498 0.310424
vt 0.234544 0.310425
vt 0.234543 0.273623
vt 0.293186 0.059606
vt 0.293189 0.108210
vt 0.252235 0.108213
vt 0.252231 0.059609
vt 0.231272 0.320807
vt 0.205599 0.320807
vt 0.205599 0.275906
vt 0.231272 0.275906
vt 0.351074 0.156555
vt 0.326203 0.156557
vt 0.326200 0.116493
vt 0.351072 0.116492
vt 0.148464 0.221831
vt 0.148467 0.270435
vt 0.107513 0.270438
vt 0.107510 0.221834
vt 0.075289 0.320799
vt 0.049621 0.320799
vt 0.049621 0.275906
vt 0.075289 0.275906
vt 0.293186 0.214986
vt 0.293189 0.263589
vt 0.252235 0.263592
vt 0.252231 0.214988
vt 0.287918 0.156944
vt 0.261880 0.156944
vt 0.261880 0.111402
vt 0.287918 0.111402
vt 0.104214 0.115962
vt 0.104214 0.166847
vt 0.057661 0.166847
vt 0.057661 0.115962
vt 0.203912 0.115962
vt 0.203912 0.166847
vt 0.157358 0.166847
vt 0.157358 0.115962
vt 0.248161 0.221829
vt 0.248164 0.270432
vt 0.207210 0.270435
vt 0.207207 0.221831
vt 0.203137 0.224112
vt 0.203140 0.272716
vt 0.162186 0.272719
vt 0.162182 0.224115
vt 0.157669 0.319168
vt 0.131630 0.319168
vt 0.131630 0.273626
vt 0.157669 0.273626
vt 0.347858 0.348562
vt 0.322987 0.348563
vt 0.322984 0.308499
vt 0.347856 0.308498
vt 0.102127 0.170037
vt 0.102127 0.218641
vt 0.057661 0.218641
vt 0.057661 0.170037
vt 0.304442 0.348563
vt 0.279570 0.348564
vt 0.279568 0.308501
vt 0.304439 0.308499
vt 0.154063 0.061887
vt 0.154063 0.112773
vt 0.107510 0.112773
vt 0.107510 0.061887
vt 0.203912 0.007812
vt 0.203912 0.058698
vt 0.157358 0.058698
vt 0.157358 0.007812
vt 0.248161 0.111401
vt 0.248164 0.160004
vt 0.207210 0.160007
vt 0.207207 0.111403
vt 0.054366 0.007813
vt 0.054366 0.058698
vt 0.007812 0.058698
vt 0.007812 0.007813
vt 0.104214 0.007813
vt 0.104214 0.058698
vt 0.057661 0.058698
vt 0.057661 0.007813
vt 0.146856 0.170037
vt 0.146859 0.218641
vt 0.105905 0.218644
vt 0.105902 0.170040
vt 0.203912 0.061887
vt 0.203912 0.112772
vt 0.157358 0.112772
vt 0.157358 0.061887
vt 0.292432 0.173637
vt 0.292432 0.111400
vt 0.321557 0.111400
vt 0.321557 0.173637
vt 0.297256 0.070049
vt 0.297256 0.007813
vt 0.326381 0.007813
vt 0.326381 0.070049
vn -1.000000 0.000000 0.000000
vn -1.000000 0.000000 0.000000
vn -1.000000 0.000000 0.000000
vn -1.000000 0.000000 0.000000
vn -1.000000 0.000000 -0.000000
vn -1.000000 0.000000 -0.000000
vn -1.000000 0.000000 -0.000000
vn -1.000000 0.000000 -0.000000
vn -1.000000 0.000000 -0.000000
vn -1.000000 0.000000 -0.000000
vn -1.000000 0.000000 -0.000000
vn -1.000000 0.000000 -0.000000
vn -1.000000 0.000000 -0.000000
vn -1.000000 0.000000 -0.000000
vn -1.000000 0.000000 -0.000000
vn -1.000000 0.000000 -0.000000
vn -1.000000 0.000000 -0.000000
vn -1.000000 0.000000 -0.000000
vn -1.000000 0.000000 -0.000000
vn -1.000000 0.000000 -0.000000
vn -1.000000 0.000000 -0.000000
vn -1.000000 0.000000 -0.000000
vn -1.000000 0.000000 -0.000000
vn -1.000000 0.000000 -0.000000
vn -1.000000 0.000000 -0.000000
vn -1.000000 0.000000 -0.000000
vn -1.000000 0.000000 -0.000000
vn -1.000000 0.000000 -0.000000
vn -1.000000 0.000000 -0.000000
vn -1.000000 0.000000 -0.000000
vn -1.000000 0.000000 -0.000000
vn -1.000000 0.000000 -0.000000
vn 1.000000 0.000000 0.000000
vn 1.000000 0.000000 0.000000
vn 1.000000 0.000000 0.000000
vn 1.000000 0.000000 0.000000
vn -1.000000 0.000000 -0.000000
vn -1.000000 0.000000 -0.000000
vn -1.000000 0.000000 -0.000000
vn -1.000000 0.000000 -0.000000
vn 1.000000 0.000000 0.000000
vn 1.000000 0.000000 0.000000
vn 1.000000 0.000000 0.000000
vn 1.000000 0.000000 0.000000
vn 1.000000 0.000000 0.000000
vn 1.000000 0.000000 0.000000
vn 1.000000 0.000000 0.000000
vn 1.000000 0.000000 0.000000
vn -1.000000 0.000000 -0.000000
vn -1.000000 0.000000 -0.000000
vn -1.000000 0.000000 -0.000000
vn -1.000000 0.000000 -0.000000
vn 1.000000 0.000000 0.000000
vn 1.000000 0.000000 0.000000
vn 1.000000 0.000000 0.000000
vn 1.000000 0.000000 0.000000
vn -1.000000 0.000000 -0.000000
vn -1.000000 0.000000 -0.000000
vn -1.000000 0.000000 -0.000000
vn -1.000000 0.000000 -0.000000
vn 1.000000 0.000000 0.000000
vn 1.000000 0.000000 0.000000
vn 1.000000 0.000000 0.000000
vn 1.000000 0.000000 0.000000
vn 1.000000 0.000000 0.000000
vn 1.000000 0.000000 0.000000
vn 1.000000 0.000000 0.000000
vn 1.000000 0.000000 0.000000
vn -1.000000 0.000000 -0.000000
vn -1.000000 0.000000 -0.000000
vn -1.000000 0.000000 -0.000000
vn -1.000000 0.000000 -0.000000
vn 1.000000 0.000000 0.000000
vn 1.000000 0.000000 0.000000
vn 1.000000 0.000000 0.000000
vn 1.000000 0.000000 0.000000
vn -1.000000 0.000000 -0.000000
vn -1.000000 0.000000 -0.000000
vn -1.000000 0.000000 -0.000000
vn -1.000000 0.000000 -0.000000
vn -1.000000 0.000000 -0.000000
vn -1.000000 0.000000 -0.000000
vn -1.000000 0.000000 -0.000000
vn -1.000000 0.000000 -0.000000
vn -1.000000 0.000000 -0.000000
vn -1.000000 0.000000 -0.000000
vn -1.000000 0.000000 -0.000000
vn -1.000000 0.000000 -0.000000
vn -1.000000 0.000000 -0.000000
vn -1.000000 0.000000 -0.000000
vn -1.000000 0.000000 -0.000000
vn -1.000000 0.000000 -0.000000
vn -1.000000 0.000000 -0.000000
vn -1.000000 0.000000 -0.000000
vn -1.000000 0.000000 -0.000000
vn -1.000000 0.000000 -0.000000
vn 1.000000 0.000000 0.000000
vn 1.000000 0.000000 0.000000
vn 1.000000 0.000000 0.000000
vn 1.000000 0.000000 0.000000
vn 1.000000 0.000000 0.000000
vn 1.000000 0.000000 0.000000
vn 1.000000 0.000000 0.000000
vn 1.000000 0.000000 0.000000
vn 1.000000 0.000000 0.000000
vn 1.000000 0.000000 0.000000
vn 1.000000 0.000000 0.000000
vn 1.000000 0.000000 0.000000
vn -1.000000 0.000000 -0.000000
vn -1.000000 0.000000 -0.000000
vn -1.000000 0.000000 -0.000000
vn -1.000000 0.000000 -0.000000
vn -1.000000 0.000000 -0.000000
vn -1.000000 0.000000 -0.000000
vn -1.000000 0.000000 -0.000000
vn -1.000000 0.000000 -0.000000
vn 1.000000 0.000000 0.000000
vn 1.000000 0.000000 0.000000
vn 1.000000 0.000000 0.000000
vn 1.000000 0.000000 0.000000
vn 1.000000 0.000000 0.000000
vn 1.000000 0.000000 0.000000
vn 1.000000 0.000000 0.000000
vn 1.000000 0.000000 0.000000
vn 1.000000 0.000000 0.000000
vn 1.000000 0.000000 0.000000
vn 1.000000 0.000000 0.000000
vn 1.000000 0.000000 0.000000
vn 1.000000 0.000000 0.000000
vn 1.000000 0.000000 0.000000
vn 1.000000 0.000000 0.000000
vn 1.000000 0.000000 0.000000
vn 1.000000 0.000000 0.000000
vn 1.000000 0.000000 0.000000
vn 1.000000 0.000000 0.000000
vn 1.000000 0.000000 0.000000
vn 1.000000 0.000000 0.000000
vn 1.000000 0.000000 0.000000
vn 1.000000 0.000000 0.000000
vn 1.000000 0.000000 0.000000
vn 1.000000 0.000000 0.000000
vn 1.000000 0.000000 0.000000
vn 1.000000 0.000000 0.000000
vn 1.000000 0.000000 0.000000
vn 1.000000 0.000000 0.000000
vn 1.000000 0.000000 0.000000
vn 1.000000 0.000000 0.000000
vn 1.000000 0.000000 0.000000
vn 1.000000 0.000000 0.000000
vn 1.000000 0.000000 0.000000
vn 1.000000 0.000000 0.000000
vn 1.000000 0.000000 0.000000
vn 1.000000 0.000000 0.000000
vn 1.000000 0.000000 0.000000
vn 1.000000 0.000000 0.000000
vn 1.000000 0.000000 0.000000
vn 1.000000 0.000000 0.000000
vn 1.000000 0.000000 0.000000
vn 1.000000 0.000000 0.000000
vn 1.000000 0.000000 0.000000
vn 1.000000 0.000000 0.000000
vn 1.000000 0.000000 0.000000
vn 1.000000 0.000000 0.000000
vn 1.000000 0.000000 0.000000
vn 1.000000 0.000000 0.000000
vn 1.000000 0.000000 0.000000
vn 1.000000 0.000000 0.000000
vn 1.000000 0.000000 0.000000
vn -1.000000 0.000000 -0.000000
vn -1.000000 0.000000 -0.000000
vn -1.000000 0.000000 -0.000000
vn -1.000000 0.000000 -0.000000
vn 1.000000 0.000000 0.000000
vn 1.000000 0.000000 0.000000
vn 1.000000 0.000000 0.000000
vn 1.000000 0.000000 0.000000
vn 1.000000 0.000000 0.000000
vn 1.000000 0.000000 0.000000
vn 1.000000 0.000000 0.000000
vn 1.000000 0.000000 0.000000
s off
g InternalWindows
usemtl blinn3SG
f 4/1/1 3/2/2 1/3/3 2/4/4
f 8/5/5 7/6/6 5/7/7 6/8/8
f 12/9/9 11/10/10 9/11/11 10/12/12
f 16/13/13 15/14/14 13/15/15 14/16/16
f 20/17/17 19/18/18 17/19/19 18/20/20
f 24/21/21 23/22/22 21/23/23 22/24/24
f 28/25/25 27/26/26 25/27/27 26/28/28
f 32/29/29 31/30/30 29/31/31 30/32/32
f 36/33/33 35/34/34 33/35/35 34/36/36
f 40/37/37 39/38/38 37/39/39 38/40/40
f 44/41/41 43/42/42 41/43/43 42/44/44
f 48/45/45 47/46/46 45/47/47 46/48/48
f 52/49/49 51/50/50 49/51/51 50/52/52
f 56/53/53 55/54/54 53/55/55 54/56/56
f 60/57/57 59/58/58 57/59/59 58/60/60
f 64/61/61 63/62/62 61/63/63 62/64/64
f 68/65/65 67/66/66 65/67/67 66/68/68
f 72/69/69 71/70/70 69/71/71 70/72/72
f 76/73/73 75/74/74 73/75/75 74/76/76
f 80/77/77 79/78/78 77/79/79 78/80/80
f 84/81/81 83/82/82 81/83/83 82/84/84
f 88/85/85 87/86/86 85/87/87 86/88/88
f 92/89/89 91/90/90 89/91/91 90/92/92
f 96/93/93 95/94/94 93/95/95 94/96/96
f 100/97/97 99/98/98 97/99/99 98/100/100
f 104/101/101 103/102/102 101/103/103 102/104/104
f 108/105/105 107/106/106 105/107/107 106/108/108
f 112/109/109 111/110/110 109/111/111 110/112/112
f 116/113/113 115/114/114 113/115/115 114/116/116
f 120/117/117 119/118/118 117/119/119 118/120/120
f 124/121/121 123/122/122 121/123/123 122/124/124
f 128/125/125 127/126/126 125/127/127 126/128/128
f 132/129/129 131/130/130 129/131/131 130/132/132
f 136/133/133 135/134/134 133/135/135 134/136/136
f 140/137/137 139/138/138 137/139/139 138/140/140
f 144/141/141 143/142/142 141/143/143 142/144/144
f 148/145/145 147/146/146 145/147/147 146/148/148
f 152/149/149 151/150/150 149/151/151 150/152/152
f 156/153/153 155/154/154 153/155/155 154/156/156
f 160/157/157 159/158/158 157/159/159 158/160/160
f 164/161/161 163/162/162 161/163/163 162/164/164
f 168/165/165 167/166/166 165/167/167 166/168/168
f 172/169/169 171/170/170 169/171/171 170/172/172
f 176/173/173 175/174/174 173/175/175 174/176/176
f 180/177/177 179/178/178 177/179/179 178/180/180
