# This file uses centimeters as units for non-parametric coordinates.

mtllib Arrow4.mtl
g default
v -0.013949 -0.013949 0.022530
v -0.013949 -0.013949 0.487435
v -0.013949 0.013949 0.022530
v -0.013949 0.013949 0.487435
v 0.013949 0.013949 0.022530
v 0.013949 0.013949 0.487435
v 0.013949 -0.013949 0.022530
v 0.013949 -0.013949 0.487435
v 0.013902 -0.043117 0.476135
v 0.026444 -0.036727 0.476135
v 0.036397 -0.026774 0.476135
v 0.042787 -0.014233 0.476135
v 0.044989 -0.000330 0.476135
v 0.042787 0.013572 0.476135
v 0.036397 0.026114 0.476135
v 0.026444 0.036067 0.476135
v 0.013902 0.042457 0.476135
v 0.000000 0.044659 0.476135
v -0.013902 0.042457 0.476135
v -0.026444 0.036067 0.476135
v -0.036397 0.026114 0.476135
v -0.042787 0.013572 0.476135
v -0.044989 -0.000330 0.476135
v -0.042787 -0.014233 0.476135
v -0.036397 -0.026774 0.476135
v -0.026444 -0.036727 0.476135
v -0.013902 -0.043117 0.476135
v 0.000000 -0.045319 0.476135
v 0.000000 -0.000330 0.566114
v -0.008535 -0.107916 -0.048829
v -0.008535 -0.041589 0.041052
v -0.008535 0.107916 -0.048829
v -0.008535 0.041589 0.041052
v 0.008535 0.107916 -0.048829
v 0.008535 0.041589 0.041052
v 0.008535 -0.107916 -0.048829
v 0.008535 -0.041589 0.041052
vt 0.060531 0.732587
vt 0.939063 0.725818
vt 0.939469 0.778537
vt 0.060937 0.785306
vt 0.939875 0.831255
vt 0.061343 0.838024
vt 0.940281 0.883974
vt 0.061750 0.890742
vt 0.940688 0.936692
vt 0.062156 0.943461
vt 0.991781 0.725412
vt 0.992188 0.778130
vt 0.007812 0.732993
vt 0.008219 0.785712
vt 0.892525 0.066583
vt 0.896686 0.092855
vt 0.892525 0.119128
vt 0.880449 0.142828
vt 0.861640 0.161637
vt 0.837940 0.173713
vt 0.811668 0.177874
vt 0.785395 0.173713
vt 0.761695 0.161637
vt 0.742886 0.142828
vt 0.730810 0.119128
vt 0.726649 0.092855
vt 0.730810 0.066583
vt 0.742886 0.042883
vt 0.761695 0.024074
vt 0.785395 0.011998
vt 0.811668 0.007837
vt 0.837940 0.011998
vt 0.861640 0.024074
vt 0.880449 0.042883
vt 0.353776 0.174353
vt 0.358886 0.148249
vt 0.542441 0.197732
vt 0.367590 0.123113
vt 0.379717 0.099438
vt 0.395029 0.077688
vt 0.413227 0.058288
vt 0.433955 0.041618
vt 0.456807 0.028004
vt 0.481335 0.017713
vt 0.507060 0.010946
vt 0.533477 0.007836
vt 0.560070 0.008443
vt 0.586318 0.012757
vt 0.611706 0.020692
vt 0.635739 0.032092
vt 0.657945 0.046736
vt 0.677890 0.064336
vt 0.695183 0.084547
vt 0.709486 0.106974
vt 0.720518 0.131178
vt 0.728065 0.156685
vt 0.327601 0.031361
vt 0.352192 0.241019
vt 0.237447 0.348450
vt 0.029860 0.310125
vt 0.231590 0.380174
vt 0.024004 0.341848
vt 0.300409 0.521495
vt 0.202576 0.708550
vt 0.328995 0.536445
vt 0.231162 0.723501
vt 0.374240 0.264568
vt 0.259495 0.371999
vt 0.305553 0.007812
vt 0.007812 0.286576
vn -1.000000 0.000000 0.000000
vn -1.000000 0.000000 0.000000
vn -1.000000 0.000000 0.000000
vn -1.000000 0.000000 0.000000
vn 0.000000 1.000000 0.000000
vn 0.000000 1.000000 0.000000
vn 0.000000 1.000000 0.000000
vn 0.000000 1.000000 0.000000
vn 1.000000 0.000000 0.000000
vn 1.000000 0.000000 0.000000
vn 1.000000 0.000000 0.000000
vn 1.000000 0.000000 0.000000
vn 0.000000 -1.000000 0.000000
vn 0.000000 -1.000000 0.000000
vn 0.000000 -1.000000 0.000000
vn 0.000000 -1.000000 0.000000
vn 0.000000 0.000000 1.000000
vn 0.000000 0.000000 1.000000
vn 0.000000 0.000000 1.000000
vn 0.000000 0.000000 1.000000
vn -0.000000 0.000000 -1.000000
vn -0.000000 0.000000 -1.000000
vn -0.000000 0.000000 -1.000000
vn -0.000000 0.000000 -1.000000
vn 0.000000 0.000000 -1.000000
vn 0.000000 0.000000 -1.000000
vn 0.000000 0.000000 -1.000000
vn 0.000000 0.000000 -1.000000
vn 0.000000 0.000000 -1.000000
vn 0.000000 0.000000 -1.000000
vn 0.000000 0.000000 -1.000000
vn 0.000000 0.000000 -1.000000
vn 0.000000 0.000000 -1.000000
vn 0.000000 0.000000 -1.000000
vn 0.000000 0.000000 -1.000000
vn 0.000000 0.000000 -1.000000
vn 0.000000 0.000000 -1.000000
vn 0.000000 0.000000 -1.000000
vn 0.000000 0.000000 -1.000000
vn 0.000000 0.000000 -1.000000
vn 0.000000 0.000000 -1.000000
vn 0.000000 0.000000 -1.000000
vn 0.000000 0.000000 -1.000000
vn 0.000000 0.000000 -1.000000
vn 0.276392 -0.850651 0.447214
vn 0.525731 -0.723607 0.447214
vn 0.000000 0.000000 1.000000
vn 0.525731 -0.723607 0.447214
vn 0.723607 -0.525731 0.447214
vn 0.000000 0.000000 1.000000
vn 0.723607 -0.525731 0.447214
vn 0.850651 -0.276393 0.447214
vn 0.000000 0.000000 1.000000
vn 0.850651 -0.276393 0.447214
vn 0.894427 0.000000 0.447214
vn 0.000000 0.000000 1.000000
vn 0.894427 0.000000 0.447214
vn 0.850651 0.276393 0.447214
vn 0.000000 0.000000 1.000000
vn 0.850651 0.276393 0.447214
vn 0.723607 0.525731 0.447214
vn 0.000000 0.000000 1.000000
vn 0.723607 0.525731 0.447214
vn 0.525731 0.723607 0.447214
vn 0.000000 0.000000 1.000000
vn 0.525731 0.723607 0.447214
vn 0.276393 0.850651 0.447214
vn 0.000000 0.000000 1.000000
vn 0.276393 0.850651 0.447214
vn 0.000000 0.894427 0.447214
vn 0.000000 0.000000 1.000000
vn 0.000000 0.894427 0.447214
vn -0.276393 0.850651 0.447214
vn 0.000000 0.000000 1.000000
vn -0.276393 0.850651 0.447214
vn -0.525731 0.723607 0.447214
vn 0.000000 0.000000 1.000000
vn -0.525731 0.723607 0.447214
vn -0.723607 0.525731 0.447214
vn 0.000000 0.000000 1.000000
vn -0.723607 0.525731 0.447214
vn -0.850651 0.276393 0.447214
vn 0.000000 0.000000 1.000000
vn -0.850651 0.276393 0.447214
vn -0.894427 0.000000 0.447214
vn 0.000000 0.000000 1.000000
vn -0.894427 0.000000 0.447214
vn -0.850651 -0.276393 0.447214
vn 0.000000 0.000000 1.000000
vn -0.850651 -0.276393 0.447214
vn -0.723607 -0.525731 0.447214
vn 0.000000 0.000000 1.000000
vn -0.723607 -0.525731 0.447214
vn -0.525731 -0.723607 0.447214
vn 0.000000 0.000000 1.000000
vn -0.525731 -0.723607 0.447214
vn -0.276393 -0.850651 0.447214
vn 0.000000 0.000000 1.000000
vn -0.276393 -0.850651 0.447214
vn -0.000001 -0.894427 0.447214
vn 0.000000 0.000000 1.000000
vn -0.000001 -0.894427 0.447214
vn 0.276392 -0.850651 0.447214
vn 0.000000 0.000000 1.000000
vn -1.000000 0.000000 0.000000
vn -1.000000 0.000000 0.000000
vn -1.000000 0.000000 0.000000
vn -1.000000 0.000000 0.000000
vn 0.000000 0.804635 0.593770
vn 0.000000 0.804635 0.593770
vn 0.000000 0.804635 0.593770
vn 0.000000 0.804635 0.593770
vn 1.000000 0.000000 0.000000
vn 1.000000 0.000000 0.000000
vn 1.000000 0.000000 0.000000
vn 1.000000 0.000000 0.000000
vn 0.000000 -0.804635 0.593770
vn 0.000000 -0.804635 0.593770
vn 0.000000 -0.804635 0.593770
vn 0.000000 -0.804635 0.593770
vn 0.000000 0.000000 1.000000
vn 0.000000 0.000000 1.000000
vn 0.000000 0.000000 1.000000
vn 0.000000 0.000000 1.000000
vn -0.000000 0.000000 -1.000000
vn -0.000000 0.000000 -1.000000
vn -0.000000 0.000000 -1.000000
vn -0.000000 0.000000 -1.000000
s off
g pCube4
usemtl Arrows_initialShadingGroup
f 1/1/1 2/2/2 4/3/3 3/4/4
f 3/4/5 4/3/6 6/5/7 5/6/8
f 5/6/9 6/5/10 8/7/11 7/8/12
f 7/8/13 8/7/14 2/9/15 1/10/16
f 2/2/17 8/11/18 6/12/19 4/3/20
f 7/13/21 1/1/22 3/4/23 5/14/24
f 9/15/25 28/16/26 27/17/27 26/18/28 25/19/29 24/20/30 23/21/31 22/22/32 21/23/33 20/24/34 19/25/35 18/26/36 17/27/37 16/28/38 15/29/39 14/30/40 13/31/41 12/32/42 11/33/43 10/34/44
f 9/35/45 10/36/46 29/37/47
f 10/36/48 11/38/49 29/37/50
f 11/38/51 12/39/52 29/37/53
f 12/39/54 13/40/55 29/37/56
f 13/40/57 14/41/58 29/37/59
f 14/41/60 15/42/61 29/37/62
f 15/42/63 16/43/64 29/37/65
f 16/43/66 17/44/67 29/37/68
f 17/44/69 18/45/70 29/37/71
f 18/45/72 19/46/73 29/37/74
f 19/46/75 20/47/76 29/37/77
f 20/47/78 21/48/79 29/37/80
f 21/48/81 22/49/82 29/37/83
f 22/49/84 23/50/85 29/37/86
f 23/50/87 24/51/88 29/37/89
f 24/51/90 25/52/91 29/37/92
f 25/52/93 26/53/94 29/37/95
f 26/53/96 27/54/97 29/37/98
f 27/54/99 28/55/100 29/37/101
f 28/55/102 9/56/103 29/37/104
f 30/57/105 31/58/106 33/59/107 32/60/108
f 32/60/109 33/59/110 35/61/111 34/62/112
f 34/62/113 35/61/114 37/63/115 36/64/116
f 36/64/117 37/63/118 31/65/119 30/66/120
f 31/58/121 37/67/122 35/68/123 33/59/124
f 36/69/125 30/57/126 32/60/127 34/70/128
