# This file uses centimeters as units for non-parametric coordinates.

mtllib Base.mtl
g default
v -1.256757 -0.223304 1.256757
v 1.256757 -0.223304 1.256757
v -1.256757 0.064526 1.256757
v 1.256757 0.064526 1.256757
v -1.256757 0.064526 -1.256757
v 1.256757 0.064526 -1.256757
v -1.256757 -0.223304 -1.256757
v 1.256757 -0.223304 -1.256757
v -1.256757 0.064526 -1.005406
v -1.256757 -0.223304 -1.005406
v 1.256757 -0.223304 -1.005406
v 1.256757 0.064526 -1.005406
v -1.256757 0.064526 1.030541
v -1.256757 -0.223304 1.030541
v 1.256757 -0.223304 1.030541
v 1.256757 0.064526 1.030541
v 1.005406 -0.223304 1.256757
v 1.005406 0.064526 1.256757
v 1.005406 0.064526 1.030541
v 1.005406 0.064526 -1.005406
v 1.005406 0.064526 -1.256757
v 1.005406 -0.223304 -1.256757
v 1.005406 -0.223304 -1.005406
v 1.005406 -0.223304 1.030541
v -1.030541 -0.223304 1.256757
v -1.030541 0.064526 1.256757
v -1.030541 0.064526 1.030541
v -1.030541 0.064526 -1.005406
v -1.030541 0.064526 -1.256757
v -1.030541 -0.223304 -1.256757
v -1.030541 -0.223304 -1.005406
v -1.030541 -0.223304 1.030541
v -1.030541 -0.075832 1.030541
v -1.030541 -0.075832 -1.005406
v 1.005406 -0.075832 1.030541
v 1.005406 -0.075832 -1.005406
vt 0.007812 0.638329
vt 0.007812 0.325348
vt 0.042924 0.638329
vt 0.042924 0.325348
vt 0.363111 0.638329
vt 0.363111 0.325348
vt 0.398196 0.638329
vt 0.398196 0.325348
vt 0.704859 0.638329
vt 0.704859 0.325348
vt 0.007812 0.007812
vt 0.042924 0.007812
vt 0.007812 0.939275
vt 0.042924 0.939275
vt 0.042924 0.908611
vt 0.332576 0.638329
vt 0.007812 0.908611
vt 0.428810 0.638329
vt 0.428810 0.325348
vt 0.007812 0.038471
vt 0.332576 0.325348
vt 0.042924 0.038471
vt 0.042924 0.660230
vt 0.069745 0.638329
vt 0.007812 0.660230
vt 0.677265 0.638329
vt 0.677265 0.325348
vt 0.007812 0.286803
vt 0.069745 0.325348
vt 0.042924 0.286803
vt 0.007812 0.356179
vt 0.704859 0.356179
vt 0.042924 0.356179
vt 0.069745 0.356179
vt 0.332576 0.356179
vt 0.363111 0.356179
vt 0.398196 0.356179
vt 0.428810 0.356179
vt 0.677265 0.356179
vt 0.007812 0.610662
vt 0.704859 0.610662
vt 0.042924 0.610662
vt 0.069745 0.610662
vt 0.332576 0.610662
vt 0.363111 0.610662
vt 0.398196 0.610662
vt 0.428810 0.610662
vt 0.677265 0.610662
vt 0.320942 0.600261
vt 0.080525 0.600261
vt 0.080525 0.363690
vt 0.320942 0.363690
vn 0.000000 0.000000 1.000000
vn 0.000000 0.000000 1.000000
vn 0.000000 0.000000 1.000000
vn 0.000000 0.000000 1.000000
vn 0.000000 1.000000 0.000000
vn 0.000000 1.000000 0.000000
vn 0.000000 1.000000 0.000000
vn 0.000000 1.000000 0.000000
vn 0.000000 0.000000 -1.000000
vn 0.000000 0.000000 -1.000000
vn 0.000000 0.000000 -1.000000
vn 0.000000 0.000000 -1.000000
vn 0.000000 -1.000000 0.000000
vn 0.000000 -1.000000 0.000000
vn 0.000000 -1.000000 0.000000
vn 0.000000 -1.000000 0.000000
vn 1.000000 0.000000 0.000000
vn 1.000000 0.000000 0.000000
vn 1.000000 0.000000 0.000000
vn 1.000000 0.000000 0.000000
vn -1.000000 0.000000 0.000000
vn -1.000000 0.000000 0.000000
vn -1.000000 0.000000 0.000000
vn -1.000000 0.000000 0.000000
vn -1.000000 0.000000 0.000000
vn -1.000000 0.000000 0.000000
vn -1.000000 0.000000 0.000000
vn -1.000000 0.000000 0.000000
vn 0.000000 -1.000000 0.000000
vn 0.000000 -1.000000 0.000000
vn 0.000000 -1.000000 0.000000
vn 0.000000 -1.000000 0.000000
vn 1.000000 0.000000 0.000000
vn 1.000000 0.000000 0.000000
vn 1.000000 0.000000 0.000000
vn 1.000000 0.000000 0.000000
vn 0.000000 1.000000 0.000000
vn 0.000000 1.000000 0.000000
vn 0.000000 1.000000 0.000000
vn 0.000000 1.000000 0.000000
vn 0.000000 0.000000 1.000000
vn 0.000000 0.000000 1.000000
vn 0.000000 0.000000 1.000000
vn 0.000000 0.000000 1.000000
vn 0.000000 1.000000 0.000000
vn 0.000000 1.000000 0.000000
vn 0.000000 1.000000 0.000000
vn 0.000000 1.000000 0.000000
vn 0.000000 1.000000 0.000000
vn 0.000000 1.000000 0.000000
vn 0.000000 1.000000 0.000000
vn 0.000000 1.000000 0.000000
vn 0.000000 0.000000 -1.000000
vn 0.000000 0.000000 -1.000000
vn 0.000000 0.000000 -1.000000
vn 0.000000 0.000000 -1.000000
vn 0.000000 -1.000000 0.000000
vn 0.000000 -1.000000 0.000000
vn 0.000000 -1.000000 0.000000
vn 0.000000 -1.000000 0.000000
vn 0.000000 -1.000000 0.000000
vn 0.000000 -1.000000 0.000000
vn 0.000000 -1.000000 0.000000
vn 0.000000 -1.000000 0.000000
vn 0.000000 1.000000 0.000000
vn 0.000000 1.000000 0.000000
vn 0.000000 1.000000 0.000000
vn 0.000000 1.000000 0.000000
vn 1.000000 0.000000 0.000000
vn 1.000000 0.000000 0.000000
vn 1.000000 0.000000 0.000000
vn 1.000000 0.000000 0.000000
vn 0.000000 0.000000 -1.000000
vn 0.000000 0.000000 -1.000000
vn 0.000000 0.000000 -1.000000
vn 0.000000 0.000000 -1.000000
vn -1.000000 0.000000 0.000000
vn -1.000000 0.000000 0.000000
vn -1.000000 0.000000 0.000000
vn -1.000000 0.000000 0.000000
vn 0.000000 0.000000 1.000000
vn 0.000000 0.000000 1.000000
vn 0.000000 0.000000 1.000000
vn 0.000000 0.000000 1.000000
s 1
g Base Puzzle
usemtl initialShadingGroup
f 1/1/1 25/40/2 26/42/3 3/3/4
s 2
f 3/3/5 26/42/6 27/43/7 13/24/8
s 3
f 5/5/9 29/45/10 30/46/11 7/7/12
s 4
f 14/26/13 32/48/14 25/41/15 1/9/16
s 5
f 2/2/17 15/28/18 16/30/19 4/4/20
s 6
f 13/23/21 14/25/22 1/1/23 3/3/24
f 7/13/25 10/17/26 9/15/27 5/14/28
s 4
f 7/7/29 30/46/30 31/47/31 10/18/32
s 5
f 12/22/33 11/20/34 8/11/35 6/12/36
s 2
f 9/16/37 28/44/38 29/45/39 5/5/40
s 6
f 9/15/27 10/17/26 14/25/22 13/23/21
s 4
f 10/18/32 31/47/31 32/48/14 14/26/13
s 5
f 16/30/19 15/28/18 11/20/34 12/22/33
s 2
f 13/24/8 27/43/7 28/44/38 9/16/37
s 1
f 18/33/41 17/31/42 2/2/43 4/4/44
s 2
f 19/34/45 18/33/46 4/4/47 16/29/48
f 20/35/49 19/34/45 16/29/48 12/21/50
f 21/36/51 20/35/49 12/21/50 6/6/52
s 3
f 22/37/53 21/36/54 6/6/55 8/8/56
s 4
f 23/38/57 22/37/58 8/8/59 11/19/60
f 24/39/61 23/38/57 11/19/60 15/27/62
f 17/32/63 24/39/61 15/27/62 2/10/64
s 1
f 26/42/3 25/40/2 17/31/42 18/33/41
s 2
f 27/43/7 26/42/6 18/33/46 19/34/45
s off
f 34/49/65 33/50/66 35/51/67 36/52/68
s 2
f 29/45/39 28/44/38 20/35/49 21/36/51
s 3
f 30/46/11 29/45/10 21/36/54 22/37/53
s 4
f 31/47/31 30/46/30 22/37/58 23/38/57
f 32/48/14 31/47/31 23/38/57 24/39/61
f 25/41/15 32/48/14 24/39/61 17/32/63
s off
f 28/44/69 27/43/70 33/50/71 34/49/72
f 27/43/73 19/34/74 35/51/75 33/50/76
f 19/34/77 20/35/78 36/52/79 35/51/80
f 20/35/81 28/44/82 34/49/83 36/52/84
