# This file uses centimeters as units for non-parametric coordinates.

mtllib Piece03.mtl
g default
v -0.979455 -0.074210 0.979455
v -0.020545 -0.074210 0.979455
v -0.979455 0.074210 0.979455
v -0.020545 0.074210 0.979455
v -0.979455 0.074210 0.020545
v -0.020545 0.074210 0.020545
v -0.979455 -0.074210 0.020545
v -0.020545 -0.074210 0.020545
vt 0.716023 0.222683
vt 0.716023 0.107663
vt 0.733825 0.222683
vt 0.733825 0.107663
vt 0.848845 0.222683
vt 0.848845 0.107663
vt 0.866648 0.222683
vt 0.866648 0.107663
vt 0.981668 0.222683
vt 0.981668 0.107663
vt 0.716023 0.007812
vt 0.733825 0.007812
vt 0.716023 0.352873
vt 0.733825 0.352873
vn 0.000000 0.000000 1.000000
vn 0.000000 0.000000 1.000000
vn 0.000000 0.000000 1.000000
vn 0.000000 0.000000 1.000000
vn 0.000000 1.000000 0.000000
vn 0.000000 1.000000 0.000000
vn 0.000000 1.000000 0.000000
vn 0.000000 1.000000 0.000000
vn 0.000000 0.000000 -1.000000
vn 0.000000 0.000000 -1.000000
vn 0.000000 0.000000 -1.000000
vn 0.000000 0.000000 -1.000000
vn 0.000000 -1.000000 0.000000
vn 0.000000 -1.000000 0.000000
vn 0.000000 -1.000000 0.000000
vn 0.000000 -1.000000 0.000000
vn 1.000000 0.000000 0.000000
vn 1.000000 0.000000 0.000000
vn 1.000000 0.000000 0.000000
vn 1.000000 0.000000 0.000000
vn -1.000000 0.000000 0.000000
vn -1.000000 0.000000 0.000000
vn -1.000000 0.000000 0.000000
vn -1.000000 0.000000 0.000000
s off
g Piece03 Puzzle
usemtl initialShadingGroup
f 1/1/1 2/2/2 4/4/3 3/3/4
f 3/3/5 4/4/6 6/6/7 5/5/8
f 5/5/9 6/6/10 8/8/11 7/7/12
f 7/7/13 8/8/14 2/10/15 1/9/16
f 2/2/17 8/11/18 6/12/19 4/4/20
f 7/13/21 1/1/22 3/3/23 5/14/24
