# This file uses centimeters as units for non-parametric coordinates.

mtllib Valigia.mtl
g default
v -1.113086 0.020982 0.192224
v 1.113086 0.020982 0.192224
v -1.113086 1.245523 0.192224
v 1.113086 1.245523 0.192224
v -1.113086 1.245523 -0.192224
v 1.113086 1.245523 -0.192224
v -1.113086 0.020982 -0.192224
v 1.113086 0.020982 -0.192224
v 0.000000 0.020982 0.192224
v 0.000000 1.245523 0.192224
v 0.000000 1.245523 -0.192224
v 0.000000 0.020982 -0.192224
v 0.445234 0.020982 0.192224
v 0.445234 1.245523 0.192224
v 0.445234 1.245523 -0.192224
v 0.445234 0.020982 -0.192224
v -0.445234 0.020982 0.192224
v -0.445234 1.245523 0.192224
v -0.445234 1.245523 -0.192224
v -0.445234 0.020982 -0.192224
v 0.512020 0.020982 0.192224
v 0.512020 1.245523 0.192224
v 0.512020 1.245523 -0.192224
v 0.512020 0.020982 -0.192224
v -0.512020 0.020982 0.192224
v -0.512020 1.245523 0.192224
v -0.512020 1.245523 -0.192224
v -0.512020 0.020982 -0.192224
v -1.113086 0.020982 -0.038445
v -1.113086 1.245523 -0.038445
v -0.512020 1.245523 -0.038445
v -0.445234 1.245523 -0.038445
v 0.000000 1.245523 -0.038445
v 0.445235 1.245523 -0.038445
v 0.512020 1.245523 -0.038445
v 1.113086 1.245523 -0.038445
v 1.113086 0.020982 -0.038445
v 0.512020 0.020982 -0.038445
v 0.445235 0.020982 -0.038445
v 0.000000 0.020982 -0.038445
v -0.445234 0.020982 -0.038445
v -0.512020 0.020982 -0.038445
v -1.113086 1.245523 0.038445
v -1.113086 0.020982 0.038445
v -0.512020 0.020982 0.038445
v -0.445234 0.020982 0.038445
v 0.000000 0.020982 0.038445
v 0.445235 0.020982 0.038445
v 0.512020 0.020982 0.038445
v 1.113086 0.020982 0.038445
v 1.113086 1.245523 0.038445
v 0.512020 1.245523 0.038445
v 0.445235 1.245523 0.038445
v 0.000000 1.245523 0.038445
v -0.445234 1.245523 0.038445
v -0.512020 1.245523 0.038445
v -0.512020 1.365757 -0.038445
v -0.445234 1.365757 -0.038445
v -0.512020 1.365757 0.038445
v -0.445234 1.365757 0.038445
v 0.445235 1.365757 -0.038445
v 0.512020 1.365757 -0.038445
v 0.445235 1.365757 0.038445
v 0.512020 1.365757 0.038445
v -0.512020 1.400051 -0.038445
v -0.445234 1.400051 -0.038445
v -0.512020 1.400051 0.038445
v -0.445234 1.400051 0.038445
v 0.445235 1.400051 -0.038445
v 0.512020 1.400051 -0.038445
v 0.445235 1.400051 0.038445
v 0.512020 1.400051 0.038445
vt 0.112789 0.557454
vt 0.286122 0.557454
vt 0.286122 0.890845
vt 0.112789 0.890845
vt 0.047547 0.357591
vt 0.070316 0.931558
vt 0.007812 0.992188
vt 0.286122 0.992188
vt 0.286122 0.404825
vt 0.112789 0.404825
vt 0.112789 0.480011
vt 0.286122 0.480011
vt 0.799536 0.557454
vt 0.827895 0.557454
vt 0.827895 0.931558
vt 0.799536 0.890845
vt 0.462653 0.890845
vt 0.462653 0.557454
vt 0.603827 0.557454
vt 0.603827 0.890845
vt 0.030694 0.007812
vt 0.462653 0.931558
vt 0.462653 0.404825
vt 0.462653 0.992188
vt 0.603827 0.992188
vt 0.603827 0.404825
vt 0.462653 0.480011
vt 0.603827 0.480011
vt 0.624253 0.557454
vt 0.624253 0.890845
vt 0.048188 0.007812
vt 0.624253 0.992188
vt 0.624253 0.404825
vt 0.624253 0.480011
vt 0.310382 0.890845
vt 0.310382 0.557454
vt 0.030694 0.357591
vt 0.310382 0.404825
vt 0.310382 0.992188
vt 0.310382 0.480011
vt 0.887115 0.992188
vt 0.799536 0.404825
vt 0.112789 0.454957
vt 0.049420 0.951534
vt 0.286122 0.454957
vt 0.310382 0.454957
vt 0.462653 0.454957
vt 0.603827 0.454957
vt 0.624253 0.454957
vt 0.799536 0.454957
vt 0.847708 0.951534
vt 0.067089 0.007812
vt 0.007812 0.007812
vt 0.462653 0.951534
vt 0.086012 0.357591
vt 0.070175 0.357591
vt 0.047547 0.049033
vt 0.048188 0.039491
vt 0.067089 0.039491
vt 0.067089 0.049033
vt 0.067089 0.325379
vt 0.047547 0.325379
vt 0.047547 0.315851
vt 0.067089 0.315851
vt 0.070175 0.331412
vt 0.086012 0.315851
vt 0.047547 0.331412
vt 0.030694 0.315851
vt 0.007812 0.049033
vt 0.067089 0.033510
vt 0.030694 0.049033
vt 0.048188 0.033510
vt 0.310382 0.931558
vt 0.286122 0.931558
vt 0.624253 0.931558
vt 0.603827 0.931558
vt 0.286122 0.951534
vt 0.603827 0.951534
vt 0.624253 0.951534
vt 0.310382 0.951534
vt 0.799536 0.480011
vt 0.070316 0.557454
vt 0.847708 0.557454
vt 0.049420 0.557454
vt 0.286122 0.007812
vt 0.310382 0.007812
vt 0.624253 0.007812
vt 0.799536 0.007812
vt 0.462653 0.007812
vt 0.603827 0.007812
vt 0.887115 0.557454
vt 0.007812 0.557454
vt 0.112789 0.007812
vt 0.007812 0.315851
vt 0.086012 0.049033
vt 0.086012 0.007812
vt 0.007812 0.357591
vn 0.000000 0.000000 1.000000
vn 0.000000 0.000000 1.000000
vn 0.000000 0.000000 1.000000
vn 0.000000 0.000000 1.000000
vn 0.000000 1.000000 0.000000
vn 0.000000 1.000000 0.000000
vn 0.000000 1.000000 0.000000
vn 0.000000 1.000000 0.000000
vn 0.000000 0.000000 -1.000000
vn 0.000000 0.000000 -1.000000
vn 0.000000 0.000000 -1.000000
vn 0.000000 0.000000 -1.000000
vn 0.000000 -1.000000 -0.000000
vn 0.000000 -1.000000 -0.000000
vn 0.000000 -1.000000 -0.000000
vn 0.000000 -1.000000 -0.000000
vn 1.000000 0.000000 0.000000
vn 1.000000 0.000000 0.000000
vn 1.000000 0.000000 0.000000
vn 1.000000 0.000000 0.000000
vn -1.000000 0.000000 0.000000
vn -1.000000 0.000000 0.000000
vn -1.000000 0.000000 0.000000
vn -1.000000 0.000000 0.000000
vn 0.000000 0.000000 1.000000
vn 0.000000 0.000000 1.000000
vn 0.000000 0.000000 1.000000
vn 0.000000 0.000000 1.000000
vn 0.000000 1.000000 -0.000000
vn 0.000000 1.000000 -0.000000
vn 0.000000 1.000000 -0.000000
vn 0.000000 1.000000 -0.000001
vn 0.000000 0.000000 -1.000000
vn 0.000000 0.000000 -1.000000
vn 0.000000 0.000000 -1.000000
vn 0.000000 0.000000 -1.000000
vn 0.000000 -1.000000 0.000000
vn 0.000000 -1.000000 0.000000
vn 0.000000 -1.000000 -0.000000
vn 0.000000 -1.000000 -0.000000
vn 0.000000 0.000000 1.000000
vn 0.000000 0.000000 1.000000
vn 0.000000 1.000000 0.000000
vn 0.000000 1.000000 0.000000
vn 0.000000 0.000000 -1.000000
vn 0.000000 0.000000 -1.000000
vn 0.000000 -1.000000 -0.000000
vn 0.000000 -1.000000 -0.000000
vn 0.000000 0.000000 1.000000
vn 0.000000 0.000000 1.000000
vn 0.000000 1.000000 0.000000
vn 0.000000 1.000000 0.000000
vn 0.000000 0.000000 -1.000000
vn 0.000000 0.000000 -1.000000
vn 0.000000 -1.000000 0.000000
vn 0.000000 -1.000000 0.000000
vn 0.000000 0.000000 1.000000
vn 0.000000 0.000000 1.000000
vn 0.000000 1.000000 0.000000
vn 0.000000 1.000000 0.000000
vn 0.000000 0.000000 -1.000000
vn 0.000000 0.000000 -1.000000
vn 0.000000 -1.000000 0.000000
vn 0.000000 -1.000000 -0.000000
vn -1.000000 0.000000 0.000000
vn -1.000000 0.000000 0.000000
vn -1.000000 0.000000 0.000000
vn -1.000000 0.000000 0.000000
vn 0.000000 -1.000000 0.000000
vn 0.000000 -1.000000 0.000000
vn 0.000000 -1.000000 0.000000
vn 0.000000 -1.000000 0.000000
vn 0.000000 -1.000000 0.000000
vn 0.000000 -1.000000 0.000000
vn 0.000000 -1.000000 -0.000000
vn 0.000000 -1.000000 -0.000000
vn 0.000000 -1.000000 0.000000
vn 0.000000 -1.000000 -0.000000
vn 0.000000 -1.000000 0.000000
vn 0.000000 -1.000000 0.000000
vn 0.000000 -1.000000 0.000000
vn 0.000000 -1.000000 0.000000
vn 1.000000 0.000000 0.000000
vn 1.000000 0.000000 0.000000
vn 1.000000 0.000000 0.000000
vn 1.000000 0.000000 0.000000
vn 0.000000 1.000000 0.000000
vn 0.000000 1.000000 0.000000
vn 0.000000 1.000000 0.000000
vn 0.000000 1.000000 0.000000
vn 0.000000 1.000000 0.000001
vn 0.000000 1.000000 0.000001
vn 0.000000 1.000000 0.000000
vn 0.000000 1.000000 0.000000
vn 0.000000 1.000000 0.000000
vn 0.000000 1.000000 0.000000
vn 0.000000 1.000000 0.000000
vn 0.000000 1.000000 0.000000
vn 0.000000 1.000000 0.000000
vn 0.000000 1.000000 0.000000
vn 0.000000 1.000000 0.000001
vn 0.000000 1.000000 0.000001
vn 0.000000 1.000000 0.000001
vn 0.000000 1.000000 0.000001
vn 0.000000 1.000000 0.000000
vn 0.000000 1.000000 0.000000
vn 0.000000 1.000000 0.000000
vn 0.000000 1.000000 0.000000
vn 0.000000 0.000000 -1.000000
vn 0.000000 0.000000 -1.000000
vn 0.000000 0.000000 -1.000000
vn 0.000000 0.000000 -1.000000
vn -1.000000 0.000000 0.000002
vn -1.000000 0.000000 0.000002
vn -1.000000 0.000000 0.000002
vn -1.000000 0.000000 0.000002
vn 0.000000 0.000000 1.000000
vn 0.000000 0.000000 1.000000
vn 0.000000 0.000000 1.000000
vn 0.000000 0.000000 1.000000
vn 1.000000 0.000000 0.000000
vn 1.000000 0.000000 0.000000
vn 1.000000 0.000000 0.000000
vn 1.000000 0.000000 0.000000
vn 0.000000 0.000000 -1.000000
vn 0.000000 0.000000 -1.000000
vn 0.000000 0.000000 -1.000000
vn 0.000000 0.000000 -1.000000
vn -1.000000 0.000000 0.000000
vn -1.000000 0.000000 0.000000
vn -1.000000 0.000000 0.000000
vn -1.000000 0.000000 0.000000
vn 0.000000 0.000000 1.000000
vn 0.000000 0.000000 1.000000
vn 0.000000 0.000000 1.000000
vn 0.000000 0.000000 1.000000
vn 1.000000 -0.000000 0.000002
vn 1.000000 -0.000000 0.000002
vn 1.000000 -0.000000 0.000002
vn 1.000000 -0.000000 0.000002
vn 0.000000 0.000000 -1.000000
vn 0.000000 0.000000 -1.000000
vn -1.000000 0.000000 0.000002
vn -1.000000 0.000000 0.000002
vn 0.000000 0.000000 1.000000
vn 0.000000 0.000000 1.000000
vn 0.000000 0.000000 -1.000000
vn 0.000000 0.000000 -1.000000
vn 0.000000 0.000000 1.000000
vn 0.000000 0.000000 1.000000
vn 1.000000 0.000001 0.000002
vn 1.000000 0.000001 0.000002
vn 0.000000 1.000000 0.000000
vn 0.000000 1.000000 0.000000
vn 0.000000 1.000000 0.000000
vn 0.000000 1.000000 0.000000
vn 0.000000 0.000000 1.000000
vn 0.000000 0.000000 1.000000
vn 0.000000 0.000000 1.000000
vn 0.000000 0.000000 1.000000
vn 0.000000 0.000000 -1.000000
vn 0.000000 0.000000 -1.000000
vn 0.000000 0.000000 -1.000000
vn 0.000000 0.000000 -1.000000
vn 0.000000 -1.000000 0.000000
vn 0.000000 -1.000000 0.000000
vn 0.000000 -1.000000 0.000000
vn 0.000000 -1.000000 0.000000
s 1
g pCube1
usemtl initialShadingGroup
f 1/1/1 25/2/2 26/3/3 3/4/4
s 2
f 3/4/5 26/3/6 56/74/7 43/6/8
s 3
f 5/93/9 27/85/10 28/9/11 7/10/12
s 4
f 44/11/13 45/12/14 25/2/15 1/1/16
s 5
f 2/13/17 50/14/18 51/15/19 4/16/20
s 6
f 43/6/21 44/82/22 1/1/23 3/4/24
s 1
f 10/17/25 9/18/26 13/19/27 14/20/28
s 2
f 53/76/29 54/22/30 10/17/31 14/20/32
s 3
f 12/23/33 11/89/34 15/90/35 16/26/36
s 4
f 9/18/37 47/27/38 48/28/39 13/19/40
s 1
f 14/20/28 13/19/27 21/29/41 22/30/42
s 2
f 52/75/43 53/76/29 14/20/32 22/30/44
s 3
f 16/26/36 15/90/35 23/87/45 24/33/46
s 4
f 13/19/40 48/28/39 49/34/47 21/29/48
s 1
f 18/35/49 17/36/50 9/18/26 10/17/25
s 2
f 54/22/30 55/73/51 18/35/52 10/17/31
s 3
f 20/38/53 19/86/54 11/89/34 12/23/33
s 4
f 17/36/55 46/40/56 47/27/38 9/18/37
s 1
f 22/30/42 21/29/41 2/13/57 4/16/58
s 2
f 51/15/59 52/75/43 22/30/44 4/16/60
s 3
f 24/33/46 23/87/45 6/88/61 8/42/62
s 4
f 21/29/48 49/34/47 50/81/63 2/13/64
s 1
f 26/3/3 25/2/2 17/36/50 18/35/49
s 2
f 55/73/51 56/74/7 26/3/6 18/35/52
s 3
f 28/9/11 27/85/10 19/86/54 20/38/53
s 4
f 25/2/15 45/12/14 46/40/56 17/36/55
s 6
f 7/92/65 29/84/66 30/44/67 5/7/68
s 4
f 7/10/69 28/9/70 42/45/71 29/43/72
f 41/46/73 42/45/71 28/9/70 20/38/74
f 40/47/75 41/46/73 20/38/74 12/23/76
f 39/48/77 40/47/75 12/23/76 16/26/78
f 38/49/79 39/48/77 16/26/78 24/33/80
f 37/50/81 38/49/79 24/33/80 8/42/82
s 5
f 36/51/83 37/83/84 8/91/85 6/41/86
s 2
f 23/32/87 35/79/88 36/51/89 6/41/90
f 15/25/91 34/78/92 35/79/88 23/32/87
f 11/24/93 33/54/94 34/78/92 15/25/91
f 19/39/95 32/80/96 33/54/94 11/24/93
f 27/8/97 31/77/98 32/80/96 19/39/95
f 30/44/99 31/77/98 27/8/97 5/7/100
s 6
f 44/82/22 43/6/21 30/44/67 29/84/66
s 4
f 45/12/14 44/11/13 29/43/72 42/45/71
f 46/40/56 45/12/14 42/45/71 41/46/73
f 47/27/38 46/40/56 41/46/73 40/47/75
f 48/28/39 47/27/38 40/47/75 39/48/77
f 49/34/47 48/28/39 39/48/77 38/49/79
f 50/81/63 49/34/47 38/49/79 37/50/81
s 5
f 36/51/83 51/15/19 50/14/18 37/83/84
s 2
f 52/75/43 51/15/59 36/51/89 35/79/88
s off
f 71/57/101 72/58/102 70/59/103 69/60/104
s 2
f 33/54/94 54/22/30 53/76/29 34/78/92
f 55/73/51 54/22/30 33/54/94 32/80/96
s off
f 65/61/105 67/62/106 68/63/107 66/64/108
s 2
f 30/44/99 43/6/8 56/74/7 31/77/98
s 13
f 32/55/109 31/56/110 57/65/111 58/66/112
s 14
f 57/65/113 31/56/114 56/5/115 59/67/116
s 15
f 56/5/117 55/37/118 60/68/119 59/67/120
s off
f 60/68/121 55/37/122 32/97/123 58/94/124
s 16
f 35/52/125 34/96/126 61/95/127 62/70/128
s off
f 61/69/129 34/53/130 53/21/131 63/71/132
s 17
f 53/21/133 52/31/134 64/72/135 63/71/136
s 18
f 64/72/137 52/31/138 35/52/139 62/70/140
s 13
f 58/66/112 57/65/111 65/61/141 66/64/142
s 14
f 65/61/143 57/65/113 59/67/116 67/62/144
s 15
f 59/67/120 60/68/119 68/63/145 67/62/146
s 16
f 62/70/128 61/95/127 69/60/147 70/59/148
s 17
f 63/71/136 64/72/135 72/58/149 71/57/150
s 18
f 70/59/151 72/58/152 64/72/137 62/70/140
s off
f 71/57/153 69/60/154 66/64/155 68/63/156
f 71/57/157 68/63/158 60/68/159 63/71/160
f 69/60/161 61/95/162 58/66/163 66/64/164
f 61/69/165 63/71/166 60/68/167 58/94/168
