# This file uses centimeters as units for non-parametric coordinates.

mtllib Desk_Large_01.mtl
g default
v -6.346711 0.083035 13.077117
v -6.578829 0.083035 13.077117
v -6.346711 0.710659 13.077117
v -6.578829 0.710659 13.077117
v -6.346711 0.770412 13.131334
v -6.578829 0.770412 13.131334
v -6.346711 0.022386 13.131334
v -6.578829 0.022386 13.131334
v -6.346711 0.710659 12.530314
v -6.578829 0.710659 12.530314
v -6.346711 0.770412 12.475720
v -6.578829 0.770412 12.475720
v -6.346711 0.022386 12.475720
v -6.578829 0.022386 12.475720
v -6.346711 0.083035 12.530314
v -6.578829 0.083035 12.530314
v -2.251930 0.083035 13.077204
v -2.484048 0.083035 13.077204
v -2.251930 0.710659 13.077204
v -2.484048 0.710659 13.077204
v -2.251930 0.770412 13.131797
v -2.484048 0.770412 13.131797
v -2.251930 0.022386 13.131797
v -2.484048 0.022386 13.131797
v -2.251930 0.710659 12.530314
v -2.484048 0.710659 12.530314
v -2.251930 0.770412 12.475720
v -2.484048 0.770412 12.475720
v -2.251930 0.022386 12.475720
v -2.484048 0.022386 12.475720
v -2.251930 0.083035 12.530314
v -2.484048 0.083035 12.530314
v -4.491929 0.711139 13.131334
v -4.338973 0.711139 13.131334
v -4.535652 0.770412 13.131334
v -4.295250 0.770412 13.131334
v -4.535652 0.770412 13.077117
v -4.295250 0.770412 13.077117
v -4.491929 0.711139 13.077117
v -4.338973 0.711139 13.077117
v -4.338973 0.082762 13.131334
v -4.295250 0.022386 13.131334
v -4.338973 0.082762 13.077117
v -4.295250 0.022386 13.077117
v -4.535652 0.022386 13.131334
v -4.491929 0.082762 13.131334
v -4.535652 0.022386 13.077117
v -4.491929 0.082762 13.077117
v -6.580457 0.770147 13.131795
v -2.249776 0.770147 13.131795
v -6.579930 0.811932 13.131795
v -2.249776 0.811932 13.131795
v -6.579930 0.811932 12.475757
v -2.249776 0.811932 12.475757
v -6.580457 0.770147 12.475757
v -2.249776 0.770147 12.475757
vt 0.226461 0.115433
vt 0.219660 0.115433
vt 0.219660 0.097044
vt 0.226461 0.097044
vt 0.151261 0.215362
vt 0.151261 0.222162
vt 0.129346 0.222161
vt 0.129346 0.215361
vt 0.131097 0.213773
vt 0.149484 0.213773
vt 0.131097 0.223750
vt 0.149484 0.223750
vt 0.129347 0.196154
vt 0.131097 0.197753
vt 0.131098 0.187754
vt 0.129347 0.189353
vt 0.129348 0.170146
vt 0.131098 0.171734
vt 0.219660 0.081024
vt 0.226461 0.081024
vt 0.149485 0.197754
vt 0.151262 0.196154
vt 0.151262 0.189354
vt 0.149485 0.187755
vt 0.149486 0.171735
vt 0.151263 0.170147
vt 0.226461 0.149841
vt 0.219660 0.149841
vt 0.219660 0.131453
vt 0.226461 0.131453
vt 0.222001 0.044418
vt 0.215200 0.044418
vt 0.215200 0.026030
vt 0.222001 0.026030
vt 0.077672 0.186753
vt 0.077672 0.193554
vt 0.055757 0.193554
vt 0.055757 0.186753
vt 0.057508 0.185154
vt 0.075895 0.185154
vt 0.057508 0.195153
vt 0.075895 0.195153
vt 0.055757 0.167532
vt 0.057508 0.169132
vt 0.057508 0.159132
vt 0.055757 0.160732
vt 0.055757 0.141511
vt 0.057508 0.143110
vt 0.215200 0.010007
vt 0.222001 0.010007
vt 0.075895 0.169132
vt 0.077672 0.167532
vt 0.077672 0.160732
vt 0.075895 0.159132
vt 0.075895 0.143110
vt 0.077672 0.141511
vt 0.222001 0.078829
vt 0.215200 0.078829
vt 0.215200 0.060441
vt 0.222001 0.060441
vt 0.057698 0.219262
vt 0.050655 0.219262
vt 0.051936 0.217526
vt 0.056417 0.217526
vt 0.007812 0.007812
vt 0.007812 0.007812
vt 0.007812 0.007812
vt 0.007812 0.007812
vt 0.056417 0.199117
vt 0.057698 0.197348
vt 0.007812 0.007812
vt 0.007812 0.007812
vt 0.059287 0.219262
vt 0.059287 0.197348
vt 0.248650 0.099143
vt 0.250239 0.099143
vt 0.250238 0.117552
vt 0.248650 0.117552
vt 0.050655 0.197348
vt 0.051936 0.199117
vt 0.007812 0.007812
vt 0.007812 0.007812
vt 0.250238 0.140443
vt 0.248650 0.140443
vt 0.248650 0.122033
vt 0.250238 0.122033
vt 0.049067 0.219262
vt 0.049067 0.197348
vt 0.028257 0.011240
vt 0.028313 0.138100
vt 0.027089 0.138116
vt 0.027032 0.011240
vt 0.047476 0.011231
vt 0.047533 0.138091
vt 0.048701 0.011231
vt 0.048757 0.138106
vt 0.028256 0.010016
vt 0.047476 0.010007
vt 0.047533 0.139316
vt 0.028313 0.139324
vt 0.007869 0.138124
vt 0.007812 0.011249
vn 0.000000 0.000000 -1.000000
vn 0.000000 0.000000 -1.000000
vn 0.000000 0.000000 -1.000000
vn 0.000000 0.000000 -1.000000
vn 0.000000 0.000000 1.000000
vn 0.000000 0.000000 1.000000
vn 0.000000 0.000000 1.000000
vn 0.000000 0.000000 1.000000
vn -1.000000 0.000000 0.000000
vn -1.000000 0.000000 0.000000
vn -1.000000 0.000000 0.000000
vn -1.000000 0.000000 0.000000
vn 1.000000 0.000000 0.000000
vn 1.000000 0.000000 0.000000
vn 1.000000 0.000000 0.000000
vn 1.000000 0.000000 0.000000
vn -1.000000 0.000000 0.000000
vn -1.000000 0.000000 0.000000
vn -1.000000 0.000000 0.000000
vn -1.000000 0.000000 0.000000
vn 1.000000 0.000000 0.000000
vn 1.000000 0.000000 0.000000
vn 1.000000 0.000000 0.000000
vn 1.000000 0.000000 0.000000
vn 0.000000 1.000000 0.000000
vn 0.000000 1.000000 0.000000
vn 0.000000 1.000000 0.000000
vn 0.000000 1.000000 0.000000
vn -1.000000 0.000000 0.000000
vn -1.000000 0.000000 0.000000
vn -1.000000 0.000000 0.000000
vn -1.000000 0.000000 0.000000
vn 1.000000 0.000000 0.000000
vn 1.000000 0.000000 0.000000
vn 1.000000 0.000000 0.000000
vn 1.000000 0.000000 0.000000
vn 0.000000 0.000000 -1.000000
vn 0.000000 0.000000 -1.000000
vn 0.000000 0.000000 -1.000000
vn 0.000000 0.000000 -1.000000
vn 0.000000 0.000000 1.000000
vn 0.000000 0.000000 1.000000
vn 0.000000 0.000000 1.000000
vn 0.000000 0.000000 1.000000
vn -1.000000 0.000000 0.000000
vn -1.000000 0.000000 0.000000
vn -1.000000 0.000000 0.000000
vn -1.000000 0.000000 0.000000
vn 1.000000 0.000000 0.000000
vn 1.000000 0.000000 0.000000
vn 1.000000 0.000000 0.000000
vn 1.000000 0.000000 0.000000
vn 0.000000 -1.000000 0.000000
vn 0.000000 -1.000000 0.000000
vn 0.000000 -1.000000 0.000000
vn 0.000000 -1.000000 0.000000
vn 0.000000 0.000000 -1.000000
vn 0.000000 0.000000 -1.000000
vn 0.000000 0.000000 -1.000000
vn 0.000000 0.000000 -1.000000
vn 0.000000 0.000000 1.000000
vn 0.000000 0.000000 1.000000
vn 0.000000 0.000000 1.000000
vn 0.000000 0.000000 1.000000
vn -1.000000 0.000000 0.000000
vn -1.000000 0.000000 0.000000
vn -1.000000 0.000000 0.000000
vn -1.000000 0.000000 0.000000
vn 1.000000 0.000000 0.000000
vn 1.000000 0.000000 0.000000
vn 1.000000 0.000000 0.000000
vn 1.000000 0.000000 0.000000
vn -1.000000 0.000000 0.000000
vn -1.000000 0.000000 0.000000
vn -1.000000 0.000000 0.000000
vn -1.000000 0.000000 0.000000
vn 1.000000 0.000000 0.000000
vn 1.000000 0.000000 0.000000
vn 1.000000 0.000000 0.000000
vn 1.000000 0.000000 0.000000
vn 0.000000 1.000000 0.000000
vn 0.000000 1.000000 0.000000
vn 0.000000 1.000000 0.000000
vn 0.000000 1.000000 0.000000
vn -1.000000 0.000000 0.000000
vn -1.000000 0.000000 0.000000
vn -1.000000 0.000000 0.000000
vn -1.000000 0.000000 0.000000
vn 1.000000 0.000000 0.000000
vn 1.000000 0.000000 0.000000
vn 1.000000 0.000000 0.000000
vn 1.000000 0.000000 0.000000
vn 0.000000 0.000000 -1.000000
vn 0.000000 0.000000 -1.000000
vn 0.000000 0.000000 -1.000000
vn 0.000000 0.000000 -1.000000
vn 0.000000 0.000000 1.000000
vn 0.000000 0.000000 1.000000
vn 0.000000 0.000000 1.000000
vn 0.000000 0.000000 1.000000
vn -1.000000 0.000000 0.000000
vn -1.000000 0.000000 0.000000
vn -1.000000 0.000000 0.000000
vn -1.000000 0.000000 0.000000
vn 1.000000 0.000000 0.000000
vn 1.000000 0.000000 0.000000
vn 1.000000 0.000000 0.000000
vn 1.000000 0.000000 0.000000
vn 0.000000 -1.000000 0.000000
vn 0.000000 -1.000000 0.000000
vn 0.000000 -1.000000 0.000000
vn 0.000000 -1.000000 0.000000
vn 0.000000 0.000000 1.000000
vn 0.000000 0.000000 1.000000
vn 0.000000 0.000000 1.000000
vn 0.000000 0.000000 1.000000
vn 0.000000 0.000000 -1.000000
vn 0.000000 0.000000 -1.000000
vn 0.000000 0.000000 -1.000000
vn 0.000000 0.000000 -1.000000
vn 0.000000 0.000000 1.000000
vn 0.000000 0.000000 1.000000
vn 0.000000 0.000000 1.000000
vn 0.000000 0.000000 1.000000
vn 0.000000 0.000000 -1.000000
vn 0.000000 0.000000 -1.000000
vn 0.000000 0.000000 -1.000000
vn 0.000000 0.000000 -1.000000
vn 1.000000 0.000000 0.000000
vn 1.000000 0.000000 0.000000
vn 1.000000 0.000000 0.000000
vn 1.000000 0.000000 0.000000
vn -1.000000 0.000000 0.000000
vn -1.000000 0.000000 0.000000
vn -1.000000 0.000000 0.000000
vn -1.000000 0.000000 0.000000
vn 0.000000 0.000000 1.000000
vn 0.000000 0.000000 1.000000
vn 0.000000 0.000000 1.000000
vn 0.000000 0.000000 1.000000
vn 0.000000 0.000000 -1.000000
vn 0.000000 0.000000 -1.000000
vn 0.000000 0.000000 -1.000000
vn 0.000000 0.000000 -1.000000
vn 1.000000 0.000000 0.000000
vn 1.000000 0.000000 0.000000
vn 1.000000 0.000000 0.000000
vn 1.000000 0.000000 0.000000
vn -1.000000 0.000000 0.000000
vn -1.000000 0.000000 0.000000
vn -1.000000 0.000000 0.000000
vn -1.000000 0.000000 0.000000
vn 0.000000 0.000000 1.000000
vn 0.000000 0.000000 1.000000
vn 0.000000 0.000000 1.000000
vn 0.000000 0.000000 1.000000
vn 0.000000 1.000000 0.000000
vn 0.000000 1.000000 0.000000
vn 0.000000 1.000000 0.000000
vn 0.000000 1.000000 0.000000
vn 0.000000 0.000000 -1.000000
vn 0.000000 0.000000 -1.000000
vn 0.000000 0.000000 -1.000000
vn 0.000000 0.000000 -1.000000
vn 0.000000 0.000000 1.000000
vn 0.000000 0.000000 1.000000
vn 0.000000 0.000000 1.000000
vn 0.000000 0.000000 1.000000
vn 0.000000 1.000000 0.000000
vn 0.000000 1.000000 0.000000
vn 0.000000 1.000000 0.000000
vn 0.000000 1.000000 0.000000
vn 0.000000 0.000000 -1.000000
vn 0.000000 0.000000 -1.000000
vn 0.000000 0.000000 -1.000000
vn 0.000000 0.000000 -1.000000
vn 1.000000 0.000000 0.000000
vn 1.000000 0.000000 0.000000
vn 1.000000 0.000000 0.000000
vn 1.000000 0.000000 0.000000
vn -0.999907 0.013672 0.000000
vn -0.999907 0.013672 0.000000
vn -0.999907 0.013672 0.000000
vn -0.999907 0.013672 0.000000
vn -0.000666 -1.000000 0.000000
vn -0.000666 -1.000000 0.000000
vn -0.000666 -1.000000 0.000000
vn -0.000666 -1.000000 0.000000
s off
g Desk_Large_01
usemtl blinn7SG
f 4/1/1 3/2/2 1/3/3 2/4/4
f 8/5/5 7/6/6 5/7/7 6/8/8
f 6/8/9 4/9/10 2/10/11 8/5/12
f 3/11/13 5/7/14 7/6/15 1/12/16
f 12/13/17 10/14/18 4/9/19 6/8/20
f 9/15/21 11/16/22 5/17/23 3/18/24
f 2/4/25 1/3/26 15/19/27 16/20/28
f 16/21/29 14/22/30 8/5/31 2/10/32
f 13/23/33 15/24/34 1/25/35 7/26/36
f 12/13/37 11/16/38 13/23/39 14/22/40
f 16/27/41 15/28/42 9/29/43 10/30/44
f 10/14/45 12/13/46 14/22/47 16/21/48
f 11/16/49 9/15/50 15/24/51 13/23/52
f 4/1/53 10/30/54 9/29/55 3/2/56
f 20/31/57 19/32/58 17/33/59 18/34/60
f 24/35/61 23/36/62 21/37/63 22/38/64
f 22/38/65 20/39/66 18/40/67 24/35/68
f 19/41/69 21/37/70 23/36/71 17/42/72
f 28/43/73 26/44/74 20/39/75 22/38/76
f 25/45/77 27/46/78 21/47/79 19/48/80
f 18/34/81 17/33/82 31/49/83 32/50/84
f 32/51/85 30/52/86 24/35/87 18/40/88
f 29/53/89 31/54/90 17/55/91 23/56/92
f 28/43/93 27/46/94 29/53/95 30/52/96
f 32/57/97 31/58/98 25/59/99 26/60/100
f 26/44/101 28/43/102 30/52/103 32/51/104
f 27/46/105 25/45/106 31/54/107 29/53/108
f 20/31/109 26/60/110 25/59/111 19/32/112
f 36/61/113 35/62/114 33/63/115 34/64/116
f 40/65/117 39/66/118 37/67/119 38/68/120
f 36/61/121 34/64/122 41/69/123 42/70/124
f 44/71/125 43/72/126 40/65/127 38/68/128
f 38/73/129 36/61/130 42/70/131 44/74/132
f 34/75/133 40/76/134 43/77/135 41/78/136
f 33/63/137 35/62/138 45/79/139 46/80/140
f 48/81/141 47/82/142 37/67/143 39/66/144
f 39/83/145 33/84/146 46/85/147 48/86/148
f 35/62/149 37/87/150 47/88/151 45/79/152
f 41/69/153 46/80/154 45/79/155 42/70/156
f 43/77/157 48/86/158 46/85/159 41/78/160
f 44/71/161 47/82/162 48/81/163 43/72/164
f 52/89/165 51/90/166 49/91/167 50/92/168
f 54/93/169 53/94/170 51/90/171 52/89/172
f 56/95/173 55/96/174 53/94/175 54/93/176
f 54/93/177 52/89/178 50/97/179 56/98/180
f 51/90/181 53/94/182 55/99/183 49/100/184
f 50/92/185 49/91/186 55/101/187 56/102/188
