# This file uses centimeters as units for non-parametric coordinates.

mtllib Desk_Large_03.mtl
g default
v -2.591248 0.083035 4.640409
v -2.359131 0.083035 4.640409
v -2.591248 0.710659 4.640409
v -2.359131 0.710659 4.640409
v -2.591248 0.770412 4.586192
v -2.359131 0.770412 4.586192
v -2.591248 0.022386 4.586192
v -2.359131 0.022386 4.586192
v -2.591248 0.710659 5.187212
v -2.359131 0.710659 5.187212
v -2.591248 0.770412 5.241806
v -2.359131 0.770412 5.241806
v -2.591248 0.022386 5.241806
v -2.359131 0.022386 5.241806
v -2.591248 0.083035 5.187212
v -2.359131 0.083035 5.187212
v -6.686029 0.083035 4.640322
v -6.453912 0.083035 4.640322
v -6.686029 0.710659 4.640322
v -6.453912 0.710659 4.640322
v -6.686029 0.770412 4.585729
v -6.453912 0.770412 4.585729
v -6.686029 0.022386 4.585729
v -6.453912 0.022386 4.585729
v -6.686029 0.710659 5.187212
v -6.453912 0.710659 5.187212
v -6.686029 0.770412 5.241806
v -6.453912 0.770412 5.241806
v -6.686029 0.022386 5.241806
v -6.453912 0.022386 5.241806
v -6.686029 0.083035 5.187212
v -6.453912 0.083035 5.187212
v -4.446030 0.711139 4.586192
v -4.598987 0.711139 4.586192
v -4.402308 0.770412 4.586192
v -4.642709 0.770412 4.586192
v -4.402308 0.770412 4.640409
v -4.642709 0.770412 4.640409
v -4.446030 0.711139 4.640409
v -4.598987 0.711139 4.640409
v -4.598987 0.082762 4.586192
v -4.642709 0.022386 4.586192
v -4.598987 0.082762 4.640409
v -4.642709 0.022386 4.640409
v -4.402308 0.022386 4.586192
v -4.446030 0.082762 4.586192
v -4.402308 0.022386 4.640409
v -4.446030 0.082762 4.640409
v -2.357503 0.770147 4.585731
v -6.688184 0.770147 4.585731
v -2.358029 0.811932 4.585731
v -6.688184 0.811932 4.585731
v -2.358029 0.811932 5.241769
v -6.688184 0.811932 5.241769
v -2.357503 0.770147 5.241769
v -6.688184 0.770147 5.241769
vt 0.236496 0.115428
vt 0.229695 0.115428
vt 0.229695 0.097040
vt 0.236496 0.097040
vt 0.180251 0.215398
vt 0.180251 0.222198
vt 0.158336 0.222198
vt 0.158336 0.215397
vt 0.160087 0.213809
vt 0.178474 0.213809
vt 0.160087 0.223786
vt 0.178474 0.223786
vt 0.158337 0.196190
vt 0.160087 0.197789
vt 0.160088 0.187790
vt 0.158337 0.189390
vt 0.158337 0.170182
vt 0.160088 0.171771
vt 0.229695 0.081021
vt 0.236496 0.081021
vt 0.178475 0.197790
vt 0.180252 0.196190
vt 0.180252 0.189390
vt 0.178475 0.187791
vt 0.178475 0.171771
vt 0.180252 0.170183
vt 0.236496 0.149835
vt 0.229695 0.149835
vt 0.229695 0.131447
vt 0.236496 0.131447
vt 0.232036 0.044417
vt 0.225235 0.044417
vt 0.225235 0.026029
vt 0.232036 0.026029
vt 0.207011 0.196220
vt 0.207011 0.203020
vt 0.185096 0.203020
vt 0.185096 0.196220
vt 0.186846 0.194620
vt 0.205234 0.194620
vt 0.186846 0.204620
vt 0.205234 0.204620
vt 0.185096 0.176999
vt 0.186846 0.178598
vt 0.186846 0.168599
vt 0.185096 0.170198
vt 0.185096 0.150978
vt 0.186847 0.152577
vt 0.225235 0.010007
vt 0.232036 0.010007
vt 0.205234 0.178598
vt 0.207011 0.176999
vt 0.207011 0.170199
vt 0.205234 0.168599
vt 0.205234 0.152577
vt 0.207011 0.150978
vt 0.232036 0.078826
vt 0.225235 0.078826
vt 0.225235 0.060439
vt 0.232036 0.060439
vt 0.178117 0.135178
vt 0.171074 0.135178
vt 0.172355 0.133441
vt 0.176836 0.133441
vt 0.007812 0.007812
vt 0.007812 0.007812
vt 0.007812 0.007812
vt 0.007812 0.007812
vt 0.176836 0.115032
vt 0.178117 0.113263
vt 0.007812 0.007812
vt 0.007812 0.007812
vt 0.179706 0.135178
vt 0.179706 0.113263
vt 0.235270 0.010007
vt 0.236859 0.010007
vt 0.236859 0.028417
vt 0.235270 0.028417
vt 0.171074 0.113263
vt 0.172355 0.115032
vt 0.007812 0.007812
vt 0.007812 0.007812
vt 0.236859 0.051307
vt 0.235270 0.051307
vt 0.235270 0.032898
vt 0.236859 0.032898
vt 0.169486 0.135178
vt 0.169486 0.113263
vt 0.115226 0.011240
vt 0.115282 0.138100
vt 0.114058 0.138116
vt 0.114002 0.011240
vt 0.134446 0.011231
vt 0.134502 0.138091
vt 0.135670 0.011231
vt 0.135726 0.138106
vt 0.115225 0.010016
vt 0.134445 0.010007
vt 0.134502 0.139316
vt 0.115282 0.139324
vt 0.094838 0.138124
vt 0.094782 0.011249
vn 0.000000 0.000000 1.000000
vn 0.000000 0.000000 1.000000
vn 0.000000 0.000000 1.000000
vn 0.000000 0.000000 1.000000
vn 0.000000 0.000000 -1.000000
vn 0.000000 0.000000 -1.000000
vn 0.000000 0.000000 -1.000000
vn 0.000000 0.000000 -1.000000
vn 1.000000 0.000000 0.000000
vn 1.000000 0.000000 0.000000
vn 1.000000 0.000000 0.000000
vn 1.000000 0.000000 0.000000
vn -1.000000 0.000000 0.000000
vn -1.000000 0.000000 0.000000
vn -1.000000 0.000000 0.000000
vn -1.000000 0.000000 0.000000
vn 1.000000 0.000000 0.000000
vn 1.000000 0.000000 0.000000
vn 1.000000 0.000000 0.000000
vn 1.000000 0.000000 0.000000
vn -1.000000 0.000000 0.000000
vn -1.000000 0.000000 0.000000
vn -1.000000 0.000000 0.000000
vn -1.000000 0.000000 0.000000
vn 0.000000 1.000000 0.000000
vn 0.000000 1.000000 0.000000
vn 0.000000 1.000000 0.000000
vn 0.000000 1.000000 0.000000
vn 1.000000 0.000000 0.000000
vn 1.000000 0.000000 0.000000
vn 1.000000 0.000000 0.000000
vn 1.000000 0.000000 0.000000
vn -1.000000 0.000000 0.000000
vn -1.000000 0.000000 0.000000
vn -1.000000 0.000000 0.000000
vn -1.000000 0.000000 0.000000
vn 0.000000 0.000000 1.000000
vn 0.000000 0.000000 1.000000
vn 0.000000 0.000000 1.000000
vn 0.000000 0.000000 1.000000
vn 0.000000 0.000000 -1.000000
vn 0.000000 0.000000 -1.000000
vn 0.000000 0.000000 -1.000000
vn 0.000000 0.000000 -1.000000
vn 1.000000 0.000000 0.000000
vn 1.000000 0.000000 0.000000
vn 1.000000 0.000000 0.000000
vn 1.000000 0.000000 0.000000
vn -1.000000 0.000000 0.000000
vn -1.000000 0.000000 0.000000
vn -1.000000 0.000000 0.000000
vn -1.000000 0.000000 0.000000
vn 0.000000 -1.000000 0.000000
vn 0.000000 -1.000000 0.000000
vn 0.000000 -1.000000 0.000000
vn 0.000000 -1.000000 0.000000
vn 0.000000 0.000000 1.000000
vn 0.000000 0.000000 1.000000
vn 0.000000 0.000000 1.000000
vn 0.000000 0.000000 1.000000
vn 0.000000 0.000000 -1.000000
vn 0.000000 0.000000 -1.000000
vn 0.000000 0.000000 -1.000000
vn 0.000000 0.000000 -1.000000
vn 1.000000 0.000000 0.000000
vn 1.000000 0.000000 0.000000
vn 1.000000 0.000000 0.000000
vn 1.000000 0.000000 0.000000
vn -1.000000 0.000000 0.000000
vn -1.000000 0.000000 0.000000
vn -1.000000 0.000000 0.000000
vn -1.000000 0.000000 0.000000
vn 1.000000 0.000000 0.000000
vn 1.000000 0.000000 0.000000
vn 1.000000 0.000000 0.000000
vn 1.000000 0.000000 0.000000
vn -1.000000 0.000000 0.000000
vn -1.000000 0.000000 0.000000
vn -1.000000 0.000000 0.000000
vn -1.000000 0.000000 0.000000
vn 0.000000 1.000000 0.000000
vn 0.000000 1.000000 0.000000
vn 0.000000 1.000000 0.000000
vn 0.000000 1.000000 0.000000
vn 1.000000 0.000000 0.000000
vn 1.000000 0.000000 0.000000
vn 1.000000 0.000000 0.000000
vn 1.000000 0.000000 0.000000
vn -1.000000 0.000000 0.000000
vn -1.000000 0.000000 0.000000
vn -1.000000 0.000000 0.000000
vn -1.000000 0.000000 0.000000
vn 0.000000 0.000000 1.000000
vn 0.000000 0.000000 1.000000
vn 0.000000 0.000000 1.000000
vn 0.000000 0.000000 1.000000
vn 0.000000 0.000000 -1.000000
vn 0.000000 0.000000 -1.000000
vn 0.000000 0.000000 -1.000000
vn 0.000000 0.000000 -1.000000
vn 1.000000 0.000000 0.000000
vn 1.000000 0.000000 0.000000
vn 1.000000 0.000000 0.000000
vn 1.000000 0.000000 0.000000
vn -1.000000 0.000000 0.000000
vn -1.000000 0.000000 0.000000
vn -1.000000 0.000000 0.000000
vn -1.000000 0.000000 0.000000
vn 0.000000 -1.000000 0.000000
vn 0.000000 -1.000000 0.000000
vn 0.000000 -1.000000 0.000000
vn 0.000000 -1.000000 0.000000
vn 0.000000 0.000000 -1.000000
vn 0.000000 0.000000 -1.000000
vn 0.000000 0.000000 -1.000000
vn 0.000000 0.000000 -1.000000
vn 0.000000 0.000000 1.000000
vn 0.000000 0.000000 1.000000
vn 0.000000 0.000000 1.000000
vn 0.000000 0.000000 1.000000
vn 0.000000 0.000000 -1.000000
vn 0.000000 0.000000 -1.000000
vn 0.000000 0.000000 -1.000000
vn 0.000000 0.000000 -1.000000
vn 0.000000 0.000000 1.000000
vn 0.000000 0.000000 1.000000
vn 0.000000 0.000000 1.000000
vn 0.000000 0.000000 1.000000
vn -1.000000 0.000000 0.000000
vn -1.000000 0.000000 0.000000
vn -1.000000 0.000000 0.000000
vn -1.000000 0.000000 0.000000
vn 1.000000 0.000000 0.000000
vn 1.000000 0.000000 0.000000
vn 1.000000 0.000000 0.000000
vn 1.000000 0.000000 0.000000
vn 0.000000 0.000000 -1.000000
vn 0.000000 0.000000 -1.000000
vn 0.000000 0.000000 -1.000000
vn 0.000000 0.000000 -1.000000
vn 0.000000 0.000000 1.000000
vn 0.000000 0.000000 1.000000
vn 0.000000 0.000000 1.000000
vn 0.000000 0.000000 1.000000
vn -1.000000 0.000000 0.000000
vn -1.000000 0.000000 0.000000
vn -1.000000 0.000000 0.000000
vn -1.000000 0.000000 0.000000
vn 1.000000 0.000000 0.000000
vn 1.000000 0.000000 0.000000
vn 1.000000 0.000000 0.000000
vn 1.000000 0.000000 0.000000
vn 0.000000 0.000000 -1.000000
vn 0.000000 0.000000 -1.000000
vn 0.000000 0.000000 -1.000000
vn 0.000000 0.000000 -1.000000
vn 0.000000 1.000000 0.000000
vn 0.000000 1.000000 0.000000
vn 0.000000 1.000000 0.000000
vn 0.000000 1.000000 0.000000
vn 0.000000 0.000000 1.000000
vn 0.000000 0.000000 1.000000
vn 0.000000 0.000000 1.000000
vn 0.000000 0.000000 1.000000
vn 0.000000 0.000000 -1.000000
vn 0.000000 0.000000 -1.000000
vn 0.000000 0.000000 -1.000000
vn 0.000000 0.000000 -1.000000
vn 0.000000 1.000000 0.000000
vn 0.000000 1.000000 0.000000
vn 0.000000 1.000000 0.000000
vn 0.000000 1.000000 0.000000
vn 0.000000 0.000000 1.000000
vn 0.000000 0.000000 1.000000
vn 0.000000 0.000000 1.000000
vn 0.000000 0.000000 1.000000
vn -1.000000 0.000000 0.000000
vn -1.000000 0.000000 0.000000
vn -1.000000 0.000000 0.000000
vn -1.000000 0.000000 0.000000
vn 0.999907 0.013672 0.000000
vn 0.999907 0.013672 0.000000
vn 0.999907 0.013672 0.000000
vn 0.999907 0.013672 0.000000
vn 0.000666 -1.000000 0.000000
vn 0.000666 -1.000000 0.000000
vn 0.000666 -1.000000 0.000000
vn 0.000666 -1.000000 0.000000
s off
g Desk_Large_03
usemtl blinn7SG
f 4/1/1 3/2/2 1/3/3 2/4/4
f 8/5/5 7/6/6 5/7/7 6/8/8
f 6/8/9 4/9/10 2/10/11 8/5/12
f 3/11/13 5/7/14 7/6/15 1/12/16
f 12/13/17 10/14/18 4/9/19 6/8/20
f 9/15/21 11/16/22 5/17/23 3/18/24
f 2/4/25 1/3/26 15/19/27 16/20/28
f 16/21/29 14/22/30 8/5/31 2/10/32
f 13/23/33 15/24/34 1/25/35 7/26/36
f 12/13/37 11/16/38 13/23/39 14/22/40
f 16/27/41 15/28/42 9/29/43 10/30/44
f 10/14/45 12/13/46 14/22/47 16/21/48
f 11/16/49 9/15/50 15/24/51 13/23/52
f 4/1/53 10/30/54 9/29/55 3/2/56
f 20/31/57 19/32/58 17/33/59 18/34/60
f 24/35/61 23/36/62 21/37/63 22/38/64
f 22/38/65 20/39/66 18/40/67 24/35/68
f 19/41/69 21/37/70 23/36/71 17/42/72
f 28/43/73 26/44/74 20/39/75 22/38/76
f 25/45/77 27/46/78 21/47/79 19/48/80
f 18/34/81 17/33/82 31/49/83 32/50/84
f 32/51/85 30/52/86 24/35/87 18/40/88
f 29/53/89 31/54/90 17/55/91 23/56/92
f 28/43/93 27/46/94 29/53/95 30/52/96
f 32/57/97 31/58/98 25/59/99 26/60/100
f 26/44/101 28/43/102 30/52/103 32/51/104
f 27/46/105 25/45/106 31/54/107 29/53/108
f 20/31/109 26/60/110 25/59/111 19/32/112
f 36/61/113 35/62/114 33/63/115 34/64/116
f 40/65/117 39/66/118 37/67/119 38/68/120
f 36/61/121 34/64/122 41/69/123 42/70/124
f 44/71/125 43/72/126 40/65/127 38/68/128
f 38/73/129 36/61/130 42/70/131 44/74/132
f 34/75/133 40/76/134 43/77/135 41/78/136
f 33/63/137 35/62/138 45/79/139 46/80/140
f 48/81/141 47/82/142 37/67/143 39/66/144
f 39/83/145 33/84/146 46/85/147 48/86/148
f 35/62/149 37/87/150 47/88/151 45/79/152
f 41/69/153 46/80/154 45/79/155 42/70/156
f 43/77/157 48/86/158 46/85/159 41/78/160
f 44/71/161 47/82/162 48/81/163 43/72/164
f 52/89/165 51/90/166 49/91/167 50/92/168
f 54/93/169 53/94/170 51/90/171 52/89/172
f 56/95/173 55/96/174 53/94/175 54/93/176
f 54/93/177 52/89/178 50/97/179 56/98/180
f 51/90/181 53/94/182 55/99/183 49/100/184
f 50/92/185 49/91/186 55/101/187 56/102/188
