# This file uses centimeters as units for non-parametric coordinates.

mtllib Desk_Large_02.mtl
g default
v -1.914681 0.083035 11.364525
v -1.914681 0.083035 11.596643
v -1.914681 0.710659 11.364525
v -1.914681 0.710659 11.596643
v -1.860465 0.770412 11.364525
v -1.860465 0.770412 11.596643
v -1.860465 0.022386 11.364525
v -1.860465 0.022386 11.596643
v -2.461485 0.710659 11.364525
v -2.461485 0.710659 11.596643
v -2.516078 0.770412 11.364525
v -2.516078 0.770412 11.596643
v -2.516078 0.022386 11.364525
v -2.516078 0.022386 11.596643
v -2.461485 0.083035 11.364525
v -2.461485 0.083035 11.596643
v -1.914594 0.083035 7.269744
v -1.914594 0.083035 7.501862
v -1.914594 0.710659 7.269744
v -1.914594 0.710659 7.501862
v -1.860001 0.770412 7.269744
v -1.860001 0.770412 7.501862
v -1.860001 0.022386 7.269744
v -1.860001 0.022386 7.501862
v -2.461485 0.710659 7.269744
v -2.461485 0.710659 7.501862
v -2.516078 0.770412 7.269744
v -2.516078 0.770412 7.501862
v -2.516078 0.022386 7.269744
v -2.516078 0.022386 7.501862
v -2.461485 0.083035 7.269744
v -2.461485 0.083035 7.501862
v -1.860465 0.711139 9.509743
v -1.860465 0.711139 9.356787
v -1.860465 0.770412 9.553466
v -1.860465 0.770412 9.313064
v -1.914681 0.770412 9.553466
v -1.914681 0.770412 9.313064
v -1.914681 0.711139 9.509743
v -1.914681 0.711139 9.356787
v -1.860465 0.082762 9.356787
v -1.860465 0.022386 9.313064
v -1.914681 0.082762 9.356787
v -1.914681 0.022386 9.313064
v -1.860465 0.022386 9.553466
v -1.860465 0.082762 9.509743
v -1.914681 0.022386 9.553466
v -1.914681 0.082762 9.509743
v -1.860003 0.770147 11.598271
v -1.860003 0.770147 7.267590
v -1.860003 0.811932 11.597744
v -1.860003 0.811932 7.267590
v -2.516041 0.811932 11.597744
v -2.516041 0.811932 7.267590
v -2.516041 0.770147 11.598271
v -2.516041 0.770147 7.267590
vt 0.216426 0.200968
vt 0.209626 0.200968
vt 0.209626 0.182580
vt 0.216426 0.182580
vt 0.126732 0.215254
vt 0.126731 0.222054
vt 0.104817 0.222053
vt 0.104817 0.215253
vt 0.106567 0.213665
vt 0.124955 0.213665
vt 0.106567 0.223642
vt 0.124954 0.223642
vt 0.104817 0.196046
vt 0.106568 0.197645
vt 0.106568 0.187646
vt 0.104817 0.189245
vt 0.104818 0.170038
vt 0.106569 0.171626
vt 0.209626 0.166561
vt 0.216426 0.166561
vt 0.124955 0.197646
vt 0.126732 0.196046
vt 0.126732 0.189246
vt 0.124956 0.187646
vt 0.124956 0.171627
vt 0.126733 0.170038
vt 0.216426 0.235375
vt 0.209626 0.235375
vt 0.209626 0.216987
vt 0.216426 0.216987
vt 0.226461 0.186445
vt 0.219660 0.186445
vt 0.219660 0.168058
vt 0.226461 0.168058
vt 0.102202 0.215174
vt 0.102202 0.221974
vt 0.080287 0.221974
vt 0.080287 0.215174
vt 0.082037 0.213574
vt 0.100425 0.213574
vt 0.082037 0.223573
vt 0.100425 0.223574
vt 0.080287 0.195953
vt 0.082037 0.197552
vt 0.082037 0.187553
vt 0.080287 0.189152
vt 0.080287 0.169931
vt 0.082037 0.171531
vt 0.219660 0.152036
vt 0.226461 0.152036
vt 0.100425 0.197552
vt 0.102202 0.195953
vt 0.102202 0.189152
vt 0.100425 0.187553
vt 0.100425 0.171531
vt 0.102202 0.169931
vt 0.226461 0.220855
vt 0.219660 0.220855
vt 0.219660 0.202467
vt 0.226461 0.202467
vt 0.153588 0.134006
vt 0.146545 0.134006
vt 0.147826 0.132270
vt 0.152307 0.132270
vt 0.007812 0.007812
vt 0.007812 0.007812
vt 0.007812 0.007812
vt 0.007812 0.007812
vt 0.152307 0.113860
vt 0.153588 0.112091
vt 0.007812 0.007812
vt 0.007812 0.007812
vt 0.155176 0.134006
vt 0.155176 0.112091
vt 0.050182 0.140319
vt 0.051771 0.140319
vt 0.051771 0.158728
vt 0.050182 0.158728
vt 0.146544 0.112091
vt 0.147826 0.113860
vt 0.007812 0.007812
vt 0.007812 0.007812
vt 0.051771 0.181619
vt 0.050182 0.181619
vt 0.050182 0.163209
vt 0.051771 0.163209
vt 0.144956 0.134006
vt 0.144956 0.112091
vt 0.071741 0.011240
vt 0.071797 0.138100
vt 0.070573 0.138116
vt 0.070517 0.011240
vt 0.090961 0.011231
vt 0.091017 0.138091
vt 0.092185 0.011231
vt 0.092241 0.138106
vt 0.071741 0.010016
vt 0.090960 0.010007
vt 0.091018 0.139316
vt 0.071798 0.139324
vt 0.051353 0.138124
vt 0.051297 0.011249
vn -1.000000 0.000000 0.000000
vn -1.000000 0.000000 0.000000
vn -1.000000 0.000000 0.000000
vn -1.000000 0.000000 0.000000
vn 1.000000 0.000000 0.000000
vn 1.000000 0.000000 0.000000
vn 1.000000 0.000000 0.000000
vn 1.000000 0.000000 0.000000
vn 0.000000 0.000000 1.000000
vn 0.000000 0.000000 1.000000
vn 0.000000 0.000000 1.000000
vn 0.000000 0.000000 1.000000
vn -0.000000 0.000000 -1.000000
vn -0.000000 0.000000 -1.000000
vn -0.000000 0.000000 -1.000000
vn -0.000000 0.000000 -1.000000
vn 0.000000 0.000000 1.000000
vn 0.000000 0.000000 1.000000
vn 0.000000 0.000000 1.000000
vn 0.000000 0.000000 1.000000
vn -0.000000 0.000000 -1.000000
vn -0.000000 0.000000 -1.000000
vn -0.000000 0.000000 -1.000000
vn -0.000000 0.000000 -1.000000
vn 0.000000 1.000000 0.000000
vn 0.000000 1.000000 0.000000
vn 0.000000 1.000000 0.000000
vn 0.000000 1.000000 0.000000
vn 0.000000 0.000000 1.000000
vn 0.000000 0.000000 1.000000
vn 0.000000 0.000000 1.000000
vn 0.000000 0.000000 1.000000
vn -0.000000 0.000000 -1.000000
vn -0.000000 0.000000 -1.000000
vn -0.000000 0.000000 -1.000000
vn -0.000000 0.000000 -1.000000
vn -1.000000 0.000000 0.000000
vn -1.000000 0.000000 0.000000
vn -1.000000 0.000000 0.000000
vn -1.000000 0.000000 0.000000
vn 1.000000 0.000000 0.000000
vn 1.000000 0.000000 0.000000
vn 1.000000 0.000000 0.000000
vn 1.000000 0.000000 0.000000
vn 0.000000 0.000000 1.000000
vn 0.000000 0.000000 1.000000
vn 0.000000 0.000000 1.000000
vn 0.000000 0.000000 1.000000
vn -0.000000 0.000000 -1.000000
vn -0.000000 0.000000 -1.000000
vn -0.000000 0.000000 -1.000000
vn -0.000000 0.000000 -1.000000
vn 0.000000 -1.000000 0.000000
vn 0.000000 -1.000000 0.000000
vn 0.000000 -1.000000 0.000000
vn 0.000000 -1.000000 0.000000
vn -1.000000 0.000000 0.000000
vn -1.000000 0.000000 0.000000
vn -1.000000 0.000000 0.000000
vn -1.000000 0.000000 0.000000
vn 1.000000 0.000000 0.000000
vn 1.000000 0.000000 0.000000
vn 1.000000 0.000000 0.000000
vn 1.000000 0.000000 0.000000
vn 0.000000 0.000000 1.000000
vn 0.000000 0.000000 1.000000
vn 0.000000 0.000000 1.000000
vn 0.000000 0.000000 1.000000
vn -0.000000 0.000000 -1.000000
vn -0.000000 0.000000 -1.000000
vn -0.000000 0.000000 -1.000000
vn -0.000000 0.000000 -1.000000
vn 0.000000 0.000000 1.000000
vn 0.000000 0.000000 1.000000
vn 0.000000 0.000000 1.000000
vn 0.000000 0.000000 1.000000
vn -0.000000 0.000000 -1.000000
vn -0.000000 0.000000 -1.000000
vn -0.000000 0.000000 -1.000000
vn -0.000000 0.000000 -1.000000
vn 0.000000 1.000000 0.000000
vn 0.000000 1.000000 0.000000
vn 0.000000 1.000000 0.000000
vn 0.000000 1.000000 0.000000
vn 0.000000 0.000000 1.000000
vn 0.000000 0.000000 1.000000
vn 0.000000 0.000000 1.000000
vn 0.000000 0.000000 1.000000
vn -0.000000 0.000000 -1.000000
vn -0.000000 0.000000 -1.000000
vn -0.000000 0.000000 -1.000000
vn -0.000000 0.000000 -1.000000
vn -1.000000 0.000000 0.000000
vn -1.000000 0.000000 0.000000
vn -1.000000 0.000000 0.000000
vn -1.000000 0.000000 0.000000
vn 1.000000 0.000000 0.000000
vn 1.000000 0.000000 0.000000
vn 1.000000 0.000000 0.000000
vn 1.000000 0.000000 0.000000
vn 0.000000 0.000000 1.000000
vn 0.000000 0.000000 1.000000
vn 0.000000 0.000000 1.000000
vn 0.000000 0.000000 1.000000
vn -0.000000 0.000000 -1.000000
vn -0.000000 0.000000 -1.000000
vn -0.000000 0.000000 -1.000000
vn -0.000000 0.000000 -1.000000
vn 0.000000 -1.000000 0.000000
vn 0.000000 -1.000000 0.000000
vn 0.000000 -1.000000 0.000000
vn 0.000000 -1.000000 0.000000
vn 1.000000 0.000000 0.000000
vn 1.000000 0.000000 0.000000
vn 1.000000 0.000000 0.000000
vn 1.000000 0.000000 0.000000
vn -1.000000 0.000000 0.000000
vn -1.000000 0.000000 0.000000
vn -1.000000 0.000000 0.000000
vn -1.000000 0.000000 0.000000
vn 1.000000 0.000000 0.000000
vn 1.000000 0.000000 0.000000
vn 1.000000 0.000000 0.000000
vn 1.000000 0.000000 0.000000
vn -1.000000 0.000000 0.000000
vn -1.000000 0.000000 0.000000
vn -1.000000 0.000000 0.000000
vn -1.000000 0.000000 0.000000
vn -0.000000 0.000000 -1.000000
vn -0.000000 0.000000 -1.000000
vn -0.000000 0.000000 -1.000000
vn -0.000000 0.000000 -1.000000
vn 0.000000 0.000000 1.000000
vn 0.000000 0.000000 1.000000
vn 0.000000 0.000000 1.000000
vn 0.000000 0.000000 1.000000
vn 1.000000 0.000000 0.000000
vn 1.000000 0.000000 0.000000
vn 1.000000 0.000000 0.000000
vn 1.000000 0.000000 0.000000
vn -1.000000 0.000000 0.000000
vn -1.000000 0.000000 0.000000
vn -1.000000 0.000000 0.000000
vn -1.000000 0.000000 0.000000
vn -0.000000 0.000000 -1.000000
vn -0.000000 0.000000 -1.000000
vn -0.000000 0.000000 -1.000000
vn -0.000000 0.000000 -1.000000
vn 0.000000 0.000000 1.000000
vn 0.000000 0.000000 1.000000
vn 0.000000 0.000000 1.000000
vn 0.000000 0.000000 1.000000
vn 1.000000 0.000000 0.000000
vn 1.000000 0.000000 0.000000
vn 1.000000 0.000000 0.000000
vn 1.000000 0.000000 0.000000
vn 0.000000 1.000000 0.000000
vn 0.000000 1.000000 0.000000
vn 0.000000 1.000000 0.000000
vn 0.000000 1.000000 0.000000
vn -1.000000 0.000000 0.000000
vn -1.000000 0.000000 0.000000
vn -1.000000 0.000000 0.000000
vn -1.000000 0.000000 0.000000
vn 1.000000 0.000000 0.000000
vn 1.000000 0.000000 0.000000
vn 1.000000 0.000000 0.000000
vn 1.000000 0.000000 0.000000
vn 0.000000 1.000000 0.000000
vn 0.000000 1.000000 0.000000
vn 0.000000 1.000000 0.000000
vn 0.000000 1.000000 0.000000
vn -1.000000 0.000000 0.000000
vn -1.000000 0.000000 0.000000
vn -1.000000 0.000000 0.000000
vn -1.000000 0.000000 0.000000
vn -0.000000 0.000000 -1.000000
vn -0.000000 0.000000 -1.000000
vn -0.000000 0.000000 -1.000000
vn -0.000000 0.000000 -1.000000
vn 0.000000 0.013672 0.999907
vn 0.000000 0.013672 0.999907
vn 0.000000 0.013672 0.999907
vn 0.000000 0.013672 0.999907
vn 0.000000 -1.000000 0.000666
vn 0.000000 -1.000000 0.000666
vn 0.000000 -1.000000 0.000666
vn 0.000000 -1.000000 0.000666
s off
g Desk_Large_02
usemtl blinn7SG
f 4/1/1 3/2/2 1/3/3 2/4/4
f 8/5/5 7/6/6 5/7/7 6/8/8
f 6/8/9 4/9/10 2/10/11 8/5/12
f 3/11/13 5/7/14 7/6/15 1/12/16
f 12/13/17 10/14/18 4/9/19 6/8/20
f 9/15/21 11/16/22 5/17/23 3/18/24
f 2/4/25 1/3/26 15/19/27 16/20/28
f 16/21/29 14/22/30 8/5/31 2/10/32
f 13/23/33 15/24/34 1/25/35 7/26/36
f 12/13/37 11/16/38 13/23/39 14/22/40
f 16/27/41 15/28/42 9/29/43 10/30/44
f 10/14/45 12/13/46 14/22/47 16/21/48
f 11/16/49 9/15/50 15/24/51 13/23/52
f 4/1/53 10/30/54 9/29/55 3/2/56
f 20/31/57 19/32/58 17/33/59 18/34/60
f 24/35/61 23/36/62 21/37/63 22/38/64
f 22/38/65 20/39/66 18/40/67 24/35/68
f 19/41/69 21/37/70 23/36/71 17/42/72
f 28/43/73 26/44/74 20/39/75 22/38/76
f 25/45/77 27/46/78 21/47/79 19/48/80
f 18/34/81 17/33/82 31/49/83 32/50/84
f 32/51/85 30/52/86 24/35/87 18/40/88
f 29/53/89 31/54/90 17/55/91 23/56/92
f 28/43/93 27/46/94 29/53/95 30/52/96
f 32/57/97 31/58/98 25/59/99 26/60/100
f 26/44/101 28/43/102 30/52/103 32/51/104
f 27/46/105 25/45/106 31/54/107 29/53/108
f 20/31/109 26/60/110 25/59/111 19/32/112
f 36/61/113 35/62/114 33/63/115 34/64/116
f 40/65/117 39/66/118 37/67/119 38/68/120
f 36/61/121 34/64/122 41/69/123 42/70/124
f 44/71/125 43/72/126 40/65/127 38/68/128
f 38/73/129 36/61/130 42/70/131 44/74/132
f 34/75/133 40/76/134 43/77/135 41/78/136
f 33/63/137 35/62/138 45/79/139 46/80/140
f 48/81/141 47/82/142 37/67/143 39/66/144
f 39/83/145 33/84/146 46/85/147 48/86/148
f 35/62/149 37/87/150 47/88/151 45/79/152
f 41/69/153 46/80/154 45/79/155 42/70/156
f 43/77/157 48/86/158 46/85/159 41/78/160
f 44/71/161 47/82/162 48/81/163 43/72/164
f 52/89/165 51/90/166 49/91/167 50/92/168
f 54/93/169 53/94/170 51/90/171 52/89/172
f 56/95/173 55/96/174 53/94/175 54/93/176
f 54/93/177 52/89/178 50/97/179 56/98/180
f 51/90/181 53/94/182 55/99/183 49/100/184
f 50/92/185 49/91/186 55/101/187 56/102/188
