# This file uses centimeters as units for non-parametric coordinates.

mtllib iMac_02.mtl
g default
v 2.474699 0.807637 15.434278
v 2.614245 0.807637 15.434278
v 2.474699 0.816398 15.434278
v 2.614245 0.816398 15.434278
v 2.474699 0.816398 15.295155
v 2.614245 0.816398 15.295155
v 2.474699 0.807637 15.295155
v 2.614245 0.807637 15.295155
v 2.474699 1.006519 15.358020
v 2.614245 1.006519 15.358020
v 2.474699 1.007934 15.349373
v 2.614245 1.007934 15.349373
v 2.474699 0.810983 15.319310
v 2.614245 0.810983 15.319310
v 2.474699 0.809568 15.327960
v 2.614245 0.809568 15.327960
v 2.265965 1.325101 15.287110
v 2.822979 1.325101 15.287110
v 2.265965 1.319996 15.268701
v 2.822979 1.319996 15.268701
v 2.265965 0.924135 15.381988
v 2.822979 0.924135 15.381988
v 2.265965 0.929240 15.400393
v 2.822979 0.929240 15.400393
vt 0.173673 0.044179
vt 0.173673 0.025969
vt 0.174817 0.025969
vt 0.174817 0.044179
vt 0.047683 0.119354
vt 0.065894 0.119354
vt 0.065894 0.137509
vt 0.047683 0.137509
vt 0.065894 0.138652
vt 0.047683 0.138652
vt 0.065894 0.156808
vt 0.047683 0.156808
vt 0.173673 0.007812
vt 0.174817 0.007812
vt 0.173673 0.062335
vt 0.174817 0.062335
vt 0.167294 0.052014
vt 0.167294 0.033801
vt 0.168438 0.033801
vt 0.168438 0.052014
vt 0.007812 0.119354
vt 0.026023 0.119354
vt 0.026023 0.145354
vt 0.007812 0.145354
vt 0.026023 0.146497
vt 0.007812 0.146497
vt 0.026023 0.172497
vt 0.007812 0.172497
vt 0.167294 0.007812
vt 0.168438 0.007812
vt 0.167294 0.078023
vt 0.168438 0.078023
vt 0.157725 0.134214
vt 0.157725 0.061523
vt 0.160218 0.061523
vt 0.160218 0.134214
vt 0.007812 0.007812
vt 0.080503 0.007812
vt 0.080503 0.061546
vt 0.007812 0.061546
vt 0.080503 0.064039
vt 0.007812 0.064039
vt 0.080503 0.117774
vt 0.007812 0.117774
vt 0.157725 0.007812
vt 0.160218 0.007812
vt 0.157725 0.187967
vt 0.160218 0.187967
vn 0.000000 0.000000 1.000000
vn 0.000000 0.000000 1.000000
vn 0.000000 0.000000 1.000000
vn 0.000000 0.000000 1.000000
vn 0.000000 1.000000 0.000000
vn 0.000000 1.000000 0.000000
vn 0.000000 1.000000 0.000000
vn 0.000000 1.000000 0.000000
vn 0.000000 0.000000 -1.000000
vn 0.000000 0.000000 -1.000000
vn 0.000000 0.000000 -1.000000
vn 0.000000 0.000000 -1.000000
vn 0.000000 -1.000000 0.000000
vn 0.000000 -1.000000 0.000000
vn 0.000000 -1.000000 0.000000
vn 0.000000 -1.000000 0.000000
vn 1.000000 0.000000 0.000000
vn 1.000000 0.000000 0.000000
vn 1.000000 0.000000 0.000000
vn 1.000000 0.000000 0.000000
vn -1.000000 0.000000 0.000000
vn -1.000000 0.000000 0.000000
vn -1.000000 0.000000 0.000000
vn -1.000000 0.000000 0.000000
vn 0.000000 0.986876 0.161479
vn 0.000000 0.986876 0.161479
vn 0.000000 0.986876 0.161479
vn 0.000000 0.986876 0.161479
vn 0.000000 0.150893 -0.988550
vn 0.000000 0.150893 -0.988550
vn 0.000000 0.150893 -0.988550
vn 0.000000 0.150893 -0.988550
vn 0.000000 -0.986885 -0.161428
vn 0.000000 -0.986885 -0.161428
vn 0.000000 -0.986885 -0.161428
vn 0.000000 -0.986885 -0.161428
vn 0.000000 -0.150880 0.988552
vn 0.000000 -0.150880 0.988552
vn 0.000000 -0.150880 0.988552
vn 0.000000 -0.150880 0.988552
vn 1.000000 0.000000 0.000000
vn 1.000000 0.000000 0.000000
vn 1.000000 0.000000 0.000000
vn 1.000000 0.000000 0.000000
vn -1.000000 0.000000 0.000000
vn -1.000000 0.000000 0.000000
vn -1.000000 0.000000 0.000000
vn -1.000000 0.000000 0.000000
vn 0.000000 0.963634 -0.267226
vn 0.000000 0.963634 -0.267226
vn 0.000000 0.963634 -0.267226
vn 0.000000 0.963634 -0.267226
vn 0.000000 -0.275134 -0.961406
vn 0.000000 -0.275134 -0.961406
vn 0.000000 -0.275134 -0.961406
vn 0.000000 -0.275134 -0.961406
vn 0.000000 -0.963613 0.267303
vn 0.000000 -0.963613 0.267303
vn 0.000000 -0.963613 0.267303
vn 0.000000 -0.963613 0.267303
vn 0.000000 0.275122 0.961409
vn 0.000000 0.275122 0.961409
vn 0.000000 0.275122 0.961409
vn 0.000000 0.275122 0.961409
vn 1.000000 0.000000 0.000000
vn 1.000000 0.000000 0.000000
vn 1.000000 0.000000 0.000000
vn 1.000000 0.000000 0.000000
vn -1.000000 0.000000 0.000000
vn -1.000000 0.000000 0.000000
vn -1.000000 0.000000 0.000000
vn -1.000000 0.000000 0.000000
s off
g iMac_02
usemtl blinn9SG
f 1/1/1 2/2/2 4/3/3 3/4/4
f 3/5/5 4/6/6 6/7/7 5/8/8
f 5/8/9 6/7/10 8/9/11 7/10/12
f 7/10/13 8/9/14 2/11/15 1/12/16
f 2/2/17 8/13/18 6/14/19 4/3/20
f 7/15/21 1/1/22 3/4/23 5/16/24
f 9/17/25 10/18/26 12/19/27 11/20/28
f 11/21/29 12/22/30 14/23/31 13/24/32
f 13/24/33 14/23/34 16/25/35 15/26/36
f 15/26/37 16/25/38 10/27/39 9/28/40
f 10/18/41 16/29/42 14/30/43 12/19/44
f 15/31/45 9/17/46 11/20/47 13/32/48
f 17/33/49 18/34/50 20/35/51 19/36/52
f 19/37/53 20/38/54 22/39/55 21/40/56
f 21/40/57 22/39/58 24/41/59 23/42/60
f 23/42/61 24/41/62 18/43/63 17/44/64
f 18/34/65 24/45/66 22/46/67 20/35/68
f 23/47/69 17/33/70 19/36/71 21/48/72
