# This file uses centimeters as units for non-parametric coordinates.

mtllib PC_All.mtl
g default
v 0.346266 0.035103 0.309243
v 0.344735 0.035103 0.256720
v 0.347709 0.047592 0.302907
v 0.349892 0.049915 0.262846
v 0.316325 0.047592 0.302907
v 0.314213 0.049915 0.262775
v 0.317769 0.035103 0.309173
v 0.319371 0.035103 0.256720
v 0.331991 0.053172 0.306286
v 0.331973 0.035495 0.314806
v 0.332026 0.035434 0.254890
v 0.332026 0.047306 0.251862
v 0.345474 0.035103 0.282560
v 0.348818 0.048780 0.282560
v 0.332008 0.060560 0.282560
v 0.315252 0.048780 0.282560
v 0.318578 0.035103 0.282560
v 0.332008 0.035460 0.282560
vt 0.071632 0.007814
vt 0.072176 0.007814
vt 0.072176 0.008139
vt 0.071632 0.008139
vt 0.072176 0.008744
vt 0.071632 0.008744
vt 0.071632 0.009303
vt 0.072176 0.009303
vt 0.072176 0.009749
vt 0.071278 0.009749
vt 0.071043 0.010161
vt 0.072176 0.010161
vt 0.072176 0.010602
vt 0.071043 0.010602
vt 0.073189 0.007814
vt 0.073700 0.007814
vt 0.073700 0.008139
vt 0.073189 0.008139
vt 0.071156 0.008384
vt 0.071156 0.007814
vt 0.070665 0.007814
vt 0.070665 0.008384
vt 0.074097 0.007814
vt 0.074394 0.008139
vt 0.073189 0.008744
vt 0.072848 0.009303
vt 0.072848 0.009749
vt 0.072848 0.010161
vt 0.072848 0.010602
vn 0.983761 -0.179470 0.002098
vn 0.983761 -0.179470 0.002098
vn 0.983761 -0.179470 0.002098
vn 0.983761 -0.179470 0.002098
vn 0.477633 0.860015 0.179557
vn 0.398538 0.916539 -0.033530
vn 0.000146 0.999531 -0.030637
vn -0.000193 0.978975 0.203980
vn -0.983827 -0.179120 0.001000
vn -0.971458 -0.237210 -0.000591
vn -0.971959 -0.235149 -0.000534
vn -0.983827 -0.179120 0.001000
vn -0.000064 -1.000000 0.000962
vn -0.000014 -1.000000 0.000920
vn -0.026538 -0.999647 0.000899
vn -0.026752 -0.999642 0.000941
vn 0.384244 0.032851 -0.922647
vn 0.001038 0.034333 -0.999410
vn 0.000964 0.034333 -0.999410
vn 0.384244 0.032851 -0.922647
vn -0.000542 0.427189 0.904162
vn -0.000741 0.427189 0.904162
vn 0.334073 0.403359 0.851878
vn 0.334073 0.403360 0.851878
vn -0.337177 0.401456 0.851554
vn -0.000741 0.427189 0.904162
vn -0.000542 0.427189 0.904162
vn -0.337177 0.401456 0.851554
vn 0.026860 -0.999639 0.000983
vn 0.026638 -0.999645 0.000942
vn -0.000014 -1.000000 0.000920
vn -0.000064 -1.000000 0.000962
vn 0.000964 0.034333 -0.999410
vn 0.001038 0.034333 -0.999410
vn -0.383738 0.030547 -0.922937
vn -0.383738 0.030547 -0.922937
vn -0.000193 0.978975 0.203980
vn 0.000146 0.999531 -0.030637
vn -0.399423 0.916143 -0.033827
vn -0.478836 0.859519 0.178726
vn 0.971307 -0.237826 0.000904
vn 0.971819 -0.235726 0.000948
vn 0.958246 -0.285944 -0.000091
vn 0.958246 -0.285944 -0.000091
vn 0.000146 0.999531 -0.030637
vn 0.398538 0.916539 -0.033530
vn 0.312918 0.924988 -0.215591
vn 0.000029 0.973882 -0.227053
vn -0.399423 0.916143 -0.033827
vn 0.000146 0.999531 -0.030637
vn 0.000029 0.973882 -0.227053
vn -0.313411 0.924802 -0.215672
vn -0.971959 -0.235149 -0.000534
vn -0.971458 -0.237210 -0.000591
vn -0.958513 -0.285044 -0.001916
vn -0.958513 -0.285044 -0.001916
vn -0.000014 -1.000000 0.000920
vn 0.026638 -0.999645 0.000942
vn 0.026369 -0.999652 0.000892
vn -0.000017 -1.000000 0.000870
vn -0.026538 -0.999647 0.000899
vn -0.000014 -1.000000 0.000920
vn -0.000017 -1.000000 0.000870
vn -0.026278 -0.999654 0.000848
s off
g PC_Mouse
usemtl blinn2SG
f 1/1/1 13/2/2 14/3/3 3/4/4
f 3/4/5 14/3/6 15/5/7 9/6/8
f 5/7/9 16/8/10 17/9/11 7/10/12
f 10/11/13 18/12/14 13/13/15 1/14/16
f 2/15/17 11/16/18 12/17/19 4/18/20
f 9/19/21 10/20/22 1/1/23 3/4/24
f 7/21/25 10/20/26 9/19/27 5/22/28
f 7/10/29 17/9/30 18/12/31 10/11/32
f 12/17/33 11/16/34 8/23/35 6/24/36
f 9/6/37 15/5/38 16/8/39 5/7/40
f 14/3/41 13/2/42 2/15/43 4/18/44
f 15/5/45 14/3/46 4/18/47 12/25/48
f 16/8/49 15/5/50 12/25/51 6/26/52
f 17/9/53 16/8/54 6/26/55 8/27/56
f 18/12/57 17/9/58 8/27/59 11/28/60
f 13/13/61 18/12/62 11/28/63 2/29/64
g default
v 0.218038 0.034395 0.353318
v 0.218162 0.034395 0.203564
v 0.218038 0.045216 0.353318
v 0.218162 0.045216 0.203564
v -0.267097 0.045216 0.352966
v -0.266974 0.045216 0.203211
v -0.267097 0.034395 0.352966
v -0.266974 0.034395 0.203211
vt 0.053102 0.054167
vt 0.057665 0.054167
vt 0.057665 0.054497
vt 0.053102 0.054497
vt 0.057665 0.069278
vt 0.053102 0.069278
vt 0.057665 0.069608
vt 0.053102 0.069608
vt 0.057665 0.084389
vt 0.053102 0.084389
vt 0.072424 0.054167
vt 0.072424 0.054497
vt 0.038298 0.054167
vt 0.038298 0.054497
vn 1.000000 0.000000 0.000828
vn 1.000000 0.000000 0.000828
vn 1.000000 0.000000 0.000828
vn 1.000000 0.000000 0.000828
vn 0.000000 1.000000 0.000000
vn 0.000000 1.000000 0.000000
vn 0.000000 1.000000 0.000000
vn 0.000000 1.000000 0.000000
vn -1.000000 0.000000 -0.000823
vn -1.000000 0.000000 -0.000823
vn -1.000000 0.000000 -0.000823
vn -1.000000 0.000000 -0.000823
vn 0.000000 -1.000000 0.000000
vn 0.000000 -1.000000 0.000000
vn 0.000000 -1.000000 0.000000
vn 0.000000 -1.000000 0.000000
vn 0.000726 0.000000 -1.000000
vn 0.000726 0.000000 -1.000000
vn 0.000726 0.000000 -1.000000
vn 0.000726 0.000000 -1.000000
vn -0.000726 0.000000 1.000000
vn -0.000726 0.000000 1.000000
vn -0.000726 0.000000 1.000000
vn -0.000726 0.000000 1.000000
s off
g PC_Keyboard
usemtl blinn2SG
f 19/30/65 20/31/66 22/32/67 21/33/68
f 21/33/69 22/32/70 24/34/71 23/35/72
f 23/35/73 24/34/74 26/36/75 25/37/76
f 25/37/77 26/36/78 20/38/79 19/39/80
f 20/31/81 26/40/82 24/41/83 22/32/84
f 25/42/85 19/30/86 21/33/87 23/43/88
g default
v 0.044275 0.042869 0.056152
v 0.038317 0.042869 0.045168
v 0.048898 0.316920 0.076429
v 0.048909 0.316920 0.063833
v 0.005450 0.316920 0.076393
v 0.005461 0.316920 0.063798
v 0.010102 0.042869 0.056124
v 0.016080 0.042869 0.045151
v 0.043148 0.211774 0.075614
v 0.011195 0.211774 0.075588
v 0.005460 0.211774 0.062568
v 0.048906 0.211774 0.062603
v 0.025932 0.042645 0.032902
v 0.197231 0.042645 0.161236
v -0.145576 0.042645 0.160958
v 0.025883 0.042645 0.091871
v 0.196296 0.034084 0.163196
v 0.025930 0.034084 0.034863
v 0.025883 0.034084 0.093831
v -0.144645 0.034084 0.162919
v 0.342634 0.134925 0.123638
v 0.342611 0.134925 0.114835
v 0.338160 0.424561 0.121942
v 0.336031 0.424561 0.109532
v -0.282989 0.424561 0.121438
v -0.281999 0.424561 0.109469
v -0.288509 0.134925 0.123520
v -0.286492 0.134925 0.111544
v 0.027616 0.424561 0.086278
v 0.027125 0.134925 0.082985
v 0.028124 0.134925 0.072595
v 0.027626 0.424561 0.074863
v -0.127743 0.134925 0.086205
v -0.127952 0.424561 0.091051
v -0.124150 0.424561 0.077383
v -0.126231 0.134925 0.075023
v 0.182219 0.424561 0.091302
v 0.180276 0.134925 0.087612
v 0.180767 0.134925 0.078015
v 0.182142 0.424561 0.080376
vt 0.076285 0.007814
vt 0.076690 0.007814
vt 0.076690 0.012983
vt 0.076285 0.012983
vt 0.088731 0.007814
vt 0.089110 0.007814
vt 0.089110 0.009122
vt 0.088731 0.009122
vt 0.088731 0.012294
vt 0.089110 0.012294
vt 0.089110 0.017450
vt 0.088731 0.017450
vt 0.089110 0.018103
vt 0.088731 0.018392
vt 0.077748 0.007814
vt 0.077748 0.012983
vt 0.075182 0.007814
vt 0.075182 0.012983
vt 0.076285 0.016184
vt 0.075182 0.016184
vt 0.077748 0.016184
vt 0.076690 0.016184
vt 0.067932 0.007937
vt 0.070199 0.013257
vt 0.068748 0.014462
vt 0.074216 0.016169
vt 0.078569 0.010079
vt 0.082703 0.007813
vt 0.082703 0.010079
vt 0.086850 0.010079
vt 0.067654 0.007990
vt 0.068471 0.014493
vt 0.070379 0.013109
vt 0.068185 0.007812
vt 0.068711 0.014735
vt 0.074097 0.016424
vt 0.074363 0.015931
vt 0.070367 0.013120
vt 0.057595 0.085117
vt 0.057921 0.085117
vt 0.057921 0.093941
vt 0.057595 0.093941
vt 0.087602 0.007814
vt 0.087949 0.007814
vt 0.087949 0.012582
vt 0.087602 0.012582
vt 0.087602 0.026422
vt 0.087949 0.026422
vt 0.087949 0.035180
vt 0.087602 0.035180
vt 0.087602 0.049113
vt 0.087949 0.049113
vt 0.087949 0.054119
vt 0.087602 0.054119
vt 0.062836 0.085117
vt 0.062836 0.093941
vt 0.052640 0.093941
vt 0.052640 0.085117
vt 0.038298 0.085117
vt 0.043219 0.085117
vt 0.043219 0.093941
vt 0.038298 0.093941
vt 0.087949 0.039865
vt 0.087602 0.039865
vt 0.072182 0.093941
vt 0.072182 0.085117
vt 0.077140 0.085117
vt 0.077140 0.093941
vt 0.087602 0.021844
vt 0.087949 0.021844
vt 0.047950 0.085117
vt 0.047950 0.093941
vt 0.087602 0.017243
vt 0.087949 0.017243
vt 0.067518 0.093941
vt 0.067518 0.085117
vt 0.087949 0.044500
vt 0.087602 0.044500
vn 0.999598 -0.027089 -0.008332
vn 0.999598 -0.027089 -0.008332
vn 0.999598 -0.027089 -0.008332
vn 0.999598 -0.027089 -0.008332
vn 0.000000 1.000000 0.000000
vn 0.000000 1.000000 0.000000
vn 0.000000 1.000000 0.000000
vn 0.000000 1.000000 0.000000
vn -0.995879 -0.027966 0.086271
vn -0.996394 -0.027918 0.080118
vn -0.999582 -0.027089 -0.010083
vn -0.999582 -0.027089 -0.010083
vn 0.000000 -1.000000 0.000000
vn 0.000000 -1.000000 0.000000
vn 0.000000 -1.000000 0.000000
vn 0.000000 -1.000000 0.000000
vn 0.000808 0.102626 -0.994720
vn 0.000808 0.102626 -0.994720
vn 0.000813 0.060828 -0.998148
vn 0.000813 0.060828 -0.998148
vn -0.000810 -0.114471 0.993426
vn -0.000810 -0.114471 0.993426
vn -0.000814 -0.069635 0.997572
vn -0.000814 -0.069635 0.997572
vn -0.000814 -0.069635 0.997572
vn -0.000814 -0.069635 0.997572
vn -0.000817 -0.007703 0.999970
vn -0.000817 -0.007703 0.999970
vn -0.975520 -0.028749 0.218025
vn -0.975520 -0.028749 0.218025
vn -0.996394 -0.027918 0.080118
vn -0.995879 -0.027966 0.086271
vn 0.000813 0.060828 -0.998148
vn 0.000813 0.060828 -0.998148
vn 0.000816 0.011696 -0.999931
vn 0.000816 0.011696 -0.999931
vn 0.995728 -0.027991 0.087994
vn 0.996253 -0.027941 0.081844
vn 0.975143 -0.028805 0.219696
vn 0.975143 -0.028805 0.219696
vn 0.000000 -1.000000 0.000000
vn 0.000000 -1.000000 0.000000
vn 0.000000 -1.000000 0.000000
vn 0.000000 -1.000000 0.000000
vn 0.000000 -1.000000 0.000000
vn 0.000000 -1.000000 0.000000
vn 0.000001 1.000000 -0.000002
vn 0.000000 1.000000 -0.000002
vn 0.000000 1.000000 -0.000002
vn 0.000000 1.000000 -0.000002
vn 0.000000 1.000000 -0.000002
vn -0.000001 1.000000 -0.000002
vn 0.587095 -0.211080 -0.781514
vn 0.587095 -0.211080 -0.781514
vn 0.587095 -0.211080 -0.781514
vn 0.587095 -0.211080 -0.781514
vn -0.366336 0.226639 0.902459
vn -0.366336 0.226639 0.902459
vn -0.366336 0.226639 0.902459
vn -0.366336 0.226639 0.902459
vn -0.585832 -0.211006 -0.782481
vn -0.585832 -0.211006 -0.782481
vn -0.585832 -0.211006 -0.782481
vn -0.585832 -0.211006 -0.782481
vn 0.364861 0.226686 0.903045
vn 0.364861 0.226686 0.903045
vn 0.364861 0.226686 0.903045
vn 0.364861 0.226686 0.903045
vn 0.994738 0.017763 -0.100901
vn 0.994738 0.017763 -0.100901
vn 0.994738 0.017763 -0.100901
vn 0.994738 0.017763 -0.100901
vn -0.000002 1.000000 0.000008
vn -0.000002 1.000000 0.000008
vn -0.000001 1.000000 0.000007
vn -0.000001 1.000000 0.000007
vn -0.992073 0.016254 -0.124610
vn -0.992073 0.016254 -0.124610
vn -0.992073 0.016254 -0.124610
vn -0.992073 0.016254 -0.124610
vn 0.000000 -1.000000 0.000000
vn 0.000000 -1.000000 0.000000
vn 0.000000 -1.000000 0.000000
vn 0.000000 -1.000000 0.000000
vn 0.204538 -0.003135 -0.978854
vn 0.122228 0.002294 -0.992499
vn 0.122840 0.002254 -0.992424
vn 0.204538 -0.003135 -0.978854
vn -0.121451 -0.007997 0.992565
vn -0.120548 -0.008037 0.992675
vn -0.204992 -0.004264 0.978754
vn -0.204992 -0.004264 0.978754
vn 0.209615 -0.006587 0.977762
vn 0.119831 -0.010299 0.992741
vn 0.120146 -0.010286 0.992703
vn 0.209615 -0.006587 0.977762
vn 0.000001 -1.000000 0.000006
vn 0.000001 -1.000000 0.000006
vn 0.000001 -1.000000 0.000004
vn 0.000001 -1.000000 0.000005
vn -0.116631 0.005411 -0.993161
vn -0.117400 0.005391 -0.993070
vn -0.210825 0.002873 -0.977520
vn -0.210825 0.002873 -0.977520
vn 0.000000 1.000000 0.000001
vn 0.000000 1.000000 0.000002
vn 0.000000 1.000000 0.000000
vn 0.000000 1.000000 0.000000
vn 0.120146 -0.010286 0.992703
vn 0.119831 -0.010299 0.992741
vn -0.002652 -0.012997 0.999912
vn -0.002715 -0.012995 0.999912
vn 0.000000 1.000000 0.000004
vn 0.000000 1.000000 0.000004
vn 0.000000 1.000000 0.000002
vn 0.000000 1.000000 0.000001
vn 0.009733 0.007985 -0.999921
vn 0.009787 0.007985 -0.999920
vn -0.117400 0.005391 -0.993070
vn -0.116631 0.005411 -0.993161
vn 0.000001 -1.000000 0.000005
vn 0.000001 -1.000000 0.000004
vn 0.000000 -1.000000 0.000001
vn 0.000000 -1.000000 0.000002
vn -0.002715 -0.012995 0.999912
vn -0.002652 -0.012997 0.999912
vn -0.120548 -0.008037 0.992675
vn -0.121451 -0.007997 0.992565
vn 0.000000 -1.000000 0.000002
vn 0.000000 -1.000000 0.000001
vn 0.000000 -1.000000 0.000000
vn 0.000000 -1.000000 0.000000
vn 0.122840 0.002254 -0.992424
vn 0.122228 0.002294 -0.992499
vn 0.009787 0.007985 -0.999920
vn 0.009733 0.007985 -0.999921
vn -0.000001 1.000000 0.000007
vn -0.000001 1.000000 0.000007
vn 0.000000 1.000000 0.000004
vn 0.000000 1.000000 0.000004
s off
g PC_Monitor
usemtl blinn2SG
f 27/44/89 28/45/90 38/46/91 35/47/92
f 29/48/93 30/49/94 32/50/95 31/51/96
f 36/52/97 37/53/98 34/54/99 33/55/100
f 33/55/101 34/54/102 28/56/103 27/57/104
f 28/45/105 34/58/106 37/59/107 38/46/108
f 33/60/109 27/44/110 35/47/111 36/61/112
f 36/61/113 35/47/114 29/62/115 31/63/116
f 31/51/117 32/50/118 37/53/119 36/52/120
f 38/46/121 37/59/122 32/64/123 30/65/124
f 35/47/125 38/46/126 30/65/127 29/62/128
f 43/66/129 45/67/130 44/68/131
f 45/67/132 46/69/133 44/68/134
f 40/70/135 39/71/136 42/72/137
f 42/72/138 39/71/139 41/73/140
f 40/74/141 43/66/142 44/68/143 39/75/144
f 42/76/145 45/67/146 43/66/147 40/77/148
f 39/78/149 44/68/150 46/69/151 41/79/152
f 41/80/153 46/69/154 45/67/155 42/81/156
f 47/82/157 48/83/158 50/84/159 49/85/160
f 49/86/161 50/87/162 66/88/163 63/89/164
f 51/90/165 52/91/166 54/92/167 53/93/168
f 64/94/169 65/95/170 48/96/171 47/97/172
f 48/83/173 65/98/174 66/99/175 50/84/176
f 63/100/177 64/101/178 47/82/179 49/85/180
f 53/102/181 59/103/182 60/104/183 51/105/184
f 53/93/185 54/92/186 62/106/187 59/107/188
f 61/108/189 62/109/190 54/110/191 52/111/192
f 60/112/193 61/113/194 52/91/195 51/90/196
f 60/104/197 59/103/198 56/114/199 55/115/200
f 55/116/201 58/117/202 61/113/203 60/112/204
f 58/118/205 57/119/206 62/109/207 61/108/208
f 59/107/209 62/106/210 57/120/211 56/121/212
f 55/115/213 56/114/214 64/101/215 63/100/216
f 56/121/217 57/120/218 65/95/219 64/94/220
f 66/99/221 65/98/222 57/119/223 58/118/224
f 63/89/225 66/88/226 58/117/227 55/116/228
g default
v -0.193188 0.033577 0.011425
v -0.193029 0.033577 -0.165999
v -0.193188 0.402924 0.011425
v -0.193029 0.402924 -0.165999
v -0.558932 0.402924 0.011143
v -0.558791 0.402924 -0.166352
v -0.558932 0.033577 0.011143
v -0.558791 0.033577 -0.166352
v -0.492908 0.402924 0.011213
v -0.492908 0.033577 0.011213
v -0.492767 0.033577 -0.166281
v -0.492767 0.402924 -0.166281
v -0.507728 0.033577 0.011143
v -0.507728 0.402924 0.011143
v -0.507588 0.402924 -0.166281
v -0.507588 0.033577 -0.166281
v -0.507306 0.043931 0.006215
v -0.507306 0.392566 0.006215
v -0.493331 0.043931 0.006215
v -0.493331 0.392566 0.006215
v -0.493190 0.392566 -0.161283
v -0.507183 0.392566 -0.161283
v -0.493190 0.043931 -0.161283
v -0.507183 0.043931 -0.161283
vt 0.049840 0.007814
vt 0.055133 0.007814
vt 0.055133 0.019120
vt 0.049840 0.019120
vt 0.055133 0.028301
vt 0.049840 0.028301
vt 0.049840 0.030931
vt 0.055133 0.030931
vt 0.055133 0.042240
vt 0.049840 0.042240
vt 0.049840 0.044262
vt 0.055133 0.044262
vt 0.055133 0.053439
vt 0.049840 0.053439
vt 0.064448 0.007814
vt 0.064448 0.019120
vt 0.040512 0.019120
vt 0.040512 0.007814
vt 0.038298 0.007814
vt 0.039937 0.007814
vt 0.039937 0.019121
vt 0.038298 0.019121
vt 0.055133 0.043808
vt 0.049840 0.043808
vt 0.065022 0.019110
vt 0.065022 0.007814
vt 0.066658 0.007814
vt 0.066658 0.019110
vt 0.049840 0.029363
vt 0.055133 0.029363
vt 0.039937 0.018808
vt 0.039937 0.008195
vt 0.040512 0.008195
vt 0.040512 0.018808
vt 0.049840 0.028618
vt 0.055133 0.028618
vt 0.055133 0.029046
vt 0.049840 0.029046
vt 0.064448 0.018795
vt 0.064448 0.008174
vt 0.065022 0.008174
vt 0.065022 0.018795
vn 1.000000 0.000000 0.000896
vn 1.000000 0.000000 0.000896
vn 1.000000 0.000000 0.000896
vn 1.000000 0.000000 0.000896
vn 0.000000 1.000000 0.000000
vn 0.000000 1.000000 0.000000
vn 0.000000 1.000000 0.000000
vn 0.000000 1.000000 0.000000
vn -1.000000 0.000000 -0.000793
vn -1.000000 0.000000 -0.000793
vn -1.000000 0.000000 -0.000793
vn -1.000000 0.000000 -0.000793
vn 0.000000 -1.000000 0.000000
vn 0.000000 -1.000000 0.000000
vn 0.000000 -1.000000 0.000000
vn 0.000000 -1.000000 0.000000
vn 0.000940 0.000000 -1.000000
vn 0.000940 0.000000 -1.000000
vn 0.000940 0.000000 -1.000000
vn 0.000940 0.000000 -1.000000
vn -0.000705 0.000000 1.000000
vn -0.000705 0.000000 1.000000
vn -0.000705 0.000000 1.000000
vn -0.000705 0.000000 1.000000
vn 0.000000 0.000000 1.000000
vn 0.000000 0.000000 1.000000
vn 0.000000 0.000000 1.000000
vn 0.000000 0.000000 1.000000
vn 0.000000 -1.000000 0.000000
vn 0.000000 -1.000000 0.000000
vn 0.000000 -1.000000 0.000000
vn 0.000000 -1.000000 0.000000
vn 0.001375 0.000000 -0.999999
vn 0.001375 0.000000 -0.999999
vn 0.001375 0.000000 -0.999999
vn 0.001375 0.000000 -0.999999
vn 0.000000 1.000000 0.000000
vn 0.000000 1.000000 0.000000
vn 0.000000 1.000000 0.000000
vn 0.000000 1.000000 0.000000
vn 0.000000 0.000000 1.000000
vn 0.000000 0.000000 1.000000
vn 0.000000 0.000000 1.000000
vn 0.000000 0.000000 1.000000
vn 0.000000 1.000000 0.000000
vn 0.000000 1.000000 0.000000
vn 0.000000 1.000000 0.000000
vn 0.000000 1.000000 0.000000
vn 0.000000 0.000000 -1.000000
vn 0.000000 0.000000 -1.000000
vn 0.000000 0.000000 -1.000000
vn 0.000000 0.000000 -1.000000
vn 0.000000 -1.000000 0.000000
vn 0.000000 -1.000000 0.000000
vn 0.000000 -1.000000 0.000000
vn 0.000000 -1.000000 0.000000
vn 0.996347 0.000000 0.085401
vn 0.996347 0.000000 0.085401
vn 0.996347 0.000000 0.085401
vn 0.996347 0.000000 0.085401
vn -0.002205 0.432281 0.901736
vn -0.002205 0.432281 0.901736
vn -0.002205 0.432281 0.901736
vn -0.002205 0.432281 0.901736
vn -0.996448 0.000000 0.084207
vn -0.996448 0.000000 0.084207
vn -0.996448 0.000000 0.084207
vn -0.996448 0.000000 0.084207
vn -0.999169 0.040744 -0.000816
vn -0.999169 0.040744 -0.000816
vn -0.999169 0.040744 -0.000816
vn -0.999169 0.040744 -0.000816
vn 0.999203 0.039901 0.000765
vn 0.999203 0.039901 0.000765
vn 0.999203 0.039901 0.000765
vn 0.999203 0.039901 0.000765
vn -0.996448 0.000000 -0.084207
vn -0.996448 0.000000 -0.084207
vn -0.996448 0.000000 -0.084207
vn -0.996448 0.000000 -0.084207
vn 0.000000 0.434771 -0.900541
vn 0.000000 0.434771 -0.900541
vn 0.000000 0.434770 -0.900542
vn 0.000000 0.434771 -0.900541
vn 0.996737 0.000000 -0.080722
vn 0.996737 0.000000 -0.080722
vn 0.996737 0.000000 -0.080722
vn 0.996737 0.000000 -0.080722
s off
g PC_Case
usemtl blinn2SG
f 67/122/229 68/123/230 70/124/231 69/125/232
f 69/125/233 70/124/234 78/126/235 75/127/236
f 71/128/237 72/129/238 74/130/239 73/131/240
f 76/132/241 77/133/242 68/134/243 67/135/244
f 68/123/245 77/136/246 78/137/247 70/124/248
f 75/138/249 76/139/250 67/122/251 69/125/252
f 73/140/253 79/141/254 80/142/255 71/143/256
f 73/131/257 74/130/258 82/144/259 79/145/260
f 81/146/261 82/147/262 74/148/263 72/149/264
f 80/150/265 81/151/266 72/129/267 71/128/268
f 84/152/269 83/153/270 85/154/271 86/155/272
f 86/156/273 87/157/274 88/158/275 84/159/276
f 87/160/277 89/161/278 90/162/279 88/163/280
f 79/145/281 82/144/282 77/133/283 76/132/284
f 80/142/285 79/141/286 83/153/287 84/152/288
f 79/141/289 76/139/290 85/154/291 83/153/292
f 76/139/293 75/138/294 86/155/295 85/154/296
f 75/127/297 78/126/298 87/157/299 86/156/300
f 81/151/301 80/150/302 84/159/303 88/158/304
f 78/137/305 77/136/306 89/161/307 87/160/308
f 77/136/309 82/147/310 90/162/311 89/161/312
f 82/147/313 81/146/314 88/163/315 90/162/316
