# This file uses centimeters as units for non-parametric coordinates.

mtllib Light_Neon_Class01.mtl
g default
v -5.870579 2.346655 12.668909
v -4.431529 2.346655 12.668909
v -5.870579 2.371149 12.668909
v -4.431529 2.371149 12.668909
v -5.870579 2.371149 12.642036
v -4.431529 2.371149 12.642036
v -5.870579 2.346655 12.642036
v -4.431529 2.346655 12.642036
v -3.836480 2.346655 12.668909
v -2.397430 2.346655 12.668909
v -3.836480 2.371149 12.668909
v -2.397430 2.371149 12.668909
v -3.836480 2.371149 12.642036
v -2.397430 2.371149 12.642036
v -3.836480 2.346655 12.642036
v -2.397430 2.346655 12.642036
v -2.103034 2.346655 11.201396
v -2.103034 2.346655 9.762345
v -2.103034 2.371149 11.201396
v -2.103034 2.371149 9.762345
v -2.129907 2.371149 11.201396
v -2.129907 2.371149 9.762345
v -2.129907 2.346655 11.201396
v -2.129907 2.346655 9.762345
v -2.103034 2.346655 8.536556
v -2.103034 2.346655 7.097506
v -2.103034 2.371149 8.536556
v -2.103034 2.371149 7.097506
v -2.129907 2.371149 8.536556
v -2.129907 2.371149 7.097506
v -2.129907 2.346655 8.536556
v -2.129907 2.346655 7.097506
v -3.836480 2.346655 5.242738
v -2.397430 2.346655 5.242738
v -3.836480 2.371149 5.242738
v -2.397430 2.371149 5.242738
v -3.836480 2.371149 5.215866
v -2.397430 2.371149 5.215866
v -3.836480 2.346655 5.215866
v -2.397430 2.346655 5.215866
v -5.870579 2.346655 5.242738
v -4.431529 2.346655 5.242738
v -5.870579 2.371149 5.242738
v -4.431529 2.371149 5.242738
v -5.870579 2.371149 5.215866
v -4.431529 2.371149 5.215866
v -5.870579 2.346655 5.215866
v -4.431529 2.346655 5.215866
vt 0.227333 0.417378
vt 0.227333 0.015260
vt 0.234175 0.015260
vt 0.234175 0.417378
vt 0.241686 0.015260
vt 0.241686 0.417378
vt 0.248528 0.015260
vt 0.248528 0.417378
vt 0.256039 0.015260
vt 0.256039 0.417378
vt 0.227333 0.007813
vt 0.234175 0.007813
vt 0.227333 0.424953
vt 0.234175 0.424953
vt 0.189485 0.417376
vt 0.189485 0.015260
vt 0.196326 0.015260
vt 0.196326 0.417376
vt 0.203838 0.015260
vt 0.203838 0.417376
vt 0.210680 0.015260
vt 0.210680 0.417376
vt 0.218191 0.015260
vt 0.218191 0.417376
vt 0.189485 0.007813
vt 0.196326 0.007813
vt 0.189485 0.424952
vt 0.196326 0.424952
vt 0.795060 0.417314
vt 0.795060 0.015258
vt 0.801910 0.015258
vt 0.801910 0.417314
vt 0.809420 0.015258
vt 0.809420 0.417314
vt 0.816261 0.015258
vt 0.816261 0.417314
vt 0.823770 0.015258
vt 0.823770 0.417314
vt 0.795060 0.007813
vt 0.801910 0.007813
vt 0.795060 0.424878
vt 0.801910 0.424878
vt 0.605818 0.417385
vt 0.605818 0.015259
vt 0.612660 0.015259
vt 0.612660 0.417385
vt 0.620171 0.015259
vt 0.620171 0.417385
vt 0.627013 0.015259
vt 0.627013 0.417385
vt 0.634523 0.015259
vt 0.634523 0.417385
vt 0.605818 0.007813
vt 0.612660 0.007813
vt 0.605818 0.424951
vt 0.612660 0.424951
vt 0.719363 0.417364
vt 0.719363 0.015259
vt 0.726205 0.015259
vt 0.726205 0.417364
vt 0.733717 0.015259
vt 0.733717 0.417364
vt 0.740559 0.015259
vt 0.740559 0.417364
vt 0.748069 0.015259
vt 0.748069 0.417364
vt 0.719363 0.007813
vt 0.726205 0.007813
vt 0.719363 0.424940
vt 0.726205 0.424940
vt 0.810199 0.834548
vt 0.810199 0.432444
vt 0.817041 0.432444
vt 0.817041 0.834548
vt 0.824552 0.432444
vt 0.824552 0.834548
vt 0.831394 0.432444
vt 0.831394 0.834548
vt 0.838906 0.432444
vt 0.838906 0.834548
vt 0.810199 0.424997
vt 0.817041 0.424997
vt 0.810199 0.842114
vt 0.817041 0.842114
vn 0.000000 0.000000 1.000000
vn 0.000000 0.000000 1.000000
vn 0.000000 0.000000 1.000000
vn 0.000000 0.000000 1.000000
vn 0.000000 1.000000 0.000000
vn 0.000000 1.000000 0.000000
vn 0.000000 1.000000 0.000000
vn 0.000000 1.000000 0.000000
vn 0.000000 0.000000 -1.000000
vn 0.000000 0.000000 -1.000000
vn 0.000000 0.000000 -1.000000
vn 0.000000 0.000000 -1.000000
vn 0.000000 -1.000000 0.000000
vn 0.000000 -1.000000 0.000000
vn 0.000000 -1.000000 0.000000
vn 0.000000 -1.000000 0.000000
vn 1.000000 0.000000 0.000000
vn 1.000000 0.000000 0.000000
vn 1.000000 0.000000 0.000000
vn 1.000000 0.000000 0.000000
vn -1.000000 0.000000 0.000000
vn -1.000000 0.000000 0.000000
vn -1.000000 0.000000 0.000000
vn -1.000000 0.000000 0.000000
vn 0.000000 0.000000 1.000000
vn 0.000000 0.000000 1.000000
vn 0.000000 0.000000 1.000000
vn 0.000000 0.000000 1.000000
vn 0.000000 1.000000 0.000000
vn 0.000000 1.000000 0.000000
vn 0.000000 1.000000 0.000000
vn 0.000000 1.000000 0.000000
vn 0.000000 0.000000 -1.000000
vn 0.000000 0.000000 -1.000000
vn 0.000000 0.000000 -1.000000
vn 0.000000 0.000000 -1.000000
vn 0.000000 -1.000000 0.000000
vn 0.000000 -1.000000 0.000000
vn 0.000000 -1.000000 0.000000
vn 0.000000 -1.000000 0.000000
vn 1.000000 0.000000 0.000000
vn 1.000000 0.000000 0.000000
vn 1.000000 0.000000 0.000000
vn 1.000000 0.000000 0.000000
vn -1.000000 0.000000 0.000000
vn -1.000000 0.000000 0.000000
vn -1.000000 0.000000 0.000000
vn -1.000000 0.000000 0.000000
vn 1.000000 0.000000 0.000000
vn 1.000000 0.000000 0.000000
vn 1.000000 0.000000 0.000000
vn 1.000000 0.000000 0.000000
vn 0.000000 1.000000 0.000000
vn 0.000000 1.000000 0.000000
vn 0.000000 1.000000 0.000000
vn 0.000000 1.000000 0.000000
vn -1.000000 0.000000 0.000000
vn -1.000000 0.000000 0.000000
vn -1.000000 0.000000 0.000000
vn -1.000000 0.000000 0.000000
vn 0.000000 -1.000000 0.000000
vn 0.000000 -1.000000 0.000000
vn 0.000000 -1.000000 0.000000
vn 0.000000 -1.000000 0.000000
vn 0.000000 0.000000 -1.000000
vn 0.000000 0.000000 -1.000000
vn 0.000000 0.000000 -1.000000
vn 0.000000 0.000000 -1.000000
vn 0.000000 0.000000 1.000000
vn 0.000000 0.000000 1.000000
vn 0.000000 0.000000 1.000000
vn 0.000000 0.000000 1.000000
vn 1.000000 0.000000 0.000000
vn 1.000000 0.000000 0.000000
vn 1.000000 0.000000 0.000000
vn 1.000000 0.000000 0.000000
vn 0.000000 1.000000 0.000000
vn 0.000000 1.000000 0.000000
vn 0.000000 1.000000 0.000000
vn 0.000000 1.000000 0.000000
vn -1.000000 0.000000 0.000000
vn -1.000000 0.000000 0.000000
vn -1.000000 0.000000 0.000000
vn -1.000000 0.000000 0.000000
vn 0.000000 -1.000000 0.000000
vn 0.000000 -1.000000 0.000000
vn 0.000000 -1.000000 0.000000
vn 0.000000 -1.000000 0.000000
vn 0.000000 0.000000 -1.000000
vn 0.000000 0.000000 -1.000000
vn 0.000000 0.000000 -1.000000
vn 0.000000 0.000000 -1.000000
vn 0.000000 0.000000 1.000000
vn 0.000000 0.000000 1.000000
vn 0.000000 0.000000 1.000000
vn 0.000000 0.000000 1.000000
vn 0.000000 0.000000 1.000000
vn 0.000000 0.000000 1.000000
vn 0.000000 0.000000 1.000000
vn 0.000000 0.000000 1.000000
vn 0.000000 1.000000 0.000000
vn 0.000000 1.000000 0.000000
vn 0.000000 1.000000 0.000000
vn 0.000000 1.000000 0.000000
vn 0.000000 0.000000 -1.000000
vn 0.000000 0.000000 -1.000000
vn 0.000000 0.000000 -1.000000
vn 0.000000 0.000000 -1.000000
vn 0.000000 -1.000000 0.000000
vn 0.000000 -1.000000 0.000000
vn 0.000000 -1.000000 0.000000
vn 0.000000 -1.000000 0.000000
vn 1.000000 0.000000 0.000000
vn 1.000000 0.000000 0.000000
vn 1.000000 0.000000 0.000000
vn 1.000000 0.000000 0.000000
vn -1.000000 0.000000 0.000000
vn -1.000000 0.000000 0.000000
vn -1.000000 0.000000 0.000000
vn -1.000000 0.000000 0.000000
vn 0.000000 0.000000 1.000000
vn 0.000000 0.000000 1.000000
vn 0.000000 0.000000 1.000000
vn 0.000000 0.000000 1.000000
vn 0.000000 1.000000 0.000000
vn 0.000000 1.000000 0.000000
vn 0.000000 1.000000 0.000000
vn 0.000000 1.000000 0.000000
vn 0.000000 0.000000 -1.000000
vn 0.000000 0.000000 -1.000000
vn 0.000000 0.000000 -1.000000
vn 0.000000 0.000000 -1.000000
vn 0.000000 -1.000000 0.000000
vn 0.000000 -1.000000 0.000000
vn 0.000000 -1.000000 0.000000
vn 0.000000 -1.000000 0.000000
vn 1.000000 0.000000 0.000000
vn 1.000000 0.000000 0.000000
vn 1.000000 0.000000 0.000000
vn 1.000000 0.000000 0.000000
vn -1.000000 0.000000 0.000000
vn -1.000000 0.000000 0.000000
vn -1.000000 0.000000 0.000000
vn -1.000000 0.000000 0.000000
s off
g Light_Neon_Class01
usemtl blinn8SG
f 1/1/1 2/2/2 4/3/3 3/4/4
f 3/4/5 4/3/6 6/5/7 5/6/8
f 5/6/9 6/5/10 8/7/11 7/8/12
f 7/8/13 8/7/14 2/9/15 1/10/16
f 2/2/17 8/11/18 6/12/19 4/3/20
f 7/13/21 1/1/22 3/4/23 5/14/24
f 9/15/25 10/16/26 12/17/27 11/18/28
f 11/18/29 12/17/30 14/19/31 13/20/32
f 13/20/33 14/19/34 16/21/35 15/22/36
f 15/22/37 16/21/38 10/23/39 9/24/40
f 10/16/41 16/25/42 14/26/43 12/17/44
f 15/27/45 9/15/46 11/18/47 13/28/48
f 17/29/49 18/30/50 20/31/51 19/32/52
f 19/32/53 20/31/54 22/33/55 21/34/56
f 21/34/57 22/33/58 24/35/59 23/36/60
f 23/36/61 24/35/62 18/37/63 17/38/64
f 18/30/65 24/39/66 22/40/67 20/31/68
f 23/41/69 17/29/70 19/32/71 21/42/72
f 25/43/73 26/44/74 28/45/75 27/46/76
f 27/46/77 28/45/78 30/47/79 29/48/80
f 29/48/81 30/47/82 32/49/83 31/50/84
f 31/50/85 32/49/86 26/51/87 25/52/88
f 26/44/89 32/53/90 30/54/91 28/45/92
f 31/55/93 25/43/94 27/46/95 29/56/96
f 33/57/97 34/58/98 36/59/99 35/60/100
f 35/60/101 36/59/102 38/61/103 37/62/104
f 37/62/105 38/61/106 40/63/107 39/64/108
f 39/64/109 40/63/110 34/65/111 33/66/112
f 34/58/113 40/67/114 38/68/115 36/59/116
f 39/69/117 33/57/118 35/60/119 37/70/120
f 41/71/121 42/72/122 44/73/123 43/74/124
f 43/74/125 44/73/126 46/75/127 45/76/128
f 45/76/129 46/75/130 48/77/131 47/78/132
f 47/78/133 48/77/134 42/79/135 41/80/136
f 42/72/137 48/81/138 46/82/139 44/73/140
f 47/83/141 41/71/142 43/74/143 45/84/144
