# This file uses centimeters as units for non-parametric coordinates.

mtllib Light_Neon_Lab01_Lab02.mtl
g default
v 3.785447 2.346655 6.457470
v 5.224497 2.346655 6.457470
v 3.785447 2.371149 6.457470
v 5.224497 2.371149 6.457470
v 3.785447 2.371149 6.430598
v 5.224497 2.371149 6.430598
v 3.785447 2.346655 6.430598
v 5.224497 2.346655 6.430598
v 1.751348 2.346655 6.457470
v 3.190398 2.346655 6.457470
v 1.751348 2.371149 6.457470
v 3.190398 2.371149 6.457470
v 1.751348 2.371149 6.430598
v 3.190398 2.371149 6.430598
v 1.751348 2.346655 6.430598
v 3.190398 2.346655 6.430598
v 3.834514 2.346655 3.473684
v 5.273564 2.346655 3.473684
v 3.834514 2.371149 3.473684
v 5.273564 2.371149 3.473684
v 3.834514 2.371149 3.446812
v 5.273564 2.371149 3.446812
v 3.834514 2.346655 3.446812
v 5.273564 2.346655 3.446812
v 1.751348 2.346655 3.473684
v 3.190398 2.346655 3.473684
v 1.751348 2.371149 3.473684
v 3.190398 2.371149 3.473684
v 1.751348 2.371149 3.446812
v 3.190398 2.371149 3.446812
v 1.751348 2.346655 3.446812
v 3.190398 2.346655 3.446812
v 1.751348 2.346655 1.728311
v 3.190398 2.346655 1.728311
v 1.751348 2.371149 1.728311
v 3.190398 2.371149 1.728311
v 1.751348 2.371149 1.701438
v 3.190398 2.371149 1.701438
v 1.751348 2.346655 1.701438
v 3.190398 2.346655 1.701438
v 1.751348 2.346655 1.728311
v 3.190398 2.346655 1.728311
v 1.751348 2.371149 1.728311
v 3.190398 2.371149 1.728311
v 1.751348 2.371149 1.701438
v 3.190398 2.371149 1.701438
v 1.751348 2.346655 1.701438
v 3.190398 2.346655 1.701438
v 3.834514 2.346655 1.728311
v 5.273564 2.346655 1.728311
v 3.834514 2.371149 1.728311
v 5.273564 2.371149 1.728311
v 3.834514 2.371149 1.701438
v 5.273564 2.371149 1.701438
v 3.834514 2.346655 1.701438
v 5.273564 2.346655 1.701438
vt 0.492272 0.417374
vt 0.492272 0.015259
vt 0.499114 0.015259
vt 0.499114 0.417374
vt 0.506625 0.015259
vt 0.506625 0.417374
vt 0.513467 0.015259
vt 0.513467 0.417374
vt 0.520978 0.015259
vt 0.520978 0.417374
vt 0.492272 0.007813
vt 0.499114 0.007813
vt 0.492272 0.424950
vt 0.499114 0.424950
vt 0.567969 0.417375
vt 0.567969 0.015260
vt 0.574811 0.015260
vt 0.574811 0.417375
vt 0.582322 0.015260
vt 0.582322 0.417375
vt 0.589164 0.015260
vt 0.589164 0.417375
vt 0.596675 0.015260
vt 0.596675 0.417375
vt 0.567969 0.007813
vt 0.574811 0.007813
vt 0.567969 0.424950
vt 0.574811 0.424950
vt 0.772351 0.834566
vt 0.772351 0.432447
vt 0.779202 0.432447
vt 0.779202 0.834566
vt 0.786704 0.432447
vt 0.786704 0.834566
vt 0.793555 0.432447
vt 0.793555 0.834566
vt 0.801056 0.432447
vt 0.801056 0.834566
vt 0.772351 0.425001
vt 0.779202 0.425001
vt 0.772351 0.842132
vt 0.779202 0.842132
vt 0.961593 0.834494
vt 0.961593 0.432382
vt 0.968435 0.432382
vt 0.968435 0.834494
vt 0.975946 0.432382
vt 0.975946 0.834494
vt 0.982788 0.432382
vt 0.982788 0.834494
vt 0.990299 0.432382
vt 0.990299 0.834494
vt 0.961593 0.424935
vt 0.968435 0.424935
vt 0.961593 0.842059
vt 0.968435 0.842059
vt 0.340879 0.417355
vt 0.340879 0.015260
vt 0.347730 0.015260
vt 0.347730 0.417355
vt 0.355233 0.015260
vt 0.355233 0.417355
vt 0.362083 0.015260
vt 0.362083 0.417355
vt 0.369586 0.015260
vt 0.369586 0.417355
vt 0.340879 0.007813
vt 0.347730 0.007813
vt 0.340879 0.424931
vt 0.347730 0.424931
vt 0.757212 0.417365
vt 0.757212 0.015259
vt 0.764063 0.015259
vt 0.764063 0.417365
vt 0.771565 0.015259
vt 0.771565 0.417365
vt 0.778417 0.015259
vt 0.778417 0.417365
vt 0.785918 0.015259
vt 0.785918 0.417365
vt 0.757212 0.007813
vt 0.764063 0.007813
vt 0.757212 0.424931
vt 0.764063 0.424931
vt 0.454424 0.417377
vt 0.454424 0.015260
vt 0.461266 0.015260
vt 0.461266 0.417377
vt 0.468777 0.015260
vt 0.468777 0.417377
vt 0.475619 0.015260
vt 0.475619 0.417377
vt 0.483130 0.015260
vt 0.483130 0.417377
vt 0.454424 0.007813
vt 0.461266 0.007813
vt 0.454424 0.424944
vt 0.461266 0.424944
vn 0.000000 0.000000 1.000000
vn 0.000000 0.000000 1.000000
vn 0.000000 0.000000 1.000000
vn 0.000000 0.000000 1.000000
vn 0.000000 1.000000 0.000000
vn 0.000000 1.000000 0.000000
vn 0.000000 1.000000 0.000000
vn 0.000000 1.000000 0.000000
vn 0.000000 0.000000 -1.000000
vn 0.000000 0.000000 -1.000000
vn 0.000000 0.000000 -1.000000
vn 0.000000 0.000000 -1.000000
vn 0.000000 -1.000000 0.000000
vn 0.000000 -1.000000 0.000000
vn 0.000000 -1.000000 0.000000
vn 0.000000 -1.000000 0.000000
vn 1.000000 0.000000 0.000000
vn 1.000000 0.000000 0.000000
vn 1.000000 0.000000 0.000000
vn 1.000000 0.000000 0.000000
vn -1.000000 0.000000 0.000000
vn -1.000000 0.000000 0.000000
vn -1.000000 0.000000 0.000000
vn -1.000000 0.000000 0.000000
vn 0.000000 0.000000 1.000000
vn 0.000000 0.000000 1.000000
vn 0.000000 0.000000 1.000000
vn 0.000000 0.000000 1.000000
vn 0.000000 1.000000 0.000000
vn 0.000000 1.000000 0.000000
vn 0.000000 1.000000 0.000000
vn 0.000000 1.000000 0.000000
vn 0.000000 0.000000 -1.000000
vn 0.000000 0.000000 -1.000000
vn 0.000000 0.000000 -1.000000
vn 0.000000 0.000000 -1.000000
vn 0.000000 -1.000000 0.000000
vn 0.000000 -1.000000 0.000000
vn 0.000000 -1.000000 0.000000
vn 0.000000 -1.000000 0.000000
vn 1.000000 0.000000 0.000000
vn 1.000000 0.000000 0.000000
vn 1.000000 0.000000 0.000000
vn 1.000000 0.000000 0.000000
vn -1.000000 0.000000 0.000000
vn -1.000000 0.000000 0.000000
vn -1.000000 0.000000 0.000000
vn -1.000000 0.000000 0.000000
vn 0.000000 0.000000 1.000000
vn 0.000000 0.000000 1.000000
vn 0.000000 0.000000 1.000000
vn 0.000000 0.000000 1.000000
vn 0.000000 1.000000 0.000000
vn 0.000000 1.000000 0.000000
vn 0.000000 1.000000 0.000000
vn 0.000000 1.000000 0.000000
vn 0.000000 0.000000 -1.000000
vn 0.000000 0.000000 -1.000000
vn 0.000000 0.000000 -1.000000
vn 0.000000 0.000000 -1.000000
vn 0.000000 -1.000000 0.000000
vn 0.000000 -1.000000 0.000000
vn 0.000000 -1.000000 0.000000
vn 0.000000 -1.000000 0.000000
vn 1.000000 0.000000 0.000000
vn 1.000000 0.000000 0.000000
vn 1.000000 0.000000 0.000000
vn 1.000000 0.000000 0.000000
vn -1.000000 0.000000 0.000000
vn -1.000000 0.000000 0.000000
vn -1.000000 0.000000 0.000000
vn -1.000000 0.000000 0.000000
vn 0.000000 0.000000 1.000000
vn 0.000000 0.000000 1.000000
vn 0.000000 0.000000 1.000000
vn 0.000000 0.000000 1.000000
vn 0.000000 1.000000 0.000000
vn 0.000000 1.000000 0.000000
vn 0.000000 1.000000 0.000000
vn 0.000000 1.000000 0.000000
vn 0.000000 0.000000 -1.000000
vn 0.000000 0.000000 -1.000000
vn 0.000000 0.000000 -1.000000
vn 0.000000 0.000000 -1.000000
vn 0.000000 -1.000000 0.000000
vn 0.000000 -1.000000 0.000000
vn 0.000000 -1.000000 0.000000
vn 0.000000 -1.000000 0.000000
vn 1.000000 0.000000 0.000000
vn 1.000000 0.000000 0.000000
vn 1.000000 0.000000 0.000000
vn 1.000000 0.000000 0.000000
vn -1.000000 0.000000 0.000000
vn -1.000000 0.000000 0.000000
vn -1.000000 0.000000 0.000000
vn -1.000000 0.000000 0.000000
vn 0.000000 0.000000 1.000000
vn 0.000000 0.000000 1.000000
vn 0.000000 0.000000 1.000000
vn 0.000000 0.000000 1.000000
vn 0.000000 1.000000 0.000000
vn 0.000000 1.000000 0.000000
vn 0.000000 1.000000 0.000000
vn 0.000000 1.000000 0.000000
vn 0.000000 0.000000 -1.000000
vn 0.000000 0.000000 -1.000000
vn 0.000000 0.000000 -1.000000
vn 0.000000 0.000000 -1.000000
vn 0.000000 -1.000000 0.000000
vn 0.000000 -1.000000 0.000000
vn 0.000000 -1.000000 0.000000
vn 0.000000 -1.000000 0.000000
vn 1.000000 0.000000 0.000000
vn 1.000000 0.000000 0.000000
vn 1.000000 0.000000 0.000000
vn 1.000000 0.000000 0.000000
vn -1.000000 0.000000 0.000000
vn -1.000000 0.000000 0.000000
vn -1.000000 0.000000 0.000000
vn -1.000000 0.000000 0.000000
vn 0.000000 0.000000 1.000000
vn 0.000000 0.000000 1.000000
vn 0.000000 0.000000 1.000000
vn 0.000000 0.000000 1.000000
vn 0.000000 1.000000 0.000000
vn 0.000000 1.000000 0.000000
vn 0.000000 1.000000 0.000000
vn 0.000000 1.000000 0.000000
vn 0.000000 0.000000 -1.000000
vn 0.000000 0.000000 -1.000000
vn 0.000000 0.000000 -1.000000
vn 0.000000 0.000000 -1.000000
vn 0.000000 -1.000000 0.000000
vn 0.000000 -1.000000 0.000000
vn 0.000000 -1.000000 0.000000
vn 0.000000 -1.000000 0.000000
vn 1.000000 0.000000 0.000000
vn 1.000000 0.000000 0.000000
vn 1.000000 0.000000 0.000000
vn 1.000000 0.000000 0.000000
vn -1.000000 0.000000 0.000000
vn -1.000000 0.000000 0.000000
vn -1.000000 0.000000 0.000000
vn -1.000000 0.000000 0.000000
vn 0.000000 0.000000 1.000000
vn 0.000000 0.000000 1.000000
vn 0.000000 0.000000 1.000000
vn 0.000000 0.000000 1.000000
vn 0.000000 1.000000 0.000000
vn 0.000000 1.000000 0.000000
vn 0.000000 1.000000 0.000000
vn 0.000000 1.000000 0.000000
vn 0.000000 0.000000 -1.000000
vn 0.000000 0.000000 -1.000000
vn 0.000000 0.000000 -1.000000
vn 0.000000 0.000000 -1.000000
vn 0.000000 -1.000000 0.000000
vn 0.000000 -1.000000 0.000000
vn 0.000000 -1.000000 0.000000
vn 0.000000 -1.000000 0.000000
vn 1.000000 0.000000 0.000000
vn 1.000000 0.000000 0.000000
vn 1.000000 0.000000 0.000000
vn 1.000000 0.000000 0.000000
vn -1.000000 0.000000 0.000000
vn -1.000000 0.000000 0.000000
vn -1.000000 0.000000 0.000000
vn -1.000000 0.000000 0.000000
s off
g Light_Neon_Lab01_Lab02
usemtl blinn8SG
f 1/1/1 2/2/2 4/3/3 3/4/4
f 3/4/5 4/3/6 6/5/7 5/6/8
f 5/6/9 6/5/10 8/7/11 7/8/12
f 7/8/13 8/7/14 2/9/15 1/10/16
f 2/2/17 8/11/18 6/12/19 4/3/20
f 7/13/21 1/1/22 3/4/23 5/14/24
f 9/15/25 10/16/26 12/17/27 11/18/28
f 11/18/29 12/17/30 14/19/31 13/20/32
f 13/20/33 14/19/34 16/21/35 15/22/36
f 15/22/37 16/21/38 10/23/39 9/24/40
f 10/16/41 16/25/42 14/26/43 12/17/44
f 15/27/45 9/15/46 11/18/47 13/28/48
f 17/29/49 18/30/50 20/31/51 19/32/52
f 19/32/53 20/31/54 22/33/55 21/34/56
f 21/34/57 22/33/58 24/35/59 23/36/60
f 23/36/61 24/35/62 18/37/63 17/38/64
f 18/30/65 24/39/66 22/40/67 20/31/68
f 23/41/69 17/29/70 19/32/71 21/42/72
f 25/43/73 26/44/74 28/45/75 27/46/76
f 27/46/77 28/45/78 30/47/79 29/48/80
f 29/48/81 30/47/82 32/49/83 31/50/84
f 31/50/85 32/49/86 26/51/87 25/52/88
f 26/44/89 32/53/90 30/54/91 28/45/92
f 31/55/93 25/43/94 27/46/95 29/56/96
f 33/57/97 34/58/98 36/59/99 35/60/100
f 35/60/101 36/59/102 38/61/103 37/62/104
f 37/62/105 38/61/106 40/63/107 39/64/108
f 39/64/109 40/63/110 34/65/111 33/66/112
f 34/58/113 40/67/114 38/68/115 36/59/116
f 39/69/117 33/57/118 35/60/119 37/70/120
f 41/71/121 42/72/122 44/73/123 43/74/124
f 43/74/125 44/73/126 46/75/127 45/76/128
f 45/76/129 46/75/130 48/77/131 47/78/132
f 47/78/133 48/77/134 42/79/135 41/80/136
f 42/72/137 48/81/138 46/82/139 44/73/140
f 47/83/141 41/71/142 43/74/143 45/84/144
f 49/85/145 50/86/146 52/87/147 51/88/148
f 51/88/149 52/87/150 54/89/151 53/90/152
f 53/90/153 54/89/154 56/91/155 55/92/156
f 55/92/157 56/91/158 50/93/159 49/94/160
f 50/86/161 56/95/162 54/96/163 52/87/164
f 55/97/165 49/85/166 51/88/167 53/98/168
