# This file uses centimeters as units for non-parametric coordinates.

mtllib Light_Neon_Corridor.mtl
g default
v -2.199131 2.236273 -6.685813
v -2.258352 2.236273 -6.685813
v -2.287963 2.236273 -6.634524
v -2.258352 2.236273 -6.583239
v -2.199131 2.236273 -6.583239
v -2.169521 2.236273 -6.634524
v -2.199131 2.251487 -6.685813
v -2.258352 2.251487 -6.685813
v -2.287963 2.251487 -6.634524
v -2.258352 2.251487 -6.583239
v -2.199131 2.251487 -6.583239
v -2.169521 2.251487 -6.634524
v -2.228742 2.236273 -6.634524
v 0.861026 2.236273 11.351922
v 0.801805 2.236273 11.351922
v 0.772195 2.236273 11.403210
v 0.801805 2.236273 11.454495
v 0.861026 2.236273 11.454495
v 0.890637 2.236273 11.403210
v 0.861026 2.251487 11.351922
v 0.801805 2.251487 11.351922
v 0.772195 2.251487 11.403210
v 0.801805 2.251487 11.454495
v 0.861026 2.251487 11.454495
v 0.890637 2.251487 11.403210
v 0.831416 2.236273 11.403210
v 2.134795 2.236273 11.351922
v 2.075574 2.236273 11.351922
v 2.045963 2.236273 11.403210
v 2.075574 2.236273 11.454495
v 2.134795 2.236273 11.454495
v 2.164405 2.236273 11.403210
v 2.134795 2.251487 11.351922
v 2.075574 2.251487 11.351922
v 2.045963 2.251487 11.403210
v 2.075574 2.251487 11.454495
v 2.134795 2.251487 11.454495
v 2.164405 2.251487 11.403210
v 2.105184 2.236273 11.403210
v -0.284759 2.236273 9.762064
v -0.343980 2.236273 9.762064
v -0.373591 2.236273 9.813351
v -0.343980 2.236273 9.864638
v -0.284759 2.236273 9.864638
v -0.255149 2.236273 9.813351
v -0.284759 2.251487 9.762064
v -0.343980 2.251487 9.762064
v -0.373591 2.251487 9.813351
v -0.343980 2.251487 9.864638
v -0.284759 2.251487 9.864638
v -0.255149 2.251487 9.813351
v -0.314370 2.236273 9.813351
v -0.284759 2.236273 5.332813
v -0.343980 2.236273 5.332813
v -0.373591 2.236273 5.384099
v -0.343980 2.236273 5.435386
v -0.284759 2.236273 5.435386
v -0.255149 2.236273 5.384099
v -0.284759 2.251487 5.332813
v -0.343980 2.251487 5.332813
v -0.373591 2.251487 5.384099
v -0.343980 2.251487 5.435386
v -0.284759 2.251487 5.435386
v -0.255149 2.251487 5.384099
v -0.314370 2.236273 5.384099
v -0.284759 2.236273 0.908086
v -0.343980 2.236273 0.908086
v -0.373591 2.236273 0.959373
v -0.343980 2.236273 1.010660
v -0.284759 2.236273 1.010660
v -0.255149 2.236273 0.959373
v -0.284759 2.251487 0.908086
v -0.343980 2.251487 0.908086
v -0.373591 2.251487 0.959373
v -0.343980 2.251487 1.010660
v -0.284759 2.251487 1.010660
v -0.255149 2.251487 0.959373
v -0.314370 2.236273 0.959373
v -0.284759 2.236273 -3.421248
v -0.343980 2.236273 -3.421248
v -0.373591 2.236273 -3.369963
v -0.343980 2.236273 -3.318676
v -0.284759 2.236273 -3.318676
v -0.255149 2.236273 -3.369963
v -0.284759 2.251487 -3.421248
v -0.343980 2.251487 -3.421248
v -0.373591 2.251487 -3.369963
v -0.343980 2.251487 -3.318676
v -0.284759 2.251487 -3.318676
v -0.255149 2.251487 -3.369963
v -0.314370 2.236273 -3.369963
v 1.655154 2.403056 15.789576
v 4.964558 2.403056 15.789576
v 1.655154 2.603056 15.789576
v 4.964558 2.603056 15.789576
v 1.655154 2.603056 15.682856
v 4.964558 2.603056 15.682856
v 1.655154 2.403056 15.682856
v 4.964558 2.403056 15.682856
vt 0.984311 0.320825
vt 0.984310 0.304277
vt 0.988561 0.304276
vt 0.988562 0.320824
vt 0.984308 0.287728
vt 0.988559 0.287727
vt 0.984307 0.271180
vt 0.988558 0.271180
vt 0.984305 0.254632
vt 0.988556 0.254632
vt 0.984304 0.238083
vt 0.988555 0.238083
vt 0.984302 0.221535
vt 0.988553 0.221535
vt 0.878326 0.453442
vt 0.878326 0.436893
vt 0.892655 0.445169
vt 0.892655 0.461718
vt 0.906988 0.453442
vt 0.906988 0.436893
vt 0.892655 0.428622
vt 0.280321 0.524236
vt 0.280321 0.507686
vt 0.284572 0.507686
vt 0.284572 0.524236
vt 0.280321 0.491138
vt 0.284572 0.491138
vt 0.280321 0.474590
vt 0.284572 0.474590
vt 0.280321 0.458041
vt 0.284572 0.458041
vt 0.280321 0.441493
vt 0.284572 0.441493
vt 0.280321 0.424944
vt 0.284572 0.424944
vt 0.651236 0.453443
vt 0.651236 0.436895
vt 0.665564 0.445172
vt 0.665564 0.461720
vt 0.679897 0.453443
vt 0.679897 0.436895
vt 0.665564 0.428624
vt 0.848057 0.524169
vt 0.848056 0.507621
vt 0.852307 0.507621
vt 0.852308 0.524169
vt 0.848054 0.491072
vt 0.852305 0.491072
vt 0.848053 0.474524
vt 0.852304 0.474524
vt 0.848051 0.457976
vt 0.852302 0.457975
vt 0.848050 0.441428
vt 0.852301 0.441427
vt 0.848048 0.424879
vt 0.852299 0.424879
vt 0.386297 0.453446
vt 0.386297 0.436897
vt 0.400626 0.445169
vt 0.400626 0.461718
vt 0.414960 0.453446
vt 0.414960 0.436897
vt 0.400626 0.428626
vt 0.988566 0.007814
vt 0.988563 0.024359
vt 0.984311 0.024358
vt 0.984314 0.007812
vt 0.988560 0.040909
vt 0.984313 0.040909
vt 0.988563 0.057460
vt 0.984311 0.057459
vt 0.988560 0.074004
vt 0.984308 0.074004
vt 0.988557 0.090556
vt 0.984305 0.090555
vt 0.988554 0.107106
vt 0.984302 0.107105
vt 0.348448 0.453435
vt 0.348451 0.436884
vt 0.362778 0.445161
vt 0.362780 0.461712
vt 0.377109 0.453437
vt 0.377112 0.436891
vt 0.362780 0.428615
vt 0.318179 0.524230
vt 0.318178 0.507682
vt 0.322429 0.507682
vt 0.322430 0.524230
vt 0.318176 0.491134
vt 0.322427 0.491133
vt 0.318175 0.474586
vt 0.322426 0.474585
vt 0.318173 0.458038
vt 0.322424 0.458036
vt 0.318172 0.441489
vt 0.322423 0.441489
vt 0.318170 0.424940
vt 0.322421 0.424940
vt 0.424145 0.453445
vt 0.424145 0.436896
vt 0.438473 0.445169
vt 0.438473 0.461717
vt 0.452806 0.453445
vt 0.452806 0.436896
vt 0.438473 0.428620
vt 0.984311 0.213966
vt 0.984310 0.197417
vt 0.988561 0.197417
vt 0.988562 0.213966
vt 0.984308 0.180869
vt 0.988559 0.180869
vt 0.984307 0.164322
vt 0.988558 0.164321
vt 0.984305 0.147773
vt 0.988556 0.147772
vt 0.984304 0.131225
vt 0.988555 0.131224
vt 0.984302 0.114676
vt 0.988553 0.114675
vt 0.916175 0.453440
vt 0.916175 0.436892
vt 0.930503 0.445169
vt 0.930503 0.461717
vt 0.944837 0.453440
vt 0.944837 0.436892
vt 0.930503 0.428621
vt 0.507421 0.524230
vt 0.507419 0.507682
vt 0.511671 0.507682
vt 0.511671 0.524230
vt 0.507417 0.491134
vt 0.511669 0.491134
vt 0.507416 0.474587
vt 0.511668 0.474586
vt 0.507415 0.458039
vt 0.511666 0.458038
vt 0.507413 0.441491
vt 0.511665 0.441490
vt 0.507412 0.424943
vt 0.511662 0.424943
vt 0.689084 0.453448
vt 0.689084 0.436900
vt 0.703412 0.445171
vt 0.703412 0.461719
vt 0.717745 0.453448
vt 0.717745 0.436900
vt 0.703412 0.428623
vt 0.007812 0.964871
vt 0.007812 0.040137
vt 0.063699 0.040137
vt 0.063699 0.964871
vt 0.093518 0.040137
vt 0.093518 0.964871
vt 0.149404 0.040137
vt 0.149404 0.964871
vt 0.179224 0.040137
vt 0.179224 0.964871
vt 0.007812 0.007813
vt 0.063699 0.007813
vt 0.007812 0.992188
vt 0.063699 0.992188
vn 0.000000 0.000000 -1.000000
vn 0.000000 0.000000 -1.000000
vn 0.000000 0.000000 -1.000000
vn 0.000000 0.000000 -1.000000
vn -0.866025 0.000000 -0.500000
vn -0.866025 0.000000 -0.500000
vn -0.866025 0.000000 -0.500000
vn -0.866025 0.000000 -0.500000
vn -0.866025 0.000000 0.500001
vn -0.866025 0.000000 0.500001
vn -0.866025 0.000000 0.500001
vn -0.866025 0.000000 0.500001
vn 0.000000 0.000000 1.000000
vn 0.000000 0.000000 1.000000
vn 0.000000 0.000000 1.000000
vn 0.000000 0.000000 1.000000
vn 0.866025 0.000000 0.500001
vn 0.866025 0.000000 0.500001
vn 0.866025 0.000000 0.500001
vn 0.866025 0.000000 0.500001
vn 0.866025 0.000000 -0.500000
vn 0.866025 0.000000 -0.500000
vn 0.866025 0.000000 -0.500000
vn 0.866025 0.000000 -0.500000
vn 0.000000 -1.000000 0.000000
vn 0.000000 -1.000000 0.000000
vn 0.000000 -1.000000 0.000000
vn 0.000000 -1.000000 0.000000
vn 0.000000 -1.000000 0.000000
vn 0.000000 -1.000000 0.000000
vn 0.000000 -1.000000 0.000000
vn 0.000000 -1.000000 0.000000
vn 0.000000 -1.000000 0.000000
vn 0.000000 -1.000000 0.000000
vn 0.000000 -1.000000 0.000000
vn 0.000000 -1.000000 0.000000
vn 0.000000 -1.000000 0.000000
vn 0.000000 -1.000000 0.000000
vn 0.000000 -1.000000 0.000000
vn 0.000000 -1.000000 0.000000
vn 0.000000 -1.000000 0.000000
vn 0.000000 -1.000000 0.000000
vn 0.000000 0.000000 -1.000000
vn 0.000000 0.000000 -1.000000
vn 0.000000 0.000000 -1.000000
vn 0.000000 0.000000 -1.000000
vn -0.866022 0.000000 -0.500006
vn -0.866022 0.000000 -0.500006
vn -0.866022 0.000000 -0.500006
vn -0.866022 0.000000 -0.500006
vn -0.866022 0.000000 0.500006
vn -0.866022 0.000000 0.500006
vn -0.866022 0.000000 0.500006
vn -0.866022 0.000000 0.500006
vn 0.000000 0.000000 1.000000
vn 0.000000 0.000000 1.000000
vn 0.000000 0.000000 1.000000
vn 0.000000 0.000000 1.000000
vn 0.866022 0.000000 0.500006
vn 0.866022 0.000000 0.500006
vn 0.866022 0.000000 0.500006
vn 0.866022 0.000000 0.500006
vn 0.866022 0.000000 -0.500006
vn 0.866022 0.000000 -0.500006
vn 0.866022 0.000000 -0.500006
vn 0.866022 0.000000 -0.500006
vn 0.000000 -1.000000 0.000000
vn 0.000000 -1.000000 0.000000
vn 0.000000 -1.000000 0.000000
vn 0.000000 -1.000000 0.000000
vn 0.000000 -1.000000 0.000000
vn 0.000000 -1.000000 0.000000
vn 0.000000 -1.000000 0.000000
vn 0.000000 -1.000000 0.000000
vn 0.000000 -1.000000 0.000000
vn 0.000000 -1.000000 0.000000
vn 0.000000 -1.000000 0.000000
vn 0.000000 -1.000000 0.000000
vn 0.000000 -1.000000 0.000000
vn 0.000000 -1.000000 0.000000
vn 0.000000 -1.000000 0.000000
vn 0.000000 -1.000000 0.000000
vn 0.000000 -1.000000 0.000000
vn 0.000000 -1.000000 0.000000
vn 0.000000 0.000000 -1.000000
vn 0.000000 0.000000 -1.000000
vn 0.000000 0.000000 -1.000000
vn 0.000000 0.000000 -1.000000
vn -0.866022 0.000000 -0.500006
vn -0.866022 0.000000 -0.500006
vn -0.866022 0.000000 -0.500006
vn -0.866022 0.000000 -0.500006
vn -0.866022 0.000000 0.500006
vn -0.866022 0.000000 0.500006
vn -0.866022 0.000000 0.500006
vn -0.866022 0.000000 0.500006
vn 0.000000 0.000000 1.000000
vn 0.000000 0.000000 1.000000
vn 0.000000 0.000000 1.000000
vn 0.000000 0.000000 1.000000
vn 0.866022 0.000000 0.500006
vn 0.866022 0.000000 0.500006
vn 0.866022 0.000000 0.500006
vn 0.866022 0.000000 0.500006
vn 0.866022 0.000000 -0.500006
vn 0.866022 0.000000 -0.500006
vn 0.866022 0.000000 -0.500006
vn 0.866022 0.000000 -0.500006
vn 0.000000 -1.000000 0.000000
vn 0.000000 -1.000000 0.000000
vn 0.000000 -1.000000 0.000000
vn 0.000000 -1.000000 0.000000
vn 0.000000 -1.000000 0.000000
vn 0.000000 -1.000000 0.000000
vn 0.000000 -1.000000 0.000000
vn 0.000000 -1.000000 0.000000
vn 0.000000 -1.000000 0.000000
vn 0.000000 -1.000000 0.000000
vn 0.000000 -1.000000 0.000000
vn 0.000000 -1.000000 0.000000
vn 0.000000 -1.000000 0.000000
vn 0.000000 -1.000000 0.000000
vn 0.000000 -1.000000 0.000000
vn 0.000000 -1.000000 0.000000
vn 0.000000 -1.000000 0.000000
vn 0.000000 -1.000000 0.000000
vn 0.000000 0.000000 -1.000000
vn 0.000000 0.000000 -1.000000
vn 0.000000 0.000000 -1.000000
vn 0.000000 0.000000 -1.000000
vn -0.866022 0.000000 -0.500006
vn -0.866022 0.000000 -0.500006
vn -0.866022 0.000000 -0.500006
vn -0.866022 0.000000 -0.500006
vn -0.866022 0.000000 0.500006
vn -0.866022 0.000000 0.500006
vn -0.866022 0.000000 0.500006
vn -0.866022 0.000000 0.500006
vn 0.000000 0.000000 1.000000
vn 0.000000 0.000000 1.000000
vn 0.000000 0.000000 1.000000
vn 0.000000 0.000000 1.000000
vn 0.866022 0.000000 0.500006
vn 0.866022 0.000000 0.500006
vn 0.866022 0.000000 0.500006
vn 0.866022 0.000000 0.500006
vn 0.866022 0.000000 -0.500006
vn 0.866022 0.000000 -0.500006
vn 0.866022 0.000000 -0.500006
vn 0.866022 0.000000 -0.500006
vn 0.000000 -1.000000 0.000000
vn 0.000000 -1.000000 0.000000
vn 0.000000 -1.000000 0.000000
vn 0.000000 -1.000000 0.000000
vn 0.000000 -1.000000 0.000000
vn 0.000000 -1.000000 0.000000
vn 0.000000 -1.000000 0.000000
vn 0.000000 -1.000000 0.000000
vn 0.000000 -1.000000 0.000000
vn 0.000000 -1.000000 0.000000
vn 0.000000 -1.000000 0.000000
vn 0.000000 -1.000000 0.000000
vn 0.000000 -1.000000 0.000000
vn 0.000000 -1.000000 0.000000
vn 0.000000 -1.000000 0.000000
vn 0.000000 -1.000000 0.000000
vn 0.000000 -1.000000 0.000000
vn 0.000000 -1.000000 0.000000
vn 0.000000 0.000000 -1.000000
vn 0.000000 0.000000 -1.000000
vn 0.000000 0.000000 -1.000000
vn 0.000000 0.000000 -1.000000
vn -0.866022 0.000000 -0.500006
vn -0.866022 0.000000 -0.500006
vn -0.866022 0.000000 -0.500006
vn -0.866022 0.000000 -0.500006
vn -0.866022 0.000000 0.500006
vn -0.866022 0.000000 0.500006
vn -0.866022 0.000000 0.500006
vn -0.866022 0.000000 0.500006
vn 0.000000 0.000000 1.000000
vn 0.000000 0.000000 1.000000
vn 0.000000 0.000000 1.000000
vn 0.000000 0.000000 1.000000
vn 0.866022 0.000000 0.500006
vn 0.866022 0.000000 0.500006
vn 0.866022 0.000000 0.500006
vn 0.866022 0.000000 0.500006
vn 0.866022 0.000000 -0.500006
vn 0.866022 0.000000 -0.500006
vn 0.866022 0.000000 -0.500006
vn 0.866022 0.000000 -0.500006
vn 0.000000 -1.000000 0.000000
vn 0.000000 -1.000000 0.000000
vn 0.000000 -1.000000 0.000000
vn 0.000000 -1.000000 0.000000
vn 0.000000 -1.000000 0.000000
vn 0.000000 -1.000000 0.000000
vn 0.000000 -1.000000 0.000000
vn 0.000000 -1.000000 0.000000
vn 0.000000 -1.000000 0.000000
vn 0.000000 -1.000000 0.000000
vn 0.000000 -1.000000 0.000000
vn 0.000000 -1.000000 0.000000
vn 0.000000 -1.000000 0.000000
vn 0.000000 -1.000000 0.000000
vn 0.000000 -1.000000 0.000000
vn 0.000000 -1.000000 0.000000
vn 0.000000 -1.000000 0.000000
vn 0.000000 -1.000000 0.000000
vn 0.000000 0.000000 -1.000000
vn 0.000000 0.000000 -1.000000
vn 0.000000 0.000000 -1.000000
vn 0.000000 0.000000 -1.000000
vn -0.866022 0.000000 -0.500006
vn -0.866022 0.000000 -0.500006
vn -0.866022 0.000000 -0.500006
vn -0.866022 0.000000 -0.500006
vn -0.866022 0.000000 0.500006
vn -0.866022 0.000000 0.500006
vn -0.866022 0.000000 0.500006
vn -0.866022 0.000000 0.500006
vn 0.000000 0.000000 1.000000
vn 0.000000 0.000000 1.000000
vn 0.000000 0.000000 1.000000
vn 0.000000 0.000000 1.000000
vn 0.866022 0.000000 0.500006
vn 0.866022 0.000000 0.500006
vn 0.866022 0.000000 0.500006
vn 0.866022 0.000000 0.500006
vn 0.866022 0.000000 -0.500006
vn 0.866022 0.000000 -0.500006
vn 0.866022 0.000000 -0.500006
vn 0.866022 0.000000 -0.500006
vn 0.000000 -1.000000 0.000000
vn 0.000000 -1.000000 0.000000
vn 0.000000 -1.000000 0.000000
vn 0.000000 -1.000000 0.000000
vn 0.000000 -1.000000 0.000000
vn 0.000000 -1.000000 0.000000
vn 0.000000 -1.000000 0.000000
vn 0.000000 -1.000000 0.000000
vn 0.000000 -1.000000 0.000000
vn 0.000000 -1.000000 0.000000
vn 0.000000 -1.000000 0.000000
vn 0.000000 -1.000000 0.000000
vn 0.000000 -1.000000 0.000000
vn 0.000000 -1.000000 0.000000
vn 0.000000 -1.000000 0.000000
vn 0.000000 -1.000000 0.000000
vn 0.000000 -1.000000 0.000000
vn 0.000000 -1.000000 0.000000
vn 0.000000 0.000000 -1.000000
vn 0.000000 0.000000 -1.000000
vn 0.000000 0.000000 -1.000000
vn 0.000000 0.000000 -1.000000
vn -0.866022 0.000000 -0.500006
vn -0.866022 0.000000 -0.500006
vn -0.866022 0.000000 -0.500006
vn -0.866022 0.000000 -0.500006
vn -0.866022 0.000000 0.500006
vn -0.866022 0.000000 0.500006
vn -0.866022 0.000000 0.500006
vn -0.866022 0.000000 0.500006
vn 0.000000 0.000000 1.000000
vn 0.000000 0.000000 1.000000
vn 0.000000 0.000000 1.000000
vn 0.000000 0.000000 1.000000
vn 0.866022 0.000000 0.500006
vn 0.866022 0.000000 0.500006
vn 0.866022 0.000000 0.500006
vn 0.866022 0.000000 0.500006
vn 0.866022 0.000000 -0.500006
vn 0.866022 0.000000 -0.500006
vn 0.866022 0.000000 -0.500006
vn 0.866022 0.000000 -0.500006
vn 0.000000 -1.000000 0.000000
vn 0.000000 -1.000000 0.000000
vn 0.000000 -1.000000 0.000000
vn 0.000000 -1.000000 0.000000
vn 0.000000 -1.000000 0.000000
vn 0.000000 -1.000000 0.000000
vn 0.000000 -1.000000 0.000000
vn 0.000000 -1.000000 0.000000
vn 0.000000 -1.000000 0.000000
vn 0.000000 -1.000000 0.000000
vn 0.000000 -1.000000 0.000000
vn 0.000000 -1.000000 0.000000
vn 0.000000 -1.000000 0.000000
vn 0.000000 -1.000000 0.000000
vn 0.000000 -1.000000 0.000000
vn 0.000000 -1.000000 0.000000
vn 0.000000 -1.000000 0.000000
vn 0.000000 -1.000000 0.000000
vn 0.000000 0.000000 1.000000
vn 0.000000 0.000000 1.000000
vn 0.000000 0.000000 1.000000
vn 0.000000 0.000000 1.000000
vn 0.000000 1.000000 0.000000
vn 0.000000 1.000000 0.000000
vn 0.000000 1.000000 0.000000
vn 0.000000 1.000000 0.000000
vn 0.000000 0.000000 -1.000000
vn 0.000000 0.000000 -1.000000
vn 0.000000 0.000000 -1.000000
vn 0.000000 0.000000 -1.000000
vn 0.000000 -1.000000 0.000000
vn 0.000000 -1.000000 0.000000
vn 0.000000 -1.000000 0.000000
vn 0.000000 -1.000000 0.000000
vn 1.000000 0.000000 0.000000
vn 1.000000 0.000000 0.000000
vn 1.000000 0.000000 0.000000
vn 1.000000 0.000000 0.000000
vn -1.000000 0.000000 0.000000
vn -1.000000 0.000000 0.000000
vn -1.000000 0.000000 0.000000
vn -1.000000 0.000000 0.000000
s off
g Light_Neon_Corridor
usemtl blinn8SG
f 1/1/1 2/2/2 8/3/3 7/4/4
f 2/2/5 3/5/6 9/6/7 8/3/8
f 3/5/9 4/7/10 10/8/11 9/6/12
f 4/7/13 5/9/14 11/10/15 10/8/16
f 5/9/17 6/11/18 12/12/19 11/10/20
f 6/11/21 1/13/22 7/14/23 12/12/24
f 2/15/25 1/16/26 13/17/27
f 3/18/28 2/15/29 13/17/30
f 4/19/31 3/18/32 13/17/33
f 5/20/34 4/19/35 13/17/36
f 6/21/37 5/20/38 13/17/39
f 1/16/40 6/21/41 13/17/42
f 14/22/43 15/23/44 21/24/45 20/25/46
f 15/23/47 16/26/48 22/27/49 21/24/50
f 16/26/51 17/28/52 23/29/53 22/27/54
f 17/28/55 18/30/56 24/31/57 23/29/58
f 18/30/59 19/32/60 25/33/61 24/31/62
f 19/32/63 14/34/64 20/35/65 25/33/66
f 15/36/67 14/37/68 26/38/69
f 16/39/70 15/36/71 26/38/72
f 17/40/73 16/39/74 26/38/75
f 18/41/76 17/40/77 26/38/78
f 19/42/79 18/41/80 26/38/81
f 14/37/82 19/42/83 26/38/84
f 27/43/85 28/44/86 34/45/87 33/46/88
f 28/44/89 29/47/90 35/48/91 34/45/92
f 29/47/93 30/49/94 36/50/95 35/48/96
f 30/49/97 31/51/98 37/52/99 36/50/100
f 31/51/101 32/53/102 38/54/103 37/52/104
f 32/53/105 27/55/106 33/56/107 38/54/108
f 28/57/109 27/58/110 39/59/111
f 29/60/112 28/57/113 39/59/114
f 30/61/115 29/60/116 39/59/117
f 31/62/118 30/61/119 39/59/120
f 32/63/121 31/62/122 39/59/123
f 27/58/124 32/63/125 39/59/126
f 40/64/127 41/65/128 47/66/129 46/67/130
f 41/65/131 42/68/132 48/69/133 47/66/134
f 42/68/135 43/70/136 49/71/137 48/69/138
f 43/70/139 44/72/140 50/73/141 49/71/142
f 44/72/143 45/74/144 51/75/145 50/73/146
f 45/74/147 40/76/148 46/77/149 51/75/150
f 41/78/151 40/79/152 52/80/153
f 42/81/154 41/78/155 52/80/156
f 43/82/157 42/81/158 52/80/159
f 44/83/160 43/82/161 52/80/162
f 45/84/163 44/83/164 52/80/165
f 40/79/166 45/84/167 52/80/168
f 53/85/169 54/86/170 60/87/171 59/88/172
f 54/86/173 55/89/174 61/90/175 60/87/176
f 55/89/177 56/91/178 62/92/179 61/90/180
f 56/91/181 57/93/182 63/94/183 62/92/184
f 57/93/185 58/95/186 64/96/187 63/94/188
f 58/95/189 53/97/190 59/98/191 64/96/192
f 54/99/193 53/100/194 65/101/195
f 55/102/196 54/99/197 65/101/198
f 56/103/199 55/102/200 65/101/201
f 57/104/202 56/103/203 65/101/204
f 58/105/205 57/104/206 65/101/207
f 53/100/208 58/105/209 65/101/210
f 66/106/211 67/107/212 73/108/213 72/109/214
f 67/107/215 68/110/216 74/111/217 73/108/218
f 68/110/219 69/112/220 75/113/221 74/111/222
f 69/112/223 70/114/224 76/115/225 75/113/226
f 70/114/227 71/116/228 77/117/229 76/115/230
f 71/116/231 66/118/232 72/119/233 77/117/234
f 67/120/235 66/121/236 78/122/237
f 68/123/238 67/120/239 78/122/240
f 69/124/241 68/123/242 78/122/243
f 70/125/244 69/124/245 78/122/246
f 71/126/247 70/125/248 78/122/249
f 66/121/250 71/126/251 78/122/252
f 79/127/253 80/128/254 86/129/255 85/130/256
f 80/128/257 81/131/258 87/132/259 86/129/260
f 81/131/261 82/133/262 88/134/263 87/132/264
f 82/133/265 83/135/266 89/136/267 88/134/268
f 83/135/269 84/137/270 90/138/271 89/136/272
f 84/137/273 79/139/274 85/140/275 90/138/276
f 80/141/277 79/142/278 91/143/279
f 81/144/280 80/141/281 91/143/282
f 82/145/283 81/144/284 91/143/285
f 83/146/286 82/145/287 91/143/288
f 84/147/289 83/146/290 91/143/291
f 79/142/292 84/147/293 91/143/294
f 92/148/295 93/149/296 95/150/297 94/151/298
f 94/151/299 95/150/300 97/152/301 96/153/302
f 96/153/303 97/152/304 99/154/305 98/155/306
f 98/155/307 99/154/308 93/156/309 92/157/310
f 93/149/311 99/158/312 97/159/313 95/150/314
f 98/160/315 92/148/316 94/151/317 96/161/318
