# This file uses centimeters as units for non-parametric coordinates.

mtllib Knife.mtl
g default
v -0.222336 -0.033955 0.014173
v 0.105827 -0.033955 0.014173
v -0.222336 0.033955 0.014173
v 0.105827 0.033955 0.014173
v -0.222336 0.033955 -0.014173
v 0.105827 0.033955 -0.014173
v -0.222336 -0.033955 -0.014173
v 0.105827 -0.033955 -0.014173
v -0.222336 -0.013582 0.014173
v -0.222336 -0.013582 -0.014173
v 0.105827 -0.013582 -0.014173
v 0.105827 -0.013582 0.014173
v 0.466073 0.025754 -0.005937
v 0.466073 0.025754 0.005937
v 0.466073 0.033955 -0.005937
v 0.466073 0.033955 0.005937
vt 0.375000 0.000000
vt 0.625000 0.000000
vt 0.375000 0.250000
vt 0.625000 0.250000
vt 0.375000 0.500000
vt 0.625000 0.500000
vt 0.375000 0.750000
vt 0.625000 0.750000
vt 0.375000 1.000000
vt 0.625000 1.000000
vt 0.875000 0.000000
vt 0.875000 0.250000
vt 0.125000 0.000000
vt 0.125000 0.250000
vt 0.375000 0.075000
vt 0.125000 0.075000
vt 0.375000 0.675000
vt 0.625000 0.675000
vt 0.875000 0.075000
vt 0.625000 0.075000
vt 0.625000 0.075000
vt 0.875000 0.075000
vt 0.875000 0.250000
vt 0.625000 0.250000
vn 0.000000 0.000000 1.000000
vn 0.000000 0.000000 1.000000
vn 0.006754 0.000000 0.999977
vn 0.000000 0.000000 1.000000
vn 0.000000 1.000000 0.000000
vn -0.000000 1.000000 0.000000
vn -0.000000 1.000000 0.000000
vn 0.000000 1.000000 0.000000
vn 0.000000 0.000000 -1.000000
vn 0.006754 0.000000 -0.999977
vn 0.000000 0.000000 -1.000000
vn 0.000000 0.000000 -1.000000
vn 0.000000 -1.000000 0.000000
vn 0.000000 -1.000000 0.000000
vn 0.000000 -1.000000 0.000000
vn 0.000000 -1.000000 0.000000
vn 1.000000 0.000000 0.000000
vn 1.000000 0.000000 0.000000
vn 1.000000 0.000000 0.000000
vn 1.000000 0.000000 0.000000
vn -1.000000 0.000000 0.000000
vn -1.000000 0.000000 0.000000
vn -1.000000 0.000000 0.000000
vn -1.000000 0.000000 0.000000
vn -1.000000 0.000000 0.000000
vn -1.000000 0.000000 0.000000
vn 0.000000 0.000000 -1.000000
vn 0.008951 0.000000 -0.999960
vn 1.000000 0.000000 0.000000
vn 1.000000 0.000000 0.000000
vn 1.000000 0.000000 0.000000
vn 1.000000 0.000000 0.000000
vn 0.008951 0.000000 0.999960
vn 0.000000 0.000000 1.000000
vn 0.108547 -0.994091 -0.000000
vn 0.108547 -0.994091 -0.000000
vn 0.108547 -0.994091 -0.000000
vn 0.108547 -0.994091 -0.000000
vn 0.022855 0.000000 -0.999739
vn 0.022855 0.000000 -0.999739
vn -0.000000 1.000000 0.000000
vn -0.000000 1.000000 0.000000
vn 0.022855 0.000000 0.999739
vn 0.022855 0.000000 0.999739
s 1
g Knife
usemtl initialShadingGroup
f 1/1/1 2/2/2 12/20/3 9/15/4
s 2
f 3/3/5 4/4/6 6/6/7 5/5/8
s 3
f 10/17/9 11/18/10 8/8/11 7/7/12
s off
f 7/7/13 8/8/14 2/10/15 1/9/16
f 2/2/17 8/11/18 11/19/19 12/20/20
s 4
f 7/13/21 1/1/22 9/15/23 10/16/24
f 10/16/24 9/15/23 3/3/25 5/14/26
s 3
f 5/5/27 6/6/28 11/18/10 10/17/9
s off
f 14/21/29 13/22/30 15/23/31 16/24/32
s 1
f 9/15/4 12/20/3 4/4/33 3/3/34
s off
f 12/20/35 11/19/36 13/22/37 14/21/38
s 3
f 11/19/10 6/12/28 15/23/39 13/22/40
s 2
f 6/12/7 4/4/6 16/24/41 15/23/42
s 1
f 4/4/33 12/20/3 14/21/43 16/24/44
